<svg width="275" height="205" viewBox="0 0 275 205" fill="none" xmlns="http://www.w3.org/2000/svg">
<path d="M47.5635 117H46.251V107.047H47.5635V117ZM50.9678 109.604L51.0088 110.533C51.5739 109.822 52.3122 109.467 53.2236 109.467C54.7868 109.467 55.5752 110.349 55.5889 112.112V117H54.3242V112.105C54.3197 111.572 54.1966 111.178 53.9551 110.923C53.7181 110.668 53.3467 110.54 52.8408 110.54C52.4307 110.54 52.0706 110.649 51.7607 110.868C51.4508 111.087 51.2093 111.374 51.0361 111.729V117H49.7715V109.604H50.9678ZM60.4629 116.104C60.9141 116.104 61.3083 115.968 61.6455 115.694C61.9827 115.421 62.1696 115.079 62.2061 114.669H63.4023C63.3796 115.093 63.2337 115.496 62.9648 115.879C62.696 116.262 62.3359 116.567 61.8848 116.795C61.4382 117.023 60.9642 117.137 60.4629 117.137C59.4557 117.137 58.6536 116.802 58.0566 116.132C57.4642 115.457 57.168 114.537 57.168 113.37V113.158C57.168 112.438 57.3001 111.798 57.5645 111.237C57.8288 110.677 58.207 110.242 58.6992 109.932C59.196 109.622 59.7816 109.467 60.4561 109.467C61.2855 109.467 61.9736 109.715 62.5205 110.212C63.0719 110.709 63.3659 111.354 63.4023 112.146H62.2061C62.1696 111.668 61.9873 111.276 61.6592 110.971C61.3356 110.661 60.9346 110.506 60.4561 110.506C59.8135 110.506 59.3145 110.738 58.959 111.203C58.6081 111.663 58.4326 112.331 58.4326 113.206V113.445C58.4326 114.298 58.6081 114.954 58.959 115.414C59.3099 115.874 59.8112 116.104 60.4629 116.104ZM66.1982 117H64.9336V106.5H66.1982V117ZM72.7949 116.269C72.3027 116.847 71.5804 117.137 70.6279 117.137C69.8395 117.137 69.238 116.909 68.8232 116.453C68.4131 115.993 68.2057 115.314 68.2012 114.416V109.604H69.4658V114.382C69.4658 115.503 69.9215 116.063 70.833 116.063C71.7992 116.063 72.4417 115.703 72.7607 114.983V109.604H74.0254V117H72.8223L72.7949 116.269ZM75.6455 113.24C75.6455 112.105 75.9144 111.194 76.4521 110.506C76.9899 109.813 77.694 109.467 78.5645 109.467C79.4303 109.467 80.1162 109.763 80.6221 110.355V106.5H81.8867V117H80.7246L80.6631 116.207C80.1572 116.827 79.4531 117.137 78.5508 117.137C77.694 117.137 76.9945 116.786 76.4521 116.084C75.9144 115.382 75.6455 114.466 75.6455 113.336V113.24ZM76.9102 113.384C76.9102 114.222 77.0833 114.879 77.4297 115.353C77.776 115.826 78.2546 116.063 78.8652 116.063C79.6673 116.063 80.2529 115.703 80.6221 114.983V111.586C80.2438 110.889 79.6628 110.54 78.8789 110.54C78.2591 110.54 77.776 110.779 77.4297 111.258C77.0833 111.736 76.9102 112.445 76.9102 113.384ZM86.9248 117.137C85.9222 117.137 85.1064 116.809 84.4775 116.152C83.8486 115.492 83.5342 114.61 83.5342 113.507V113.274C83.5342 112.541 83.6732 111.887 83.9512 111.312C84.2337 110.734 84.6257 110.283 85.127 109.959C85.6328 109.631 86.1797 109.467 86.7676 109.467C87.7292 109.467 88.4766 109.784 89.0098 110.417C89.543 111.05 89.8096 111.957 89.8096 113.138V113.664H84.7988C84.8171 114.393 85.029 114.983 85.4346 115.435C85.8447 115.881 86.3643 116.104 86.9932 116.104C87.4398 116.104 87.818 116.013 88.1279 115.831C88.4378 115.649 88.709 115.407 88.9414 115.106L89.7139 115.708C89.0941 116.66 88.1644 117.137 86.9248 117.137ZM86.7676 110.506C86.2572 110.506 85.8288 110.693 85.4824 111.066C85.1361 111.436 84.9219 111.955 84.8398 112.625H88.5449V112.529C88.5085 111.887 88.3353 111.39 88.0254 111.039C87.7155 110.684 87.2962 110.506 86.7676 110.506ZM97.7188 116.104C98.1699 116.104 98.5641 115.968 98.9014 115.694C99.2386 115.421 99.4255 115.079 99.4619 114.669H100.658C100.635 115.093 100.49 115.496 100.221 115.879C99.9518 116.262 99.5918 116.567 99.1406 116.795C98.694 117.023 98.2201 117.137 97.7188 117.137C96.7116 117.137 95.9095 116.802 95.3125 116.132C94.7201 115.457 94.4238 114.537 94.4238 113.37V113.158C94.4238 112.438 94.556 111.798 94.8203 111.237C95.0846 110.677 95.4629 110.242 95.9551 109.932C96.4518 109.622 97.0374 109.467 97.7119 109.467C98.5413 109.467 99.2295 109.715 99.7764 110.212C100.328 110.709 100.622 111.354 100.658 112.146H99.4619C99.4255 111.668 99.2432 111.276 98.915 110.971C98.5915 110.661 98.1904 110.506 97.7119 110.506C97.0693 110.506 96.5703 110.738 96.2148 111.203C95.8639 111.663 95.6885 112.331 95.6885 113.206V113.445C95.6885 114.298 95.8639 114.954 96.2148 115.414C96.5658 115.874 97.0671 116.104 97.7188 116.104ZM106.646 117C106.574 116.854 106.514 116.594 106.469 116.221C105.881 116.831 105.179 117.137 104.363 117.137C103.634 117.137 103.035 116.932 102.565 116.521C102.101 116.107 101.868 115.583 101.868 114.949C101.868 114.179 102.16 113.582 102.743 113.158C103.331 112.73 104.156 112.516 105.218 112.516H106.448V111.935C106.448 111.493 106.316 111.142 106.052 110.882C105.787 110.618 105.398 110.485 104.883 110.485C104.432 110.485 104.053 110.599 103.748 110.827C103.443 111.055 103.29 111.331 103.29 111.654H102.019C102.019 111.285 102.148 110.93 102.408 110.588C102.673 110.242 103.028 109.968 103.475 109.768C103.926 109.567 104.42 109.467 104.958 109.467C105.81 109.467 106.478 109.681 106.961 110.109C107.444 110.533 107.695 111.119 107.713 111.866V115.271C107.713 115.95 107.799 116.49 107.973 116.891V117H106.646ZM104.548 116.036C104.944 116.036 105.32 115.934 105.676 115.729C106.031 115.523 106.289 115.257 106.448 114.929V113.411H105.457C103.908 113.411 103.133 113.865 103.133 114.771C103.133 115.168 103.265 115.478 103.529 115.701C103.794 115.924 104.133 116.036 104.548 116.036ZM110.892 109.604L110.933 110.533C111.498 109.822 112.236 109.467 113.147 109.467C114.711 109.467 115.499 110.349 115.513 112.112V117H114.248V112.105C114.243 111.572 114.12 111.178 113.879 110.923C113.642 110.668 113.271 110.54 112.765 110.54C112.354 110.54 111.994 110.649 111.685 110.868C111.375 111.087 111.133 111.374 110.96 111.729V117H109.695V109.604H110.892ZM120.387 116.104C120.838 116.104 121.232 115.968 121.569 115.694C121.907 115.421 122.093 115.079 122.13 114.669H123.326C123.303 115.093 123.158 115.496 122.889 115.879C122.62 116.262 122.26 116.567 121.809 116.795C121.362 117.023 120.888 117.137 120.387 117.137C119.38 117.137 118.577 116.802 117.98 116.132C117.388 115.457 117.092 114.537 117.092 113.37V113.158C117.092 112.438 117.224 111.798 117.488 111.237C117.753 110.677 118.131 110.242 118.623 109.932C119.12 109.622 119.705 109.467 120.38 109.467C121.209 109.467 121.897 109.715 122.444 110.212C122.996 110.709 123.29 111.354 123.326 112.146H122.13C122.093 111.668 121.911 111.276 121.583 110.971C121.259 110.661 120.858 110.506 120.38 110.506C119.737 110.506 119.238 110.738 118.883 111.203C118.532 111.663 118.356 112.331 118.356 113.206V113.445C118.356 114.298 118.532 114.954 118.883 115.414C119.234 115.874 119.735 116.104 120.387 116.104ZM127.817 117.137C126.815 117.137 125.999 116.809 125.37 116.152C124.741 115.492 124.427 114.61 124.427 113.507V113.274C124.427 112.541 124.566 111.887 124.844 111.312C125.126 110.734 125.518 110.283 126.02 109.959C126.525 109.631 127.072 109.467 127.66 109.467C128.622 109.467 129.369 109.784 129.902 110.417C130.436 111.05 130.702 111.957 130.702 113.138V113.664H125.691C125.71 114.393 125.922 114.983 126.327 115.435C126.737 115.881 127.257 116.104 127.886 116.104C128.332 116.104 128.711 116.013 129.021 115.831C129.33 115.649 129.602 115.407 129.834 115.106L130.606 115.708C129.987 116.66 129.057 117.137 127.817 117.137ZM127.66 110.506C127.15 110.506 126.721 110.693 126.375 111.066C126.029 111.436 125.814 111.955 125.732 112.625H129.438V112.529C129.401 111.887 129.228 111.39 128.918 111.039C128.608 110.684 128.189 110.506 127.66 110.506ZM133.546 117H132.281V106.5H133.546V117ZM138.646 117.137C137.643 117.137 136.827 116.809 136.198 116.152C135.569 115.492 135.255 114.61 135.255 113.507V113.274C135.255 112.541 135.394 111.887 135.672 111.312C135.954 110.734 136.346 110.283 136.848 109.959C137.354 109.631 137.9 109.467 138.488 109.467C139.45 109.467 140.197 109.784 140.73 110.417C141.264 111.05 141.53 111.957 141.53 113.138V113.664H136.52C136.538 114.393 136.75 114.983 137.155 115.435C137.565 115.881 138.085 116.104 138.714 116.104C139.16 116.104 139.539 116.013 139.849 115.831C140.159 115.649 140.43 115.407 140.662 115.106L141.435 115.708C140.815 116.66 139.885 117.137 138.646 117.137ZM138.488 110.506C137.978 110.506 137.549 110.693 137.203 111.066C136.857 111.436 136.643 111.955 136.561 112.625H140.266V112.529C140.229 111.887 140.056 111.39 139.746 111.039C139.436 110.684 139.017 110.506 138.488 110.506ZM142.692 113.24C142.692 112.105 142.961 111.194 143.499 110.506C144.037 109.813 144.741 109.467 145.611 109.467C146.477 109.467 147.163 109.763 147.669 110.355V106.5H148.934V117H147.771L147.71 116.207C147.204 116.827 146.5 117.137 145.598 117.137C144.741 117.137 144.041 116.786 143.499 116.084C142.961 115.382 142.692 114.466 142.692 113.336V113.24ZM143.957 113.384C143.957 114.222 144.13 114.879 144.477 115.353C144.823 115.826 145.301 116.063 145.912 116.063C146.714 116.063 147.3 115.703 147.669 114.983V111.586C147.291 110.889 146.71 110.54 145.926 110.54C145.306 110.54 144.823 110.779 144.477 111.258C144.13 111.736 143.957 112.445 143.957 113.384ZM160.637 113.384C160.637 114.514 160.377 115.423 159.857 116.111C159.338 116.795 158.641 117.137 157.766 117.137C156.831 117.137 156.109 116.806 155.599 116.146L155.537 117H154.375V106.5H155.64V110.417C156.15 109.784 156.854 109.467 157.752 109.467C158.65 109.467 159.354 109.806 159.864 110.485C160.379 111.164 160.637 112.094 160.637 113.274V113.384ZM159.372 113.24C159.372 112.379 159.206 111.714 158.873 111.244C158.54 110.775 158.062 110.54 157.438 110.54C156.604 110.54 156.004 110.927 155.64 111.702V114.901C156.027 115.676 156.631 116.063 157.451 116.063C158.057 116.063 158.529 115.829 158.866 115.359C159.203 114.89 159.372 114.184 159.372 113.24ZM161.901 113.233C161.901 112.509 162.043 111.857 162.325 111.278C162.612 110.7 163.009 110.253 163.515 109.938C164.025 109.624 164.606 109.467 165.258 109.467C166.265 109.467 167.078 109.815 167.698 110.513C168.323 111.21 168.635 112.137 168.635 113.295V113.384C168.635 114.104 168.496 114.751 168.218 115.325C167.944 115.895 167.55 116.339 167.035 116.658C166.525 116.977 165.937 117.137 165.271 117.137C164.269 117.137 163.455 116.788 162.831 116.091C162.211 115.394 161.901 114.471 161.901 113.322V113.233ZM163.173 113.384C163.173 114.204 163.362 114.863 163.74 115.359C164.123 115.856 164.633 116.104 165.271 116.104C165.914 116.104 166.424 115.854 166.803 115.353C167.181 114.847 167.37 114.14 167.37 113.233C167.37 112.422 167.176 111.766 166.789 111.265C166.406 110.759 165.896 110.506 165.258 110.506C164.633 110.506 164.13 110.754 163.747 111.251C163.364 111.748 163.173 112.459 163.173 113.384ZM169.886 113.233C169.886 112.509 170.027 111.857 170.31 111.278C170.597 110.7 170.993 110.253 171.499 109.938C172.009 109.624 172.59 109.467 173.242 109.467C174.249 109.467 175.063 109.815 175.683 110.513C176.307 111.21 176.619 112.137 176.619 113.295V113.384C176.619 114.104 176.48 114.751 176.202 115.325C175.929 115.895 175.535 116.339 175.02 116.658C174.509 116.977 173.921 117.137 173.256 117.137C172.253 117.137 171.44 116.788 170.815 116.091C170.196 115.394 169.886 114.471 169.886 113.322V113.233ZM171.157 113.384C171.157 114.204 171.346 114.863 171.725 115.359C172.107 115.856 172.618 116.104 173.256 116.104C173.898 116.104 174.409 115.854 174.787 115.353C175.165 114.847 175.354 114.14 175.354 113.233C175.354 112.422 175.161 111.766 174.773 111.265C174.391 110.759 173.88 110.506 173.242 110.506C172.618 110.506 172.114 110.754 171.731 111.251C171.349 111.748 171.157 112.459 171.157 113.384ZM180.27 113.575L179.477 114.402V117H178.212V106.5H179.477V112.851L180.153 112.037L182.457 109.604H183.995L181.117 112.693L184.33 117H182.847L180.27 113.575ZM186.675 117H185.41V109.604H186.675V117ZM185.308 107.642C185.308 107.437 185.369 107.263 185.492 107.122C185.62 106.981 185.807 106.91 186.053 106.91C186.299 106.91 186.486 106.981 186.613 107.122C186.741 107.263 186.805 107.437 186.805 107.642C186.805 107.847 186.741 108.018 186.613 108.154C186.486 108.291 186.299 108.359 186.053 108.359C185.807 108.359 185.62 108.291 185.492 108.154C185.369 108.018 185.308 107.847 185.308 107.642ZM189.901 109.604L189.942 110.533C190.507 109.822 191.246 109.467 192.157 109.467C193.72 109.467 194.509 110.349 194.522 112.112V117H193.258V112.105C193.253 111.572 193.13 111.178 192.889 110.923C192.652 110.668 192.28 110.54 191.774 110.54C191.364 110.54 191.004 110.649 190.694 110.868C190.384 111.087 190.143 111.374 189.97 111.729V117H188.705V109.604H189.901ZM196.129 113.24C196.129 112.087 196.396 111.171 196.929 110.492C197.462 109.809 198.168 109.467 199.048 109.467C199.95 109.467 200.654 109.786 201.16 110.424L201.222 109.604H202.377V116.822C202.377 117.779 202.092 118.534 201.522 119.085C200.957 119.636 200.196 119.912 199.239 119.912C198.706 119.912 198.184 119.798 197.674 119.57C197.163 119.342 196.774 119.03 196.505 118.634L197.161 117.875C197.703 118.545 198.367 118.88 199.15 118.88C199.766 118.88 200.244 118.707 200.586 118.36C200.932 118.014 201.105 117.526 201.105 116.897V116.262C200.6 116.845 199.909 117.137 199.034 117.137C198.168 117.137 197.466 116.788 196.929 116.091C196.396 115.394 196.129 114.443 196.129 113.24ZM197.4 113.384C197.4 114.218 197.571 114.874 197.913 115.353C198.255 115.826 198.733 116.063 199.349 116.063C200.146 116.063 200.732 115.701 201.105 114.977V111.6C200.718 110.893 200.137 110.54 199.362 110.54C198.747 110.54 198.266 110.779 197.92 111.258C197.574 111.736 197.4 112.445 197.4 113.384ZM208.598 115.038C208.598 114.696 208.468 114.432 208.208 114.245C207.953 114.054 207.504 113.89 206.861 113.753C206.223 113.616 205.715 113.452 205.337 113.261C204.963 113.069 204.685 112.841 204.503 112.577C204.325 112.313 204.236 111.998 204.236 111.634C204.236 111.028 204.492 110.515 205.002 110.096C205.517 109.676 206.173 109.467 206.971 109.467C207.809 109.467 208.488 109.683 209.008 110.116C209.532 110.549 209.794 111.103 209.794 111.777H208.522C208.522 111.431 208.374 111.132 208.078 110.882C207.786 110.631 207.417 110.506 206.971 110.506C206.51 110.506 206.15 110.606 205.891 110.807C205.631 111.007 205.501 111.269 205.501 111.593C205.501 111.898 205.622 112.128 205.863 112.283C206.105 112.438 206.54 112.586 207.169 112.728C207.802 112.869 208.315 113.037 208.707 113.233C209.099 113.429 209.388 113.666 209.575 113.944C209.767 114.218 209.862 114.553 209.862 114.949C209.862 115.61 209.598 116.141 209.069 116.542C208.541 116.938 207.855 117.137 207.012 117.137C206.419 117.137 205.895 117.032 205.439 116.822C204.984 116.613 204.626 116.321 204.366 115.947C204.111 115.569 203.983 115.161 203.983 114.724H205.248C205.271 115.147 205.439 115.485 205.754 115.735C206.073 115.981 206.492 116.104 207.012 116.104C207.49 116.104 207.873 116.009 208.16 115.817C208.452 115.621 208.598 115.362 208.598 115.038Z" fill="black"/>
<path d="M41.7568 74.3447C41.7568 75.3063 41.6042 76.1357 41.2988 76.833C40.9935 77.5257 40.5651 78.068 40.0137 78.46L41.791 79.8545L40.8955 80.6816L38.7969 79.0137C38.4688 79.0957 38.1224 79.1367 37.7578 79.1367C36.974 79.1367 36.279 78.9453 35.6729 78.5625C35.0667 78.1751 34.5951 77.626 34.2578 76.915C33.9251 76.1995 33.7542 75.3724 33.7451 74.4336V73.7158C33.7451 72.7588 33.9115 71.9134 34.2441 71.1797C34.5768 70.446 35.0462 69.8854 35.6523 69.498C36.263 69.1061 36.9603 68.9102 37.7441 68.9102C38.5462 68.9102 39.2503 69.1038 39.8564 69.4912C40.4671 69.8786 40.9365 70.4368 41.2646 71.166C41.5928 71.8906 41.7568 72.7383 41.7568 73.709V74.3447ZM40.4443 73.7021C40.4443 72.5309 40.2096 71.6286 39.7402 70.9951C39.2754 70.3571 38.61 70.0381 37.7441 70.0381C36.9193 70.0381 36.2676 70.3548 35.7891 70.9883C35.3151 71.6172 35.0713 72.4922 35.0576 73.6133V74.3447C35.0576 75.484 35.2946 76.3818 35.7686 77.0381C36.2471 77.6943 36.9102 78.0225 37.7578 78.0225C38.6055 78.0225 39.2617 77.7148 39.7266 77.0996C40.1914 76.4798 40.4307 75.5934 40.4443 74.4404V73.7021ZM47.6084 79H46.3369V70.5713L43.7871 71.5078V70.3594L47.4102 68.999H47.6084V79ZM61.3076 79H54.7861V78.0908L58.2314 74.2627C58.7419 73.6839 59.0928 73.2145 59.2842 72.8545C59.4801 72.4899 59.5781 72.1139 59.5781 71.7266C59.5781 71.207 59.4209 70.7809 59.1064 70.4482C58.792 70.1156 58.3727 69.9492 57.8486 69.9492C57.2197 69.9492 56.7298 70.1292 56.3789 70.4893C56.0326 70.8447 55.8594 71.3415 55.8594 71.9795H54.5947C54.5947 71.0635 54.8887 70.3229 55.4766 69.7578C56.069 69.1927 56.8597 68.9102 57.8486 68.9102C58.7738 68.9102 59.5052 69.154 60.043 69.6416C60.5807 70.1247 60.8496 70.7695 60.8496 71.5762C60.8496 72.556 60.2253 73.7227 58.9766 75.0762L56.3105 77.9678H61.3076V79ZM68.8887 74.7549C68.8887 76.236 68.6357 77.3366 68.1299 78.0566C67.624 78.7767 66.8333 79.1367 65.7578 79.1367C64.696 79.1367 63.9098 78.7858 63.3994 78.084C62.889 77.3776 62.6247 76.3249 62.6064 74.9258V73.2373C62.6064 71.7744 62.8594 70.6875 63.3652 69.9766C63.8711 69.2656 64.6641 68.9102 65.7441 68.9102C66.8151 68.9102 67.6035 69.2542 68.1094 69.9424C68.6152 70.626 68.875 71.6833 68.8887 73.1143V74.7549ZM67.624 73.0254C67.624 71.9544 67.4736 71.1751 67.1729 70.6875C66.8721 70.1953 66.3958 69.9492 65.7441 69.9492C65.097 69.9492 64.6253 70.193 64.3291 70.6807C64.0329 71.1683 63.8802 71.918 63.8711 72.9297V74.9531C63.8711 76.0286 64.026 76.8239 64.3359 77.3389C64.6504 77.8493 65.1243 78.1045 65.7578 78.1045C66.3822 78.1045 66.8447 77.863 67.1455 77.3799C67.4508 76.8968 67.6104 76.1357 67.624 75.0967V73.0254ZM74.665 79H73.3936V70.5713L70.8438 71.5078V70.3594L74.4668 68.999H74.665V79ZM83.2168 74.625C82.9525 74.9395 82.6357 75.1924 82.2666 75.3838C81.902 75.5752 81.501 75.6709 81.0635 75.6709C80.4893 75.6709 79.988 75.5296 79.5596 75.2471C79.1357 74.9645 78.8076 74.568 78.5752 74.0576C78.3428 73.5426 78.2266 72.9753 78.2266 72.3555C78.2266 71.6901 78.3519 71.0908 78.6025 70.5576C78.8577 70.0244 79.2178 69.6165 79.6826 69.334C80.1475 69.0514 80.6898 68.9102 81.3096 68.9102C82.2939 68.9102 83.0687 69.2793 83.6338 70.0176C84.2035 70.7513 84.4883 71.7539 84.4883 73.0254V73.3945C84.4883 75.3314 84.1055 76.7464 83.3398 77.6396C82.5742 78.5283 81.4189 78.984 79.874 79.0068H79.6279V77.9404H79.8945C80.9382 77.9222 81.7402 77.651 82.3008 77.127C82.8613 76.5983 83.1667 75.7643 83.2168 74.625ZM81.2686 74.625C81.6924 74.625 82.082 74.4951 82.4375 74.2354C82.7975 73.9756 83.0596 73.6543 83.2236 73.2715V72.7656C83.2236 71.9362 83.0436 71.2617 82.6836 70.7422C82.3236 70.2227 81.8678 69.9629 81.3164 69.9629C80.7604 69.9629 80.3138 70.1771 79.9766 70.6055C79.6393 71.0293 79.4707 71.5898 79.4707 72.2871C79.4707 72.9661 79.6325 73.5267 79.9561 73.9688C80.2842 74.4062 80.7217 74.625 81.2686 74.625Z" fill="black"/>
<rect x="33" y="66" width="53" height="16" rx="8" fill="#E1E1EA"/>
<rect x="44" y="104" width="167" height="16" rx="8" fill="#E1E1EA"/>
<rect x="21" y="105" width="15" height="15" rx="1" stroke="#E1E1EA" stroke-width="2"/>
<path d="M53.4766 141.842C53.3535 142.895 52.9639 143.708 52.3076 144.282C51.6559 144.852 50.7878 145.137 49.7031 145.137C48.5273 145.137 47.584 144.715 46.873 143.872C46.1667 143.029 45.8135 141.901 45.8135 140.488V139.531C45.8135 138.606 45.9775 137.793 46.3057 137.091C46.6383 136.389 47.1077 135.851 47.7139 135.478C48.32 135.099 49.0218 134.91 49.8193 134.91C50.8766 134.91 51.7243 135.206 52.3623 135.799C53.0003 136.387 53.3717 137.202 53.4766 138.246H52.1572C52.0433 137.453 51.7949 136.879 51.4121 136.523C51.0339 136.168 50.5029 135.99 49.8193 135.99C48.9808 135.99 48.3223 136.3 47.8438 136.92C47.3698 137.54 47.1328 138.422 47.1328 139.565V140.529C47.1328 141.609 47.3584 142.468 47.8096 143.106C48.2607 143.744 48.8919 144.063 49.7031 144.063C50.4323 144.063 50.9906 143.899 51.3779 143.571C51.7699 143.239 52.0296 142.662 52.1572 141.842H53.4766ZM58.207 140.563C57.0814 140.24 56.2611 139.843 55.7461 139.374C55.2357 138.9 54.9805 138.317 54.9805 137.624C54.9805 136.84 55.2926 136.193 55.917 135.683C56.5459 135.168 57.3617 134.91 58.3643 134.91C59.0479 134.91 59.6562 135.042 60.1895 135.307C60.7272 135.571 61.1419 135.936 61.4336 136.4C61.7298 136.865 61.8779 137.373 61.8779 137.925H60.5586C60.5586 137.323 60.3672 136.852 59.9844 136.51C59.6016 136.163 59.0615 135.99 58.3643 135.99C57.7171 135.99 57.2113 136.134 56.8467 136.421C56.4867 136.703 56.3066 137.098 56.3066 137.604C56.3066 138.009 56.4775 138.353 56.8193 138.636C57.1657 138.914 57.7513 139.169 58.5762 139.401C59.4056 139.634 60.0527 139.891 60.5176 140.174C60.987 140.452 61.3333 140.778 61.5566 141.151C61.7845 141.525 61.8984 141.965 61.8984 142.471C61.8984 143.277 61.584 143.924 60.9551 144.412C60.3262 144.895 59.4854 145.137 58.4326 145.137C57.749 145.137 57.111 145.007 56.5186 144.747C55.9261 144.483 55.4681 144.123 55.1445 143.667C54.8255 143.211 54.666 142.694 54.666 142.115H55.9854C55.9854 142.717 56.2064 143.193 56.6484 143.544C57.0951 143.89 57.6898 144.063 58.4326 144.063C59.1253 144.063 59.6562 143.922 60.0254 143.64C60.3945 143.357 60.5791 142.972 60.5791 142.484C60.5791 141.997 60.4082 141.621 60.0664 141.356C59.7246 141.088 59.1048 140.823 58.207 140.563ZM66.8818 143.257L69.7256 135.047H71.1611L67.4697 145H66.3076L62.623 135.047H64.0518L66.8818 143.257Z" fill="black"/>
<rect x="21" y="133" width="15" height="15" rx="7.5" stroke="#E1E1EA" stroke-width="2"/>
<path d="M126.325 135.047H127.645V142.095C127.645 143.047 127.357 143.792 126.783 144.33C126.214 144.868 125.452 145.137 124.5 145.137C123.511 145.137 122.741 144.884 122.189 144.378C121.638 143.872 121.362 143.163 121.362 142.252H122.675C122.675 142.822 122.83 143.266 123.14 143.585C123.454 143.904 123.908 144.063 124.5 144.063C125.042 144.063 125.48 143.893 125.812 143.551C126.15 143.209 126.321 142.73 126.325 142.115V135.047ZM132.812 140.563C131.687 140.24 130.867 139.843 130.352 139.374C129.841 138.9 129.586 138.317 129.586 137.624C129.586 136.84 129.898 136.193 130.522 135.683C131.151 135.168 131.967 134.91 132.97 134.91C133.653 134.91 134.262 135.042 134.795 135.307C135.333 135.571 135.747 135.936 136.039 136.4C136.335 136.865 136.483 137.373 136.483 137.925H135.164C135.164 137.323 134.973 136.852 134.59 136.51C134.207 136.163 133.667 135.99 132.97 135.99C132.323 135.99 131.817 136.134 131.452 136.421C131.092 136.703 130.912 137.098 130.912 137.604C130.912 138.009 131.083 138.353 131.425 138.636C131.771 138.914 132.357 139.169 133.182 139.401C134.011 139.634 134.658 139.891 135.123 140.174C135.592 140.452 135.939 140.778 136.162 141.151C136.39 141.525 136.504 141.965 136.504 142.471C136.504 143.277 136.189 143.924 135.561 144.412C134.932 144.895 134.091 145.137 133.038 145.137C132.354 145.137 131.716 145.007 131.124 144.747C130.532 144.483 130.074 144.123 129.75 143.667C129.431 143.211 129.271 142.694 129.271 142.115H130.591C130.591 142.717 130.812 143.193 131.254 143.544C131.701 143.89 132.295 144.063 133.038 144.063C133.731 144.063 134.262 143.922 134.631 143.64C135 143.357 135.185 142.972 135.185 142.484C135.185 141.997 135.014 141.621 134.672 141.356C134.33 141.088 133.71 140.823 132.812 140.563ZM145.849 140.345C145.849 141.32 145.685 142.172 145.356 142.901C145.028 143.626 144.563 144.18 143.962 144.562C143.36 144.945 142.659 145.137 141.856 145.137C141.073 145.137 140.378 144.945 139.771 144.562C139.165 144.175 138.694 143.626 138.356 142.915C138.024 142.2 137.853 141.372 137.844 140.434V139.716C137.844 138.759 138.01 137.913 138.343 137.18C138.675 136.446 139.145 135.885 139.751 135.498C140.362 135.106 141.059 134.91 141.843 134.91C142.64 134.91 143.342 135.104 143.948 135.491C144.559 135.874 145.028 136.432 145.356 137.166C145.685 137.895 145.849 138.745 145.849 139.716V140.345ZM144.543 139.702C144.543 138.522 144.306 137.617 143.832 136.988C143.358 136.355 142.695 136.038 141.843 136.038C141.013 136.038 140.359 136.355 139.881 136.988C139.407 137.617 139.163 138.492 139.149 139.613V140.345C139.149 141.489 139.389 142.389 139.867 143.045C140.35 143.697 141.013 144.022 141.856 144.022C142.704 144.022 143.36 143.715 143.825 143.1C144.29 142.48 144.529 141.593 144.543 140.44V139.702ZM155.467 145H154.147L149.137 137.33V145H147.817V135.047H149.137L154.161 142.751V135.047H155.467V145Z" fill="black"/>
<rect x="97" y="133" width="15" height="15" rx="7.5" stroke="#E1E1EA" stroke-width="2"/>
<rect x="21" y="57" width="233" height="34" rx="1" stroke="#E1E1EA" stroke-width="2"/>
<path d="M231 71L237 77L243 71" stroke="#E1E1EA" stroke-width="2" stroke-linecap="round" stroke-linejoin="round"/>
<rect x="44" y="132" width="35" height="16" rx="8" fill="#E1E1EA"/>
<rect x="120" y="132" width="43" height="16" rx="8" fill="#E1E1EA"/>
</svg>
