<svg width="275" height="205" viewBox="0 0 275 205" fill="none" xmlns="http://www.w3.org/2000/svg">
<path d="M20.9902 61V52.4688H23.7793C24.7051 52.4688 25.4004 52.6602 25.8652 53.043C26.334 53.4258 26.5684 53.9922 26.5684 54.7422C26.5684 55.1406 26.4551 55.4941 26.2285 55.8027C26.002 56.1074 25.6934 56.3438 25.3027 56.5117C25.7637 56.6406 26.127 56.8867 26.3926 57.25C26.6621 57.6094 26.7969 58.0391 26.7969 58.5391C26.7969 59.3047 26.5488 59.9062 26.0527 60.3438C25.5566 60.7812 24.8555 61 23.9492 61H20.9902ZM22.1152 57.0098V60.0801H23.9727C24.4961 60.0801 24.9082 59.9453 25.209 59.6758C25.5137 59.4023 25.666 59.0273 25.666 58.5508C25.666 57.5234 25.1074 57.0098 23.9902 57.0098H22.1152ZM22.1152 56.1074H23.8145C24.3066 56.1074 24.6992 55.9844 24.9922 55.7383C25.2891 55.4922 25.4375 55.1582 25.4375 54.7363C25.4375 54.2676 25.3008 53.9277 25.0273 53.7168C24.7539 53.502 24.3379 53.3945 23.7793 53.3945H22.1152V56.1074ZM32.2109 61C32.1484 60.875 32.0977 60.6523 32.0586 60.332C31.5547 60.8555 30.9531 61.1172 30.2539 61.1172C29.6289 61.1172 29.1152 60.9414 28.7129 60.5898C28.3145 60.2344 28.1152 59.7852 28.1152 59.2422C28.1152 58.582 28.3652 58.0703 28.8652 57.707C29.3691 57.3398 30.0762 57.1562 30.9863 57.1562H32.041V56.6582C32.041 56.2793 31.9277 55.9785 31.7012 55.7559C31.4746 55.5293 31.1406 55.416 30.6992 55.416C30.3125 55.416 29.9883 55.5137 29.7266 55.709C29.4648 55.9043 29.334 56.1406 29.334 56.418H28.2441C28.2441 56.1016 28.3555 55.7969 28.5781 55.5039C28.8047 55.207 29.1094 54.9727 29.4922 54.8008C29.8789 54.6289 30.3027 54.543 30.7637 54.543C31.4941 54.543 32.0664 54.7266 32.4805 55.0938C32.8945 55.457 33.1094 55.959 33.125 56.5996V59.5176C33.125 60.0996 33.1992 60.5625 33.3477 60.9062V61H32.2109ZM30.4121 60.1738C30.752 60.1738 31.0742 60.0859 31.3789 59.9102C31.6836 59.7344 31.9043 59.5059 32.041 59.2246V57.9238H31.1914C29.8633 57.9238 29.1992 58.3125 29.1992 59.0898C29.1992 59.4297 29.3125 59.6953 29.5391 59.8867C29.7656 60.0781 30.0566 60.1738 30.4121 60.1738ZM37.3672 60.2324C37.7539 60.2324 38.0918 60.1152 38.3809 59.8809C38.6699 59.6465 38.8301 59.3535 38.8613 59.002H39.8867C39.8672 59.3652 39.7422 59.7109 39.5117 60.0391C39.2812 60.3672 38.9727 60.6289 38.5859 60.8242C38.2031 61.0195 37.7969 61.1172 37.3672 61.1172C36.5039 61.1172 35.8164 60.8301 35.3047 60.2559C34.7969 59.6777 34.543 58.8887 34.543 57.8887V57.707C34.543 57.0898 34.6562 56.541 34.8828 56.0605C35.1094 55.5801 35.4336 55.207 35.8555 54.9414C36.2812 54.6758 36.7832 54.543 37.3613 54.543C38.0723 54.543 38.6621 54.7559 39.1309 55.1816C39.6035 55.6074 39.8555 56.1602 39.8867 56.8398H38.8613C38.8301 56.4297 38.6738 56.0938 38.3926 55.832C38.1152 55.5664 37.7715 55.4336 37.3613 55.4336C36.8105 55.4336 36.3828 55.6328 36.0781 56.0312C35.7773 56.4258 35.627 56.998 35.627 57.748V57.9531C35.627 58.6836 35.7773 59.2461 36.0781 59.6406C36.3789 60.0352 36.8086 60.2324 37.3672 60.2324ZM42.875 58.0645L42.1953 58.7734V61H41.1113V52H42.1953V57.4434L42.7754 56.7461L44.75 54.6602H46.0684L43.6016 57.3086L46.3555 61H45.084L42.875 58.0645ZM49.7012 61.1172C48.8418 61.1172 48.1426 60.8359 47.6035 60.2734C47.0645 59.707 46.7949 58.9512 46.7949 58.0059V57.8066C46.7949 57.1777 46.9141 56.6172 47.1523 56.125C47.3945 55.6289 47.7305 55.2422 48.1602 54.9648C48.5938 54.6836 49.0625 54.543 49.5664 54.543C50.3906 54.543 51.0312 54.8145 51.4883 55.3574C51.9453 55.9004 52.1738 56.6777 52.1738 57.6895V58.1406H47.8789C47.8945 58.7656 48.0762 59.2715 48.4238 59.6582C48.7754 60.041 49.2207 60.2324 49.7598 60.2324C50.1426 60.2324 50.4668 60.1543 50.7324 59.998C50.998 59.8418 51.2305 59.6348 51.4297 59.377L52.0918 59.8926C51.5605 60.709 50.7637 61.1172 49.7012 61.1172ZM49.5664 55.4336C49.1289 55.4336 48.7617 55.5938 48.4648 55.9141C48.168 56.2305 47.9844 56.6758 47.9141 57.25H51.0898V57.168C51.0586 56.6172 50.9102 56.1914 50.6445 55.8906C50.3789 55.5859 50.0195 55.4336 49.5664 55.4336ZM54.459 54.6602L54.4941 55.457C54.9785 54.8477 55.6113 54.543 56.3926 54.543C57.7324 54.543 58.4082 55.2988 58.4199 56.8105V61H57.3359V56.8047C57.332 56.3477 57.2266 56.0098 57.0195 55.791C56.8164 55.5723 56.498 55.4629 56.0645 55.4629C55.7129 55.4629 55.4043 55.5566 55.1387 55.7441C54.873 55.9316 54.666 56.1777 54.5176 56.4824V61H53.4336V54.6602H54.459ZM59.791 57.7773C59.791 56.8047 60.0215 56.0234 60.4824 55.4336C60.9434 54.8398 61.5469 54.543 62.293 54.543C63.0352 54.543 63.623 54.7969 64.0566 55.3047V52H65.1406V61H64.1445L64.0918 60.3203C63.6582 60.8516 63.0547 61.1172 62.2812 61.1172C61.5469 61.1172 60.9473 60.8164 60.4824 60.2148C60.0215 59.6133 59.791 58.8281 59.791 57.8594V57.7773ZM60.875 57.9004C60.875 58.6191 61.0234 59.1816 61.3203 59.5879C61.6172 59.9941 62.0273 60.1973 62.5508 60.1973C63.2383 60.1973 63.7402 59.8887 64.0566 59.2715V56.3594C63.7324 55.7617 63.2344 55.4629 62.5625 55.4629C62.0312 55.4629 61.6172 55.668 61.3203 56.0781C61.0234 56.4883 60.875 57.0957 60.875 57.9004Z" fill="black"/>
<rect x="20" y="134" width="237" height="36" rx="2" fill="black" fill-opacity="0.15"/>
<path d="M45.2852 153.493V157H43.2344V147.047H47.1172C47.8646 147.047 48.5208 147.184 49.0859 147.457C49.6556 147.73 50.0931 148.12 50.3984 148.626C50.7038 149.127 50.8564 149.699 50.8564 150.342C50.8564 151.317 50.5215 152.087 49.8516 152.652C49.1862 153.213 48.2633 153.493 47.083 153.493H45.2852ZM45.2852 151.832H47.1172C47.6595 151.832 48.0719 151.704 48.3545 151.449C48.6416 151.194 48.7852 150.829 48.7852 150.355C48.7852 149.868 48.6416 149.474 48.3545 149.173C48.0674 148.872 47.6709 148.717 47.165 148.708H45.2852V151.832ZM56.2979 151.456C56.029 151.42 55.792 151.401 55.5869 151.401C54.8395 151.401 54.3496 151.654 54.1172 152.16V157H52.1416V149.604H54.0078L54.0625 150.485C54.459 149.806 55.0081 149.467 55.71 149.467C55.9287 149.467 56.1338 149.496 56.3252 149.556L56.2979 151.456ZM56.7012 153.233C56.7012 152.5 56.8424 151.846 57.125 151.271C57.4076 150.697 57.8132 150.253 58.3418 149.938C58.875 149.624 59.4925 149.467 60.1943 149.467C61.1924 149.467 62.0059 149.772 62.6348 150.383C63.2682 150.993 63.6214 151.823 63.6943 152.871L63.708 153.377C63.708 154.512 63.3913 155.423 62.7578 156.111C62.1243 156.795 61.2744 157.137 60.208 157.137C59.1416 157.137 58.2894 156.795 57.6514 156.111C57.0179 155.428 56.7012 154.498 56.7012 153.322V153.233ZM58.6768 153.377C58.6768 154.079 58.8089 154.617 59.0732 154.99C59.3376 155.359 59.7158 155.544 60.208 155.544C60.6865 155.544 61.0602 155.362 61.3291 154.997C61.598 154.628 61.7324 154.04 61.7324 153.233C61.7324 152.545 61.598 152.012 61.3291 151.634C61.0602 151.256 60.682 151.066 60.1943 151.066C59.7113 151.066 59.3376 151.256 59.0732 151.634C58.8089 152.007 58.6768 152.589 58.6768 153.377ZM67.584 154.587L68.958 149.604H71.0225L68.5273 157H66.6406L64.1455 149.604H66.21L67.584 154.587ZM73.9824 157H72V149.604H73.9824V157ZM71.8838 147.689C71.8838 147.393 71.9818 147.149 72.1777 146.958C72.3783 146.767 72.6494 146.671 72.9912 146.671C73.3285 146.671 73.5973 146.767 73.7979 146.958C73.9984 147.149 74.0986 147.393 74.0986 147.689C74.0986 147.99 73.9961 148.236 73.791 148.428C73.5905 148.619 73.3239 148.715 72.9912 148.715C72.6585 148.715 72.3896 148.619 72.1846 148.428C71.984 148.236 71.8838 147.99 71.8838 147.689ZM79.6221 154.956C79.6221 154.715 79.5013 154.525 79.2598 154.389C79.0228 154.247 78.64 154.122 78.1113 154.013C76.3522 153.644 75.4727 152.896 75.4727 151.771C75.4727 151.114 75.7438 150.567 76.2861 150.13C76.833 149.688 77.5462 149.467 78.4258 149.467C79.3646 149.467 80.1143 149.688 80.6748 150.13C81.2399 150.572 81.5225 151.146 81.5225 151.853H79.5469C79.5469 151.57 79.4557 151.338 79.2734 151.155C79.0911 150.968 78.8063 150.875 78.4189 150.875C78.0863 150.875 77.8288 150.95 77.6465 151.101C77.4642 151.251 77.373 151.442 77.373 151.675C77.373 151.894 77.4756 152.071 77.6807 152.208C77.8903 152.34 78.2412 152.456 78.7334 152.557C79.2256 152.652 79.6403 152.762 79.9775 152.885C81.0212 153.268 81.543 153.931 81.543 154.874C81.543 155.549 81.2536 156.095 80.6748 156.515C80.096 156.929 79.3486 157.137 78.4326 157.137C77.8128 157.137 77.2614 157.027 76.7783 156.809C76.2998 156.585 75.9238 156.282 75.6504 155.899C75.377 155.512 75.2402 155.095 75.2402 154.648H77.1133C77.1315 154.999 77.2614 155.268 77.5029 155.455C77.7445 155.642 78.068 155.735 78.4736 155.735C78.8519 155.735 79.1367 155.665 79.3281 155.523C79.5241 155.378 79.6221 155.188 79.6221 154.956ZM84.9062 157H82.9238V149.604H84.9062V157ZM82.8076 147.689C82.8076 147.393 82.9056 147.149 83.1016 146.958C83.3021 146.767 83.5732 146.671 83.915 146.671C84.2523 146.671 84.5212 146.767 84.7217 146.958C84.9222 147.149 85.0225 147.393 85.0225 147.689C85.0225 147.99 84.9199 148.236 84.7148 148.428C84.5143 148.619 84.2477 148.715 83.915 148.715C83.5824 148.715 83.3135 148.619 83.1084 148.428C82.9079 148.236 82.8076 147.99 82.8076 147.689ZM86.2324 153.233C86.2324 152.5 86.3737 151.846 86.6562 151.271C86.9388 150.697 87.3444 150.253 87.873 149.938C88.4062 149.624 89.0238 149.467 89.7256 149.467C90.7236 149.467 91.5371 149.772 92.166 150.383C92.7995 150.993 93.1527 151.823 93.2256 152.871L93.2393 153.377C93.2393 154.512 92.9225 155.423 92.2891 156.111C91.6556 156.795 90.8057 157.137 89.7393 157.137C88.6729 157.137 87.8206 156.795 87.1826 156.111C86.5492 155.428 86.2324 154.498 86.2324 153.322V153.233ZM88.208 153.377C88.208 154.079 88.3402 154.617 88.6045 154.99C88.8688 155.359 89.2471 155.544 89.7393 155.544C90.2178 155.544 90.5915 155.362 90.8604 154.997C91.1292 154.628 91.2637 154.04 91.2637 153.233C91.2637 152.545 91.1292 152.012 90.8604 151.634C90.5915 151.256 90.2132 151.066 89.7256 151.066C89.2425 151.066 88.8688 151.256 88.6045 151.634C88.3402 152.007 88.208 152.589 88.208 153.377ZM96.2744 149.604L96.3359 150.458C96.8646 149.797 97.5732 149.467 98.4619 149.467C99.2458 149.467 99.8291 149.697 100.212 150.157C100.595 150.618 100.791 151.306 100.8 152.222V157H98.8242V152.27C98.8242 151.85 98.7331 151.547 98.5508 151.36C98.3685 151.169 98.0654 151.073 97.6416 151.073C97.0856 151.073 96.6686 151.31 96.3906 151.784V157H94.415V149.604H96.2744ZM109.796 154.956C109.796 154.715 109.675 154.525 109.434 154.389C109.197 154.247 108.814 154.122 108.285 154.013C106.526 153.644 105.646 152.896 105.646 151.771C105.646 151.114 105.918 150.567 106.46 150.13C107.007 149.688 107.72 149.467 108.6 149.467C109.538 149.467 110.288 149.688 110.849 150.13C111.414 150.572 111.696 151.146 111.696 151.853H109.721C109.721 151.57 109.63 151.338 109.447 151.155C109.265 150.968 108.98 150.875 108.593 150.875C108.26 150.875 108.003 150.95 107.82 151.101C107.638 151.251 107.547 151.442 107.547 151.675C107.547 151.894 107.649 152.071 107.854 152.208C108.064 152.34 108.415 152.456 108.907 152.557C109.399 152.652 109.814 152.762 110.151 152.885C111.195 153.268 111.717 153.931 111.717 154.874C111.717 155.549 111.427 156.095 110.849 156.515C110.27 156.929 109.522 157.137 108.606 157.137C107.987 157.137 107.435 157.027 106.952 156.809C106.474 156.585 106.098 156.282 105.824 155.899C105.551 155.512 105.414 155.095 105.414 154.648H107.287C107.305 154.999 107.435 155.268 107.677 155.455C107.918 155.642 108.242 155.735 108.647 155.735C109.026 155.735 109.311 155.665 109.502 155.523C109.698 155.378 109.796 155.188 109.796 154.956ZM115.36 147.785V149.604H116.625V151.053H115.36V154.744C115.36 155.018 115.413 155.214 115.518 155.332C115.622 155.451 115.823 155.51 116.119 155.51C116.338 155.51 116.532 155.494 116.7 155.462V156.959C116.313 157.077 115.914 157.137 115.504 157.137C114.118 157.137 113.412 156.437 113.385 155.038V151.053H112.305V149.604H113.385V147.785H115.36ZM122.012 157C121.921 156.822 121.854 156.601 121.813 156.337C121.335 156.87 120.713 157.137 119.947 157.137C119.223 157.137 118.621 156.927 118.143 156.508C117.669 156.089 117.432 155.56 117.432 154.922C117.432 154.138 117.721 153.536 118.3 153.117C118.883 152.698 119.724 152.486 120.822 152.481H121.731V152.058C121.731 151.716 121.643 151.442 121.465 151.237C121.292 151.032 121.016 150.93 120.638 150.93C120.305 150.93 120.043 151.009 119.852 151.169C119.665 151.328 119.571 151.547 119.571 151.825H117.596C117.596 151.397 117.728 151 117.992 150.636C118.257 150.271 118.63 149.986 119.113 149.781C119.596 149.572 120.139 149.467 120.74 149.467C121.652 149.467 122.374 149.697 122.907 150.157C123.445 150.613 123.714 151.256 123.714 152.085V155.291C123.718 155.993 123.816 156.524 124.008 156.884V157H122.012ZM120.378 155.626C120.67 155.626 120.938 155.562 121.185 155.435C121.431 155.302 121.613 155.127 121.731 154.908V153.637H120.993C120.004 153.637 119.478 153.979 119.414 154.662L119.407 154.778C119.407 155.024 119.494 155.227 119.667 155.387C119.84 155.546 120.077 155.626 120.378 155.626ZM124.944 153.247C124.944 152.112 125.213 151.199 125.751 150.506C126.293 149.813 127.022 149.467 127.938 149.467C128.75 149.467 129.381 149.745 129.832 150.301L129.914 149.604H131.705V156.754C131.705 157.401 131.557 157.964 131.261 158.442C130.969 158.921 130.557 159.285 130.023 159.536C129.49 159.787 128.866 159.912 128.15 159.912C127.608 159.912 127.079 159.803 126.564 159.584C126.049 159.37 125.66 159.092 125.396 158.75L126.271 157.547C126.763 158.098 127.36 158.374 128.062 158.374C128.586 158.374 128.993 158.233 129.285 157.95C129.577 157.672 129.723 157.276 129.723 156.761V156.364C129.267 156.879 128.668 157.137 127.925 157.137C127.036 157.137 126.316 156.79 125.765 156.098C125.218 155.4 124.944 154.478 124.944 153.329V153.247ZM126.92 153.391C126.92 154.061 127.054 154.587 127.323 154.97C127.592 155.348 127.961 155.537 128.431 155.537C129.032 155.537 129.463 155.312 129.723 154.86V151.75C129.458 151.299 129.032 151.073 128.444 151.073C127.97 151.073 127.597 151.267 127.323 151.654C127.054 152.042 126.92 152.62 126.92 153.391ZM135.314 157H133.332V149.604H135.314V157ZM133.216 147.689C133.216 147.393 133.314 147.149 133.51 146.958C133.71 146.767 133.981 146.671 134.323 146.671C134.66 146.671 134.929 146.767 135.13 146.958C135.33 147.149 135.431 147.393 135.431 147.689C135.431 147.99 135.328 148.236 135.123 148.428C134.923 148.619 134.656 148.715 134.323 148.715C133.991 148.715 133.722 148.619 133.517 148.428C133.316 148.236 133.216 147.99 133.216 147.689ZM138.767 149.604L138.828 150.458C139.357 149.797 140.065 149.467 140.954 149.467C141.738 149.467 142.321 149.697 142.704 150.157C143.087 150.618 143.283 151.306 143.292 152.222V157H141.316V152.27C141.316 151.85 141.225 151.547 141.043 151.36C140.861 151.169 140.558 151.073 140.134 151.073C139.578 151.073 139.161 151.31 138.883 151.784V157H136.907V149.604H138.767ZM144.509 153.247C144.509 152.112 144.778 151.199 145.315 150.506C145.858 149.813 146.587 149.467 147.503 149.467C148.314 149.467 148.945 149.745 149.396 150.301L149.479 149.604H151.27V156.754C151.27 157.401 151.121 157.964 150.825 158.442C150.534 158.921 150.121 159.285 149.588 159.536C149.055 159.787 148.43 159.912 147.715 159.912C147.173 159.912 146.644 159.803 146.129 159.584C145.614 159.37 145.224 159.092 144.96 158.75L145.835 157.547C146.327 158.098 146.924 158.374 147.626 158.374C148.15 158.374 148.558 158.233 148.85 157.95C149.141 157.672 149.287 157.276 149.287 156.761V156.364C148.831 156.879 148.232 157.137 147.489 157.137C146.601 157.137 145.881 156.79 145.329 156.098C144.782 155.4 144.509 154.478 144.509 153.329V153.247ZM146.484 153.391C146.484 154.061 146.619 154.587 146.888 154.97C147.157 155.348 147.526 155.537 147.995 155.537C148.597 155.537 149.027 155.312 149.287 154.86V151.75C149.023 151.299 148.597 151.073 148.009 151.073C147.535 151.073 147.161 151.267 146.888 151.654C146.619 152.042 146.484 152.62 146.484 153.391ZM159.685 157.137C158.6 157.137 157.716 156.804 157.032 156.139C156.353 155.473 156.014 154.587 156.014 153.479V153.288C156.014 152.545 156.157 151.882 156.444 151.299C156.731 150.711 157.137 150.26 157.661 149.945C158.19 149.626 158.791 149.467 159.466 149.467C160.478 149.467 161.273 149.786 161.852 150.424C162.435 151.062 162.727 151.966 162.727 153.138V153.944H158.017C158.08 154.427 158.272 154.815 158.591 155.106C158.914 155.398 159.322 155.544 159.814 155.544C160.576 155.544 161.17 155.268 161.599 154.717L162.569 155.804C162.273 156.223 161.872 156.551 161.366 156.788C160.86 157.021 160.3 157.137 159.685 157.137ZM159.459 151.066C159.067 151.066 158.748 151.199 158.502 151.463C158.26 151.727 158.105 152.105 158.037 152.598H160.785V152.44C160.776 152.003 160.658 151.666 160.43 151.429C160.202 151.187 159.878 151.066 159.459 151.066ZM165.673 149.604L165.734 150.458C166.263 149.797 166.972 149.467 167.86 149.467C168.644 149.467 169.228 149.697 169.61 150.157C169.993 150.618 170.189 151.306 170.198 152.222V157H168.223V152.27C168.223 151.85 168.132 151.547 167.949 151.36C167.767 151.169 167.464 151.073 167.04 151.073C166.484 151.073 166.067 151.31 165.789 151.784V157H163.813V149.604H165.673ZM174.471 154.587L175.845 149.604H177.909L175.414 157H173.527L171.032 149.604H173.097L174.471 154.587ZM180.869 157H178.887V149.604H180.869V157ZM178.771 147.689C178.771 147.393 178.868 147.149 179.064 146.958C179.265 146.767 179.536 146.671 179.878 146.671C180.215 146.671 180.484 146.767 180.685 146.958C180.885 147.149 180.985 147.393 180.985 147.689C180.985 147.99 180.883 148.236 180.678 148.428C180.477 148.619 180.211 148.715 179.878 148.715C179.545 148.715 179.276 148.619 179.071 148.428C178.871 148.236 178.771 147.99 178.771 147.689ZM186.659 151.456C186.39 151.42 186.153 151.401 185.948 151.401C185.201 151.401 184.711 151.654 184.479 152.16V157H182.503V149.604H184.369L184.424 150.485C184.82 149.806 185.369 149.467 186.071 149.467C186.29 149.467 186.495 149.496 186.687 149.556L186.659 151.456ZM187.062 153.233C187.062 152.5 187.204 151.846 187.486 151.271C187.769 150.697 188.174 150.253 188.703 149.938C189.236 149.624 189.854 149.467 190.556 149.467C191.554 149.467 192.367 149.772 192.996 150.383C193.63 150.993 193.983 151.823 194.056 152.871L194.069 153.377C194.069 154.512 193.753 155.423 193.119 156.111C192.486 156.795 191.636 157.137 190.569 157.137C189.503 157.137 188.651 156.795 188.013 156.111C187.379 155.428 187.062 154.498 187.062 153.322V153.233ZM189.038 153.377C189.038 154.079 189.17 154.617 189.435 154.99C189.699 155.359 190.077 155.544 190.569 155.544C191.048 155.544 191.422 155.362 191.69 154.997C191.959 154.628 192.094 154.04 192.094 153.233C192.094 152.545 191.959 152.012 191.69 151.634C191.422 151.256 191.043 151.066 190.556 151.066C190.073 151.066 189.699 151.256 189.435 151.634C189.17 152.007 189.038 152.589 189.038 153.377ZM197.104 149.604L197.166 150.458C197.695 149.797 198.403 149.467 199.292 149.467C200.076 149.467 200.659 149.697 201.042 150.157C201.425 150.618 201.621 151.306 201.63 152.222V157H199.654V152.27C199.654 151.85 199.563 151.547 199.381 151.36C199.199 151.169 198.896 151.073 198.472 151.073C197.916 151.073 197.499 151.31 197.221 151.784V157H195.245V149.604H197.104ZM204.986 149.604L205.048 150.431C205.572 149.788 206.281 149.467 207.174 149.467C208.126 149.467 208.78 149.843 209.136 150.595C209.655 149.843 210.396 149.467 211.357 149.467C212.16 149.467 212.757 149.701 213.148 150.171C213.54 150.636 213.736 151.338 213.736 152.276V157H211.754V152.283C211.754 151.864 211.672 151.559 211.508 151.367C211.344 151.171 211.054 151.073 210.64 151.073C210.047 151.073 209.637 151.356 209.409 151.921L209.416 157H207.44V152.29C207.44 151.862 207.356 151.552 207.188 151.36C207.019 151.169 206.732 151.073 206.326 151.073C205.766 151.073 205.36 151.306 205.109 151.771V157H203.134V149.604H204.986ZM218.665 157.137C217.58 157.137 216.696 156.804 216.013 156.139C215.334 155.473 214.994 154.587 214.994 153.479V153.288C214.994 152.545 215.138 151.882 215.425 151.299C215.712 150.711 216.118 150.26 216.642 149.945C217.17 149.626 217.772 149.467 218.446 149.467C219.458 149.467 220.253 149.786 220.832 150.424C221.415 151.062 221.707 151.966 221.707 153.138V153.944H216.997C217.061 154.427 217.252 154.815 217.571 155.106C217.895 155.398 218.303 155.544 218.795 155.544C219.556 155.544 220.151 155.268 220.579 154.717L221.55 155.804C221.254 156.223 220.853 156.551 220.347 156.788C219.841 157.021 219.28 157.137 218.665 157.137ZM218.439 151.066C218.048 151.066 217.729 151.199 217.482 151.463C217.241 151.727 217.086 152.105 217.018 152.598H219.766V152.44C219.757 152.003 219.638 151.666 219.41 151.429C219.182 151.187 218.859 151.066 218.439 151.066ZM224.653 149.604L224.715 150.458C225.243 149.797 225.952 149.467 226.841 149.467C227.625 149.467 228.208 149.697 228.591 150.157C228.974 150.618 229.17 151.306 229.179 152.222V157H227.203V152.27C227.203 151.85 227.112 151.547 226.93 151.36C226.747 151.169 226.444 151.073 226.021 151.073C225.465 151.073 225.048 151.31 224.77 151.784V157H222.794V149.604H224.653ZM233.048 147.785V149.604H234.312V151.053H233.048V154.744C233.048 155.018 233.1 155.214 233.205 155.332C233.31 155.451 233.51 155.51 233.807 155.51C234.025 155.51 234.219 155.494 234.388 155.462V156.959C234 157.077 233.602 157.137 233.191 157.137C231.806 157.137 231.1 156.437 231.072 155.038V151.053H229.992V149.604H231.072V147.785H233.048Z" fill="black"/>
<rect x="80.5" y="41.5" width="176" height="35" rx="1.5" stroke="black"/>
<path d="M120.579 64V57.5811H119.41V56.6035H120.579V55.8447C120.579 55.0518 120.791 54.4388 121.215 54.0059C121.639 53.5729 122.238 53.3564 123.013 53.3564C123.304 53.3564 123.594 53.3952 123.881 53.4727L123.812 54.498C123.598 54.457 123.37 54.4365 123.129 54.4365C122.719 54.4365 122.402 54.5573 122.179 54.7988C121.955 55.0358 121.844 55.3776 121.844 55.8242V56.6035H123.423V57.5811H121.844V64H120.579ZM127.729 64.1367C126.727 64.1367 125.911 63.8086 125.282 63.1523C124.653 62.4915 124.339 61.6097 124.339 60.5068V60.2744C124.339 59.5407 124.478 58.8867 124.756 58.3125C125.038 57.7337 125.43 57.2826 125.932 56.959C126.438 56.6309 126.984 56.4668 127.572 56.4668C128.534 56.4668 129.281 56.7835 129.814 57.417C130.348 58.0505 130.614 58.9574 130.614 60.1377V60.6641H125.604C125.622 61.3932 125.834 61.9834 126.239 62.4346C126.649 62.8812 127.169 63.1045 127.798 63.1045C128.244 63.1045 128.623 63.0133 128.933 62.8311C129.243 62.6488 129.514 62.4072 129.746 62.1064L130.519 62.708C129.899 63.6605 128.969 64.1367 127.729 64.1367ZM127.572 57.5059C127.062 57.5059 126.633 57.6927 126.287 58.0664C125.941 58.4355 125.727 58.9551 125.645 59.625H129.35V59.5293C129.313 58.8867 129.14 58.39 128.83 58.0391C128.52 57.6836 128.101 57.5059 127.572 57.5059ZM136.65 64C136.577 63.8542 136.518 63.5944 136.473 63.2207C135.885 63.8314 135.183 64.1367 134.367 64.1367C133.638 64.1367 133.039 63.9316 132.569 63.5215C132.104 63.1068 131.872 62.5827 131.872 61.9492C131.872 61.179 132.164 60.582 132.747 60.1582C133.335 59.7298 134.16 59.5156 135.222 59.5156H136.452V58.9346C136.452 58.4925 136.32 58.1416 136.056 57.8818C135.791 57.6175 135.402 57.4854 134.887 57.4854C134.436 57.4854 134.057 57.5993 133.752 57.8271C133.447 58.055 133.294 58.3307 133.294 58.6543H132.022C132.022 58.2852 132.152 57.9297 132.412 57.5879C132.676 57.2415 133.032 56.9681 133.479 56.7676C133.93 56.5671 134.424 56.4668 134.962 56.4668C135.814 56.4668 136.482 56.681 136.965 57.1094C137.448 57.5332 137.699 58.1188 137.717 58.8662V62.2705C137.717 62.9495 137.803 63.4896 137.977 63.8906V64H136.65ZM134.552 63.0361C134.948 63.0361 135.324 62.9336 135.68 62.7285C136.035 62.5234 136.293 62.2568 136.452 61.9287V60.4111H135.461C133.911 60.4111 133.137 60.8646 133.137 61.7715C133.137 62.168 133.269 62.4779 133.533 62.7012C133.798 62.9245 134.137 63.0361 134.552 63.0361ZM141.415 54.8125V56.6035H142.796V57.5811H141.415V62.168C141.415 62.4642 141.477 62.6875 141.6 62.8379C141.723 62.9837 141.932 63.0566 142.229 63.0566C142.374 63.0566 142.575 63.0293 142.83 62.9746V64C142.497 64.0911 142.174 64.1367 141.859 64.1367C141.294 64.1367 140.868 63.9658 140.581 63.624C140.294 63.2822 140.15 62.7969 140.15 62.168V57.5811H138.804V56.6035H140.15V54.8125H141.415ZM148.846 63.2686C148.354 63.8473 147.631 64.1367 146.679 64.1367C145.89 64.1367 145.289 63.9089 144.874 63.4531C144.464 62.9928 144.257 62.3138 144.252 61.416V56.6035H145.517V61.3818C145.517 62.5029 145.972 63.0635 146.884 63.0635C147.85 63.0635 148.493 62.7035 148.812 61.9834V56.6035H150.076V64H148.873L148.846 63.2686ZM155.579 57.7383C155.388 57.7064 155.18 57.6904 154.957 57.6904C154.128 57.6904 153.565 58.0436 153.269 58.75V64H152.004V56.6035H153.234L153.255 57.458C153.67 56.7972 154.257 56.4668 155.019 56.4668C155.265 56.4668 155.451 56.4987 155.579 56.5625V57.7383ZM159.681 64.1367C158.678 64.1367 157.862 63.8086 157.233 63.1523C156.604 62.4915 156.29 61.6097 156.29 60.5068V60.2744C156.29 59.5407 156.429 58.8867 156.707 58.3125C156.99 57.7337 157.382 57.2826 157.883 56.959C158.389 56.6309 158.936 56.4668 159.523 56.4668C160.485 56.4668 161.232 56.7835 161.766 57.417C162.299 58.0505 162.565 58.9574 162.565 60.1377V60.6641H157.555C157.573 61.3932 157.785 61.9834 158.19 62.4346C158.601 62.8812 159.12 63.1045 159.749 63.1045C160.196 63.1045 160.574 63.0133 160.884 62.8311C161.194 62.6488 161.465 62.4072 161.697 62.1064L162.47 62.708C161.85 63.6605 160.92 64.1367 159.681 64.1367ZM159.523 57.5059C159.013 57.5059 158.585 57.6927 158.238 58.0664C157.892 58.4355 157.678 58.9551 157.596 59.625H161.301V59.5293C161.264 58.8867 161.091 58.39 160.781 58.0391C160.471 57.6836 160.052 57.5059 159.523 57.5059ZM164.288 64.8545H163.201L167.357 54.0469H168.438L164.288 64.8545ZM171.521 54.8125V56.6035H172.901V57.5811H171.521V62.168C171.521 62.4642 171.582 62.6875 171.705 62.8379C171.828 62.9837 172.038 63.0566 172.334 63.0566C172.48 63.0566 172.68 63.0293 172.936 62.9746V64C172.603 64.0911 172.279 64.1367 171.965 64.1367C171.4 64.1367 170.974 63.9658 170.687 63.624C170.399 63.2822 170.256 62.7969 170.256 62.168V57.5811H168.909V56.6035H170.256V54.8125H171.521ZM175.759 64H174.494V56.6035H175.759V64ZM174.392 54.6416C174.392 54.4365 174.453 54.2633 174.576 54.1221C174.704 53.9808 174.891 53.9102 175.137 53.9102C175.383 53.9102 175.57 53.9808 175.697 54.1221C175.825 54.2633 175.889 54.4365 175.889 54.6416C175.889 54.8467 175.825 55.0176 175.697 55.1543C175.57 55.291 175.383 55.3594 175.137 55.3594C174.891 55.3594 174.704 55.291 174.576 55.1543C174.453 55.0176 174.392 54.8467 174.392 54.6416ZM180.756 63.1045C181.207 63.1045 181.601 62.9678 181.938 62.6943C182.276 62.4209 182.463 62.0791 182.499 61.6689H183.695C183.673 62.0928 183.527 62.4961 183.258 62.8789C182.989 63.2617 182.629 63.5671 182.178 63.7949C181.731 64.0228 181.257 64.1367 180.756 64.1367C179.749 64.1367 178.947 63.8018 178.35 63.1318C177.757 62.4574 177.461 61.5368 177.461 60.3701V60.1582C177.461 59.4382 177.593 58.7979 177.857 58.2373C178.122 57.6768 178.5 57.2415 178.992 56.9316C179.489 56.6217 180.075 56.4668 180.749 56.4668C181.578 56.4668 182.267 56.7152 182.813 57.2119C183.365 57.7087 183.659 58.3535 183.695 59.1465H182.499C182.463 58.668 182.28 58.276 181.952 57.9707C181.629 57.6608 181.228 57.5059 180.749 57.5059C180.106 57.5059 179.607 57.7383 179.252 58.2031C178.901 58.6634 178.726 59.3311 178.726 60.2061V60.4453C178.726 61.2975 178.901 61.9538 179.252 62.4141C179.603 62.8743 180.104 63.1045 180.756 63.1045ZM187.182 60.5752L186.389 61.4023V64H185.124V53.5H186.389V59.8506L187.065 59.0371L189.369 56.6035H190.907L188.029 59.6934L191.242 64H189.759L187.182 60.5752ZM195.146 64.1367C194.143 64.1367 193.327 63.8086 192.698 63.1523C192.069 62.4915 191.755 61.6097 191.755 60.5068V60.2744C191.755 59.5407 191.894 58.8867 192.172 58.3125C192.454 57.7337 192.846 57.2826 193.348 56.959C193.854 56.6309 194.4 56.4668 194.988 56.4668C195.95 56.4668 196.697 56.7835 197.23 57.417C197.764 58.0505 198.03 58.9574 198.03 60.1377V60.6641H193.02C193.038 61.3932 193.25 61.9834 193.655 62.4346C194.065 62.8812 194.585 63.1045 195.214 63.1045C195.66 63.1045 196.039 63.0133 196.349 62.8311C196.659 62.6488 196.93 62.4072 197.162 62.1064L197.935 62.708C197.315 63.6605 196.385 64.1367 195.146 64.1367ZM194.988 57.5059C194.478 57.5059 194.049 57.6927 193.703 58.0664C193.357 58.4355 193.143 58.9551 193.061 59.625H196.766V59.5293C196.729 58.8867 196.556 58.39 196.246 58.0391C195.936 57.6836 195.517 57.5059 194.988 57.5059ZM201.216 54.8125V56.6035H202.597V57.5811H201.216V62.168C201.216 62.4642 201.277 62.6875 201.4 62.8379C201.523 62.9837 201.733 63.0566 202.029 63.0566C202.175 63.0566 202.376 63.0293 202.631 62.9746V64C202.298 64.0911 201.975 64.1367 201.66 64.1367C201.095 64.1367 200.669 63.9658 200.382 63.624C200.095 63.2822 199.951 62.7969 199.951 62.168V57.5811H198.604V56.6035H199.951V54.8125H201.216ZM206.712 60.2881H203.376V59.2559H206.712V60.2881ZM212.666 59.625C212.402 59.9395 212.085 60.1924 211.716 60.3838C211.351 60.5752 210.95 60.6709 210.513 60.6709C209.938 60.6709 209.437 60.5296 209.009 60.2471C208.585 59.9645 208.257 59.568 208.024 59.0576C207.792 58.5426 207.676 57.9753 207.676 57.3555C207.676 56.6901 207.801 56.0908 208.052 55.5576C208.307 55.0244 208.667 54.6165 209.132 54.334C209.597 54.0514 210.139 53.9102 210.759 53.9102C211.743 53.9102 212.518 54.2793 213.083 55.0176C213.653 55.7513 213.938 56.7539 213.938 58.0254V58.3945C213.938 60.3314 213.555 61.7464 212.789 62.6396C212.023 63.5283 210.868 63.984 209.323 64.0068H209.077V62.9404H209.344C210.387 62.9222 211.189 62.651 211.75 62.127C212.311 61.5983 212.616 60.7643 212.666 59.625ZM210.718 59.625C211.142 59.625 211.531 59.4951 211.887 59.2354C212.247 58.9756 212.509 58.6543 212.673 58.2715V57.7656C212.673 56.9362 212.493 56.2617 212.133 55.7422C211.773 55.2227 211.317 54.9629 210.766 54.9629C210.21 54.9629 209.763 55.1771 209.426 55.6055C209.089 56.0293 208.92 56.5898 208.92 57.2871C208.92 57.9661 209.082 58.5267 209.405 58.9688C209.733 59.4062 210.171 59.625 210.718 59.625ZM222.106 54.7578L217.984 64H216.658L220.767 55.0859H215.38V54.0469H222.106V54.7578ZM228.881 60.6572H230.262V61.6895H228.881V64H227.609V61.6895H223.077V60.9443L227.534 54.0469H228.881V60.6572ZM224.513 60.6572H227.609V55.7764L227.459 56.0498L224.513 60.6572Z" fill="black"/>
<path d="M25.6953 103.232H22.1152V107H20.9902V98.4688H26.2754V99.3945H22.1152V102.312H25.6953V103.232ZM30.3652 101.633C30.2012 101.605 30.0234 101.592 29.832 101.592C29.1211 101.592 28.6387 101.895 28.3848 102.5V107H27.3008V100.66H28.3555L28.373 101.393C28.7285 100.826 29.2324 100.543 29.8848 100.543C30.0957 100.543 30.2559 100.57 30.3652 100.625V101.633ZM30.9629 103.771C30.9629 103.15 31.084 102.592 31.3262 102.096C31.5723 101.6 31.9121 101.217 32.3457 100.947C32.7832 100.678 33.2812 100.543 33.8398 100.543C34.7031 100.543 35.4004 100.842 35.9316 101.439C36.4668 102.037 36.7344 102.832 36.7344 103.824V103.9C36.7344 104.518 36.6152 105.072 36.377 105.564C36.1426 106.053 35.8047 106.434 35.3633 106.707C34.9258 106.98 34.4219 107.117 33.8516 107.117C32.9922 107.117 32.2949 106.818 31.7598 106.221C31.2285 105.623 30.9629 104.832 30.9629 103.848V103.771ZM32.0527 103.9C32.0527 104.604 32.2148 105.168 32.5391 105.594C32.8672 106.02 33.3047 106.232 33.8516 106.232C34.4023 106.232 34.8398 106.018 35.1641 105.588C35.4883 105.154 35.6504 104.549 35.6504 103.771C35.6504 103.076 35.4844 102.514 35.1523 102.084C34.8242 101.65 34.3867 101.434 33.8398 101.434C33.3047 101.434 32.873 101.646 32.5449 102.072C32.2168 102.498 32.0527 103.107 32.0527 103.9ZM39.1191 100.66L39.1543 101.457C39.6387 100.848 40.2715 100.543 41.0527 100.543C42.3926 100.543 43.0684 101.299 43.0801 102.811V107H41.9961V102.805C41.9922 102.348 41.8867 102.01 41.6797 101.791C41.4766 101.572 41.1582 101.463 40.7246 101.463C40.373 101.463 40.0645 101.557 39.7988 101.744C39.5332 101.932 39.3262 102.178 39.1777 102.482V107H38.0938V100.66H39.1191ZM46.1855 99.125V100.66H47.3691V101.498H46.1855V105.43C46.1855 105.684 46.2383 105.875 46.3438 106.004C46.4492 106.129 46.6289 106.191 46.8828 106.191C47.0078 106.191 47.1797 106.168 47.3984 106.121V107C47.1133 107.078 46.8359 107.117 46.5664 107.117C46.082 107.117 45.7168 106.971 45.4707 106.678C45.2246 106.385 45.1016 105.969 45.1016 105.43V101.498H43.9473V100.66H45.1016V99.125H46.1855ZM51.2715 107.117C50.4121 107.117 49.7129 106.836 49.1738 106.273C48.6348 105.707 48.3652 104.951 48.3652 104.006V103.807C48.3652 103.178 48.4844 102.617 48.7227 102.125C48.9648 101.629 49.3008 101.242 49.7305 100.965C50.1641 100.684 50.6328 100.543 51.1367 100.543C51.9609 100.543 52.6016 100.814 53.0586 101.357C53.5156 101.9 53.7441 102.678 53.7441 103.689V104.141H49.4492C49.4648 104.766 49.6465 105.271 49.9941 105.658C50.3457 106.041 50.791 106.232 51.3301 106.232C51.7129 106.232 52.0371 106.154 52.3027 105.998C52.5684 105.842 52.8008 105.635 53 105.377L53.6621 105.893C53.1309 106.709 52.334 107.117 51.2715 107.117ZM51.1367 101.434C50.6992 101.434 50.332 101.594 50.0352 101.914C49.7383 102.23 49.5547 102.676 49.4844 103.25H52.6602V103.168C52.6289 102.617 52.4805 102.191 52.2148 101.891C51.9492 101.586 51.5898 101.434 51.1367 101.434ZM56.0293 100.66L56.0645 101.457C56.5488 100.848 57.1816 100.543 57.9629 100.543C59.3027 100.543 59.9785 101.299 59.9902 102.811V107H58.9062V102.805C58.9023 102.348 58.7969 102.01 58.5898 101.791C58.3867 101.572 58.0684 101.463 57.6348 101.463C57.2832 101.463 56.9746 101.557 56.709 101.744C56.4434 101.932 56.2363 102.178 56.0879 102.482V107H55.0039V100.66H56.0293ZM61.3613 103.777C61.3613 102.805 61.5918 102.023 62.0527 101.434C62.5137 100.84 63.1172 100.543 63.8633 100.543C64.6055 100.543 65.1934 100.797 65.627 101.305V98H66.7109V107H65.7148L65.6621 106.32C65.2285 106.852 64.625 107.117 63.8516 107.117C63.1172 107.117 62.5176 106.816 62.0527 106.215C61.5918 105.613 61.3613 104.828 61.3613 103.859V103.777ZM62.4453 103.9C62.4453 104.619 62.5938 105.182 62.8906 105.588C63.1875 105.994 63.5977 106.197 64.1211 106.197C64.8086 106.197 65.3105 105.889 65.627 105.271V102.359C65.3027 101.762 64.8047 101.463 64.1328 101.463C63.6016 101.463 63.1875 101.668 62.8906 102.078C62.5938 102.488 62.4453 103.096 62.4453 103.9Z" fill="black"/>
<path d="M94 51V63" stroke="black" stroke-width="2" stroke-linecap="round" stroke-linejoin="round"/>
<path d="M106 57C107.657 57 109 55.6569 109 54C109 52.3431 107.657 51 106 51C104.343 51 103 52.3431 103 54C103 55.6569 104.343 57 106 57Z" stroke="black" stroke-width="2" stroke-linecap="round" stroke-linejoin="round"/>
<path d="M94 69C95.6569 69 97 67.6569 97 66C97 64.3431 95.6569 63 94 63C92.3431 63 91 64.3431 91 66C91 67.6569 92.3431 69 94 69Z" stroke="black" stroke-width="2" stroke-linecap="round" stroke-linejoin="round"/>
<path d="M106 57C106 59.3869 105.052 61.6761 103.364 63.364C101.676 65.0518 99.3869 66 97 66" stroke="black" stroke-width="2" stroke-linecap="round" stroke-linejoin="round"/>
<rect x="80.5" y="85.5" width="176" height="35" rx="1.5" stroke="black"/>
<path d="M120.579 108V101.581H119.41V100.604H120.579V99.8447C120.579 99.0518 120.791 98.4388 121.215 98.0059C121.639 97.5729 122.238 97.3564 123.013 97.3564C123.304 97.3564 123.594 97.3952 123.881 97.4727L123.812 98.498C123.598 98.457 123.37 98.4365 123.129 98.4365C122.719 98.4365 122.402 98.5573 122.179 98.7988C121.955 99.0358 121.844 99.3776 121.844 99.8242V100.604H123.423V101.581H121.844V108H120.579ZM127.729 108.137C126.727 108.137 125.911 107.809 125.282 107.152C124.653 106.492 124.339 105.61 124.339 104.507V104.274C124.339 103.541 124.478 102.887 124.756 102.312C125.038 101.734 125.43 101.283 125.932 100.959C126.438 100.631 126.984 100.467 127.572 100.467C128.534 100.467 129.281 100.784 129.814 101.417C130.348 102.05 130.614 102.957 130.614 104.138V104.664H125.604C125.622 105.393 125.834 105.983 126.239 106.435C126.649 106.881 127.169 107.104 127.798 107.104C128.244 107.104 128.623 107.013 128.933 106.831C129.243 106.649 129.514 106.407 129.746 106.106L130.519 106.708C129.899 107.66 128.969 108.137 127.729 108.137ZM127.572 101.506C127.062 101.506 126.633 101.693 126.287 102.066C125.941 102.436 125.727 102.955 125.645 103.625H129.35V103.529C129.313 102.887 129.14 102.39 128.83 102.039C128.52 101.684 128.101 101.506 127.572 101.506ZM136.65 108C136.577 107.854 136.518 107.594 136.473 107.221C135.885 107.831 135.183 108.137 134.367 108.137C133.638 108.137 133.039 107.932 132.569 107.521C132.104 107.107 131.872 106.583 131.872 105.949C131.872 105.179 132.164 104.582 132.747 104.158C133.335 103.73 134.16 103.516 135.222 103.516H136.452V102.935C136.452 102.493 136.32 102.142 136.056 101.882C135.791 101.618 135.402 101.485 134.887 101.485C134.436 101.485 134.057 101.599 133.752 101.827C133.447 102.055 133.294 102.331 133.294 102.654H132.022C132.022 102.285 132.152 101.93 132.412 101.588C132.676 101.242 133.032 100.968 133.479 100.768C133.93 100.567 134.424 100.467 134.962 100.467C135.814 100.467 136.482 100.681 136.965 101.109C137.448 101.533 137.699 102.119 137.717 102.866V106.271C137.717 106.95 137.803 107.49 137.977 107.891V108H136.65ZM134.552 107.036C134.948 107.036 135.324 106.934 135.68 106.729C136.035 106.523 136.293 106.257 136.452 105.929V104.411H135.461C133.911 104.411 133.137 104.865 133.137 105.771C133.137 106.168 133.269 106.478 133.533 106.701C133.798 106.924 134.137 107.036 134.552 107.036ZM141.415 98.8125V100.604H142.796V101.581H141.415V106.168C141.415 106.464 141.477 106.688 141.6 106.838C141.723 106.984 141.932 107.057 142.229 107.057C142.374 107.057 142.575 107.029 142.83 106.975V108C142.497 108.091 142.174 108.137 141.859 108.137C141.294 108.137 140.868 107.966 140.581 107.624C140.294 107.282 140.15 106.797 140.15 106.168V101.581H138.804V100.604H140.15V98.8125H141.415ZM148.846 107.269C148.354 107.847 147.631 108.137 146.679 108.137C145.89 108.137 145.289 107.909 144.874 107.453C144.464 106.993 144.257 106.314 144.252 105.416V100.604H145.517V105.382C145.517 106.503 145.972 107.063 146.884 107.063C147.85 107.063 148.493 106.703 148.812 105.983V100.604H150.076V108H148.873L148.846 107.269ZM155.579 101.738C155.388 101.706 155.18 101.69 154.957 101.69C154.128 101.69 153.565 102.044 153.269 102.75V108H152.004V100.604H153.234L153.255 101.458C153.67 100.797 154.257 100.467 155.019 100.467C155.265 100.467 155.451 100.499 155.579 100.562V101.738ZM159.681 108.137C158.678 108.137 157.862 107.809 157.233 107.152C156.604 106.492 156.29 105.61 156.29 104.507V104.274C156.29 103.541 156.429 102.887 156.707 102.312C156.99 101.734 157.382 101.283 157.883 100.959C158.389 100.631 158.936 100.467 159.523 100.467C160.485 100.467 161.232 100.784 161.766 101.417C162.299 102.05 162.565 102.957 162.565 104.138V104.664H157.555C157.573 105.393 157.785 105.983 158.19 106.435C158.601 106.881 159.12 107.104 159.749 107.104C160.196 107.104 160.574 107.013 160.884 106.831C161.194 106.649 161.465 106.407 161.697 106.106L162.47 106.708C161.85 107.66 160.92 108.137 159.681 108.137ZM159.523 101.506C159.013 101.506 158.585 101.693 158.238 102.066C157.892 102.436 157.678 102.955 157.596 103.625H161.301V103.529C161.264 102.887 161.091 102.39 160.781 102.039C160.471 101.684 160.052 101.506 159.523 101.506ZM164.288 108.854H163.201L167.357 98.0469H168.438L164.288 108.854ZM171.521 98.8125V100.604H172.901V101.581H171.521V106.168C171.521 106.464 171.582 106.688 171.705 106.838C171.828 106.984 172.038 107.057 172.334 107.057C172.48 107.057 172.68 107.029 172.936 106.975V108C172.603 108.091 172.279 108.137 171.965 108.137C171.4 108.137 170.974 107.966 170.687 107.624C170.399 107.282 170.256 106.797 170.256 106.168V101.581H168.909V100.604H170.256V98.8125H171.521ZM175.759 108H174.494V100.604H175.759V108ZM174.392 98.6416C174.392 98.4365 174.453 98.2633 174.576 98.1221C174.704 97.9808 174.891 97.9102 175.137 97.9102C175.383 97.9102 175.57 97.9808 175.697 98.1221C175.825 98.2633 175.889 98.4365 175.889 98.6416C175.889 98.8467 175.825 99.0176 175.697 99.1543C175.57 99.291 175.383 99.3594 175.137 99.3594C174.891 99.3594 174.704 99.291 174.576 99.1543C174.453 99.0176 174.392 98.8467 174.392 98.6416ZM180.756 107.104C181.207 107.104 181.601 106.968 181.938 106.694C182.276 106.421 182.463 106.079 182.499 105.669H183.695C183.673 106.093 183.527 106.496 183.258 106.879C182.989 107.262 182.629 107.567 182.178 107.795C181.731 108.023 181.257 108.137 180.756 108.137C179.749 108.137 178.947 107.802 178.35 107.132C177.757 106.457 177.461 105.537 177.461 104.37V104.158C177.461 103.438 177.593 102.798 177.857 102.237C178.122 101.677 178.5 101.242 178.992 100.932C179.489 100.622 180.075 100.467 180.749 100.467C181.578 100.467 182.267 100.715 182.813 101.212C183.365 101.709 183.659 102.354 183.695 103.146H182.499C182.463 102.668 182.28 102.276 181.952 101.971C181.629 101.661 181.228 101.506 180.749 101.506C180.106 101.506 179.607 101.738 179.252 102.203C178.901 102.663 178.726 103.331 178.726 104.206V104.445C178.726 105.298 178.901 105.954 179.252 106.414C179.603 106.874 180.104 107.104 180.756 107.104ZM187.182 104.575L186.389 105.402V108H185.124V97.5H186.389V103.851L187.065 103.037L189.369 100.604H190.907L188.029 103.693L191.242 108H189.759L187.182 104.575ZM195.146 108.137C194.143 108.137 193.327 107.809 192.698 107.152C192.069 106.492 191.755 105.61 191.755 104.507V104.274C191.755 103.541 191.894 102.887 192.172 102.312C192.454 101.734 192.846 101.283 193.348 100.959C193.854 100.631 194.4 100.467 194.988 100.467C195.95 100.467 196.697 100.784 197.23 101.417C197.764 102.05 198.03 102.957 198.03 104.138V104.664H193.02C193.038 105.393 193.25 105.983 193.655 106.435C194.065 106.881 194.585 107.104 195.214 107.104C195.66 107.104 196.039 107.013 196.349 106.831C196.659 106.649 196.93 106.407 197.162 106.106L197.935 106.708C197.315 107.66 196.385 108.137 195.146 108.137ZM194.988 101.506C194.478 101.506 194.049 101.693 193.703 102.066C193.357 102.436 193.143 102.955 193.061 103.625H196.766V103.529C196.729 102.887 196.556 102.39 196.246 102.039C195.936 101.684 195.517 101.506 194.988 101.506ZM201.216 98.8125V100.604H202.597V101.581H201.216V106.168C201.216 106.464 201.277 106.688 201.4 106.838C201.523 106.984 201.733 107.057 202.029 107.057C202.175 107.057 202.376 107.029 202.631 106.975V108C202.298 108.091 201.975 108.137 201.66 108.137C201.095 108.137 200.669 107.966 200.382 107.624C200.095 107.282 199.951 106.797 199.951 106.168V101.581H198.604V100.604H199.951V98.8125H201.216ZM206.712 104.288H203.376V103.256H206.712V104.288ZM212.666 103.625C212.402 103.939 212.085 104.192 211.716 104.384C211.351 104.575 210.95 104.671 210.513 104.671C209.938 104.671 209.437 104.53 209.009 104.247C208.585 103.965 208.257 103.568 208.024 103.058C207.792 102.543 207.676 101.975 207.676 101.355C207.676 100.69 207.801 100.091 208.052 99.5576C208.307 99.0244 208.667 98.6165 209.132 98.334C209.597 98.0514 210.139 97.9102 210.759 97.9102C211.743 97.9102 212.518 98.2793 213.083 99.0176C213.653 99.7513 213.938 100.754 213.938 102.025V102.395C213.938 104.331 213.555 105.746 212.789 106.64C212.023 107.528 210.868 107.984 209.323 108.007H209.077V106.94H209.344C210.387 106.922 211.189 106.651 211.75 106.127C212.311 105.598 212.616 104.764 212.666 103.625ZM210.718 103.625C211.142 103.625 211.531 103.495 211.887 103.235C212.247 102.976 212.509 102.654 212.673 102.271V101.766C212.673 100.936 212.493 100.262 212.133 99.7422C211.773 99.2227 211.317 98.9629 210.766 98.9629C210.21 98.9629 209.763 99.1771 209.426 99.6055C209.089 100.029 208.92 100.59 208.92 101.287C208.92 101.966 209.082 102.527 209.405 102.969C209.733 103.406 210.171 103.625 210.718 103.625ZM222.106 98.7578L217.984 108H216.658L220.767 99.0859H215.38V98.0469H222.106V98.7578ZM228.881 104.657H230.262V105.689H228.881V108H227.609V105.689H223.077V104.944L227.534 98.0469H228.881V104.657ZM224.513 104.657H227.609V99.7764L227.459 100.05L224.513 104.657Z" fill="black"/>
<path d="M94 95V107" stroke="black" stroke-width="2" stroke-linecap="round" stroke-linejoin="round"/>
<path d="M106 101C107.657 101 109 99.6569 109 98C109 96.3431 107.657 95 106 95C104.343 95 103 96.3431 103 98C103 99.6569 104.343 101 106 101Z" stroke="black" stroke-width="2" stroke-linecap="round" stroke-linejoin="round"/>
<path d="M94 113C95.6569 113 97 111.657 97 110C97 108.343 95.6569 107 94 107C92.3431 107 91 108.343 91 110C91 111.657 92.3431 113 94 113Z" stroke="black" stroke-width="2" stroke-linecap="round" stroke-linejoin="round"/>
<path d="M106 101C106 103.387 105.052 105.676 103.364 107.364C101.676 109.052 99.3869 110 97 110" stroke="black" stroke-width="2" stroke-linecap="round" stroke-linejoin="round"/>
</svg>
