<svg width="275" height="205" viewBox="0 0 275 205" fill="none" xmlns="http://www.w3.org/2000/svg">
<path d="M26.6445 51.6045H22.4678V56H21.1553V46.0469H27.3213V47.127H22.4678V50.5312H26.6445V51.6045ZM31.6143 56.1367C30.6117 56.1367 29.7959 55.8086 29.167 55.1523C28.5381 54.4915 28.2236 53.6097 28.2236 52.5068V52.2744C28.2236 51.5407 28.3626 50.8867 28.6406 50.3125C28.9232 49.7337 29.3151 49.2826 29.8164 48.959C30.3223 48.6309 30.8691 48.4668 31.457 48.4668C32.4186 48.4668 33.166 48.7835 33.6992 49.417C34.2324 50.0505 34.499 50.9574 34.499 52.1377V52.6641H29.4883C29.5065 53.3932 29.7184 53.9834 30.124 54.4346C30.5342 54.8812 31.0537 55.1045 31.6826 55.1045C32.1292 55.1045 32.5075 55.0133 32.8174 54.8311C33.1273 54.6488 33.3984 54.4072 33.6309 54.1064L34.4033 54.708C33.7835 55.6605 32.8538 56.1367 31.6143 56.1367ZM31.457 49.5059C30.9466 49.5059 30.5182 49.6927 30.1719 50.0664C29.8255 50.4355 29.6113 50.9551 29.5293 51.625H33.2344V51.5293C33.1979 50.8867 33.0247 50.39 32.7148 50.0391C32.4049 49.6836 31.9857 49.5059 31.457 49.5059ZM40.5352 56C40.4622 55.8542 40.403 55.5944 40.3574 55.2207C39.7695 55.8314 39.0677 56.1367 38.252 56.1367C37.5228 56.1367 36.9235 55.9316 36.4541 55.5215C35.9893 55.1068 35.7568 54.5827 35.7568 53.9492C35.7568 53.179 36.0485 52.582 36.6318 52.1582C37.2197 51.7298 38.0446 51.5156 39.1064 51.5156H40.3369V50.9346C40.3369 50.4925 40.2048 50.1416 39.9404 49.8818C39.6761 49.6175 39.2865 49.4854 38.7715 49.4854C38.3203 49.4854 37.9421 49.5993 37.6367 49.8271C37.3314 50.055 37.1787 50.3307 37.1787 50.6543H35.9072C35.9072 50.2852 36.0371 49.9297 36.2969 49.5879C36.5612 49.2415 36.9167 48.9681 37.3633 48.7676C37.8145 48.5671 38.3089 48.4668 38.8467 48.4668C39.6989 48.4668 40.3665 48.681 40.8496 49.1094C41.3327 49.5332 41.5833 50.1188 41.6016 50.8662V54.2705C41.6016 54.9495 41.6882 55.4896 41.8613 55.8906V56H40.5352ZM38.4365 55.0361C38.833 55.0361 39.209 54.9336 39.5645 54.7285C39.9199 54.5234 40.1774 54.2568 40.3369 53.9287V52.4111H39.3457C37.7962 52.4111 37.0215 52.8646 37.0215 53.7715C37.0215 54.168 37.1536 54.4779 37.418 54.7012C37.6823 54.9245 38.0218 55.0361 38.4365 55.0361ZM45.2998 46.8125V48.6035H46.6807V49.5811H45.2998V54.168C45.2998 54.4642 45.3613 54.6875 45.4844 54.8379C45.6074 54.9837 45.8171 55.0566 46.1133 55.0566C46.2591 55.0566 46.4596 55.0293 46.7148 54.9746V56C46.3822 56.0911 46.0586 56.1367 45.7441 56.1367C45.179 56.1367 44.7529 55.9658 44.4658 55.624C44.1787 55.2822 44.0352 54.7969 44.0352 54.168V49.5811H42.6885V48.6035H44.0352V46.8125H45.2998ZM52.7305 55.2686C52.2383 55.8473 51.516 56.1367 50.5635 56.1367C49.7751 56.1367 49.1735 55.9089 48.7588 55.4531C48.3486 54.9928 48.1413 54.3138 48.1367 53.416V48.6035H49.4014V53.3818C49.4014 54.5029 49.8571 55.0635 50.7686 55.0635C51.7347 55.0635 52.3773 54.7035 52.6963 53.9834V48.6035H53.9609V56H52.7578L52.7305 55.2686ZM59.4639 49.7383C59.2725 49.7064 59.0651 49.6904 58.8418 49.6904C58.0124 49.6904 57.4495 50.0436 57.1533 50.75V56H55.8887V48.6035H57.1191L57.1396 49.458C57.5544 48.7972 58.1423 48.4668 58.9033 48.4668C59.1494 48.4668 59.3363 48.4987 59.4639 48.5625V49.7383ZM63.5654 56.1367C62.5628 56.1367 61.7471 55.8086 61.1182 55.1523C60.4893 54.4915 60.1748 53.6097 60.1748 52.5068V52.2744C60.1748 51.5407 60.3138 50.8867 60.5918 50.3125C60.8743 49.7337 61.2663 49.2826 61.7676 48.959C62.2734 48.6309 62.8203 48.4668 63.4082 48.4668C64.3698 48.4668 65.1172 48.7835 65.6504 49.417C66.1836 50.0505 66.4502 50.9574 66.4502 52.1377V52.6641H61.4395C61.4577 53.3932 61.6696 53.9834 62.0752 54.4346C62.4854 54.8812 63.0049 55.1045 63.6338 55.1045C64.0804 55.1045 64.4587 55.0133 64.7686 54.8311C65.0785 54.6488 65.3496 54.4072 65.582 54.1064L66.3545 54.708C65.7347 55.6605 64.805 56.1367 63.5654 56.1367ZM63.4082 49.5059C62.8978 49.5059 62.4694 49.6927 62.123 50.0664C61.7767 50.4355 61.5625 50.9551 61.4805 51.625H65.1855V51.5293C65.1491 50.8867 64.9759 50.39 64.666 50.0391C64.3561 49.6836 63.9368 49.5059 63.4082 49.5059ZM67.8789 55.3369C67.8789 55.1182 67.9427 54.9359 68.0703 54.79C68.2025 54.6442 68.3984 54.5713 68.6582 54.5713C68.918 54.5713 69.1139 54.6442 69.2461 54.79C69.3828 54.9359 69.4512 55.1182 69.4512 55.3369C69.4512 55.5465 69.3828 55.722 69.2461 55.8633C69.1139 56.0046 68.918 56.0752 68.6582 56.0752C68.3984 56.0752 68.2025 56.0046 68.0703 55.8633C67.9427 55.722 67.8789 55.5465 67.8789 55.3369ZM67.8857 49.3008C67.8857 49.082 67.9495 48.8997 68.0771 48.7539C68.2093 48.6081 68.4053 48.5352 68.665 48.5352C68.9248 48.5352 69.1208 48.6081 69.2529 48.7539C69.3896 48.8997 69.458 49.082 69.458 49.3008C69.458 49.5104 69.3896 49.6859 69.2529 49.8271C69.1208 49.9684 68.9248 50.0391 68.665 50.0391C68.4053 50.0391 68.2093 49.9684 68.0771 49.8271C67.9495 49.6859 67.8857 49.5104 67.8857 49.3008ZM82.6309 56H81.3115L76.3008 48.3301V56H74.9814V46.0469H76.3008L81.3252 53.751V46.0469H82.6309V56ZM90.5879 51.3994H86.2744V54.9268H91.2852V56H84.9619V46.0469H91.2168V47.127H86.2744V50.3262H90.5879V51.3994ZM95.0654 52.8623L95.2568 54.1748L95.5371 52.9922L97.5059 46.0469H98.6133L100.534 52.9922L100.808 54.1953L101.02 52.8555L102.564 46.0469H103.884L101.471 56H100.274L98.2236 48.7471L98.0664 47.9883L97.9092 48.7471L95.7832 56H94.5869L92.1807 46.0469H93.4932L95.0654 52.8623ZM110.48 57.0322H104.219V56H110.48V57.0322ZM113.81 52.8623L114.001 54.1748L114.281 52.9922L116.25 46.0469H117.357L119.278 52.9922L119.552 54.1953L119.764 52.8555L121.309 46.0469H122.628L120.215 56H119.019L116.968 48.7471L116.811 47.9883L116.653 48.7471L114.527 56H113.331L110.925 46.0469H112.237L113.81 52.8623ZM129.717 51.3994H125.403V54.9268H130.414V56H124.091V46.0469H130.346V47.127H125.403V50.3262H129.717V51.3994ZM132.048 56V46.0469H135.302C136.382 46.0469 137.193 46.2702 137.735 46.7168C138.282 47.1634 138.556 47.8242 138.556 48.6992C138.556 49.1641 138.424 49.5765 138.159 49.9365C137.895 50.292 137.535 50.5677 137.079 50.7637C137.617 50.9141 138.041 51.2012 138.351 51.625C138.665 52.0443 138.822 52.5456 138.822 53.1289C138.822 54.0221 138.533 54.724 137.954 55.2344C137.375 55.7448 136.557 56 135.5 56H132.048ZM133.36 51.3447V54.9268H135.527C136.138 54.9268 136.619 54.7695 136.97 54.4551C137.325 54.1361 137.503 53.6986 137.503 53.1426C137.503 51.944 136.851 51.3447 135.548 51.3447H133.36ZM133.36 50.292H135.343C135.917 50.292 136.375 50.1484 136.717 49.8613C137.063 49.5742 137.236 49.1846 137.236 48.6924C137.236 48.1455 137.077 47.749 136.758 47.5029C136.439 47.2523 135.953 47.127 135.302 47.127H133.36V50.292ZM143.703 51.5635C142.577 51.2399 141.757 50.8434 141.242 50.374C140.732 49.9001 140.477 49.3167 140.477 48.624C140.477 47.8402 140.789 47.193 141.413 46.6826C142.042 46.1676 142.858 45.9102 143.86 45.9102C144.544 45.9102 145.152 46.0423 145.686 46.3066C146.223 46.571 146.638 46.9355 146.93 47.4004C147.226 47.8652 147.374 48.3734 147.374 48.9248H146.055C146.055 48.3232 145.863 47.8516 145.48 47.5098C145.098 47.1634 144.558 46.9902 143.86 46.9902C143.213 46.9902 142.707 47.1338 142.343 47.4209C141.983 47.7035 141.803 48.0977 141.803 48.6035C141.803 49.0091 141.974 49.3532 142.315 49.6357C142.662 49.9137 143.247 50.1689 144.072 50.4014C144.902 50.6338 145.549 50.8913 146.014 51.1738C146.483 51.4518 146.829 51.7777 147.053 52.1514C147.281 52.5251 147.395 52.9648 147.395 53.4707C147.395 54.2773 147.08 54.9245 146.451 55.4121C145.822 55.8952 144.981 56.1367 143.929 56.1367C143.245 56.1367 142.607 56.0068 142.015 55.7471C141.422 55.4827 140.964 55.1227 140.641 54.667C140.322 54.2113 140.162 53.694 140.162 53.1152H141.481C141.481 53.7168 141.702 54.193 142.145 54.5439C142.591 54.8903 143.186 55.0635 143.929 55.0635C144.621 55.0635 145.152 54.9222 145.521 54.6396C145.891 54.3571 146.075 53.972 146.075 53.4844C146.075 52.9967 145.904 52.6208 145.562 52.3564C145.221 52.0876 144.601 51.8232 143.703 51.5635ZM150.491 56H149.179V46.0469H150.491V56ZM159.569 47.127H156.37V56H155.064V47.127H151.872V46.0469H159.569V47.127ZM166.672 51.3994H162.358V54.9268H167.369V56H161.046V46.0469H167.301V47.127H162.358V50.3262H166.672V51.3994ZM174.137 57.0322H167.875V56H174.137V57.0322ZM175.319 56V46.0469H178.573C179.653 46.0469 180.465 46.2702 181.007 46.7168C181.554 47.1634 181.827 47.8242 181.827 48.6992C181.827 49.1641 181.695 49.5765 181.431 49.9365C181.166 50.292 180.806 50.5677 180.351 50.7637C180.888 50.9141 181.312 51.2012 181.622 51.625C181.937 52.0443 182.094 52.5456 182.094 53.1289C182.094 54.0221 181.804 54.724 181.226 55.2344C180.647 55.7448 179.829 56 178.771 56H175.319ZM176.632 51.3447V54.9268H178.799C179.41 54.9268 179.89 54.7695 180.241 54.4551C180.597 54.1361 180.774 53.6986 180.774 53.1426C180.774 51.944 180.123 51.3447 178.819 51.3447H176.632ZM176.632 50.292H178.614C179.188 50.292 179.646 50.1484 179.988 49.8613C180.335 49.5742 180.508 49.1846 180.508 48.6924C180.508 48.1455 180.348 47.749 180.029 47.5029C179.71 47.2523 179.225 47.127 178.573 47.127H176.632V50.292ZM189.668 51.3994H185.354V54.9268H190.365V56H184.042V46.0469H190.297V47.127H185.354V50.3262H189.668V51.3994ZM199.013 47.127H195.813V56H194.508V47.127H191.315V46.0469H199.013V47.127ZM205.438 53.4023H201.269L200.332 56H198.979L202.779 46.0469H203.928L207.735 56H206.389L205.438 53.4023ZM201.665 52.3223H205.049L203.354 47.667L201.665 52.3223Z" fill="black"/>
<rect x="20" y="70" width="235" height="14" rx="4" fill="#D9D9D9"/>
<path d="M20 74C20 71.7909 21.7909 70 24 70H87V84H24C21.7909 84 20 82.2091 20 80V74Z" fill="black"/>
<path d="M24.1191 99.5488H22.1152V103H20.9844V94.4688H23.8086C24.7695 94.4688 25.5078 94.6875 26.0234 95.125C26.543 95.5625 26.8027 96.1992 26.8027 97.0352C26.8027 97.5664 26.6582 98.0293 26.3691 98.4238C26.084 98.8184 25.6855 99.1133 25.1738 99.3086L27.1777 102.93V103H25.9707L24.1191 99.5488ZM22.1152 98.6289H23.8438C24.4023 98.6289 24.8457 98.4844 25.1738 98.1953C25.5059 97.9062 25.6719 97.5195 25.6719 97.0352C25.6719 96.5078 25.5137 96.1035 25.1973 95.8223C24.8848 95.541 24.4316 95.3984 23.8379 95.3945H22.1152V98.6289ZM27.9277 99.7715C27.9277 99.1504 28.0488 98.5918 28.291 98.0957C28.5371 97.5996 28.877 97.2168 29.3105 96.9473C29.748 96.6777 30.2461 96.543 30.8047 96.543C31.668 96.543 32.3652 96.8418 32.8965 97.4395C33.4316 98.0371 33.6992 98.832 33.6992 99.8242V99.9004C33.6992 100.518 33.5801 101.072 33.3418 101.564C33.1074 102.053 32.7695 102.434 32.3281 102.707C31.8906 102.98 31.3867 103.117 30.8164 103.117C29.957 103.117 29.2598 102.818 28.7246 102.221C28.1934 101.623 27.9277 100.832 27.9277 99.8477V99.7715ZM29.0176 99.9004C29.0176 100.604 29.1797 101.168 29.5039 101.594C29.832 102.02 30.2695 102.232 30.8164 102.232C31.3672 102.232 31.8047 102.018 32.1289 101.588C32.4531 101.154 32.6152 100.549 32.6152 99.7715C32.6152 99.0762 32.4492 98.5137 32.1172 98.084C31.7891 97.6504 31.3516 97.4336 30.8047 97.4336C30.2695 97.4336 29.8379 97.6465 29.5098 98.0723C29.1816 98.498 29.0176 99.1074 29.0176 99.9004ZM36.2363 103H35.1523V94H36.2363V103ZM39.1543 103H38.0703V94H39.1543V103ZM40.6074 99.7715C40.6074 99.1504 40.7285 98.5918 40.9707 98.0957C41.2168 97.5996 41.5566 97.2168 41.9902 96.9473C42.4277 96.6777 42.9258 96.543 43.4844 96.543C44.3477 96.543 45.0449 96.8418 45.5762 97.4395C46.1113 98.0371 46.3789 98.832 46.3789 99.8242V99.9004C46.3789 100.518 46.2598 101.072 46.0215 101.564C45.7871 102.053 45.4492 102.434 45.0078 102.707C44.5703 102.98 44.0664 103.117 43.4961 103.117C42.6367 103.117 41.9395 102.818 41.4043 102.221C40.873 101.623 40.6074 100.832 40.6074 99.8477V99.7715ZM41.6973 99.9004C41.6973 100.604 41.8594 101.168 42.1836 101.594C42.5117 102.02 42.9492 102.232 43.4961 102.232C44.0469 102.232 44.4844 102.018 44.8086 101.588C45.1328 101.154 45.2949 100.549 45.2949 99.7715C45.2949 99.0762 45.1289 98.5137 44.7969 98.084C44.4688 97.6504 44.0312 97.4336 43.4844 97.4336C42.9492 97.4336 42.5176 97.6465 42.1895 98.0723C41.8613 98.498 41.6973 99.1074 41.6973 99.9004ZM51.6523 102.373C51.2305 102.869 50.6113 103.117 49.7949 103.117C49.1191 103.117 48.6035 102.922 48.248 102.531C47.8965 102.137 47.7188 101.555 47.7148 100.785V96.6602H48.7988V100.756C48.7988 101.717 49.1895 102.197 49.9707 102.197C50.7988 102.197 51.3496 101.889 51.623 101.271V96.6602H52.707V103H51.6758L51.6523 102.373ZM55.8301 95.125V96.6602H57.0137V97.498H55.8301V101.43C55.8301 101.684 55.8828 101.875 55.9883 102.004C56.0938 102.129 56.2734 102.191 56.5273 102.191C56.6523 102.191 56.8242 102.168 57.043 102.121V103C56.7578 103.078 56.4805 103.117 56.2109 103.117C55.7266 103.117 55.3613 102.971 55.1152 102.678C54.8691 102.385 54.7461 101.969 54.7461 101.43V97.498H53.5918V96.6602H54.7461V95.125H55.8301ZM58.25 102.432C58.25 102.244 58.3047 102.088 58.4141 101.963C58.5273 101.838 58.6953 101.775 58.918 101.775C59.1406 101.775 59.3086 101.838 59.4219 101.963C59.5391 102.088 59.5977 102.244 59.5977 102.432C59.5977 102.611 59.5391 102.762 59.4219 102.883C59.3086 103.004 59.1406 103.064 58.918 103.064C58.6953 103.064 58.5273 103.004 58.4141 102.883C58.3047 102.762 58.25 102.611 58.25 102.432ZM58.2559 97.2578C58.2559 97.0703 58.3105 96.9141 58.4199 96.7891C58.5332 96.6641 58.7012 96.6016 58.9238 96.6016C59.1465 96.6016 59.3145 96.6641 59.4277 96.7891C59.5449 96.9141 59.6035 97.0703 59.6035 97.2578C59.6035 97.4375 59.5449 97.5879 59.4277 97.709C59.3145 97.8301 59.1465 97.8906 58.9238 97.8906C58.7012 97.8906 58.5332 97.8301 58.4199 97.709C58.3105 97.5879 58.2559 97.4375 58.2559 97.2578ZM69.6465 103H64.0566V102.221L67.0098 98.9395C67.4473 98.4434 67.748 98.041 67.9121 97.7324C68.0801 97.4199 68.1641 97.0977 68.1641 96.7656C68.1641 96.3203 68.0293 95.9551 67.7598 95.6699C67.4902 95.3848 67.1309 95.2422 66.6816 95.2422C66.1426 95.2422 65.7227 95.3965 65.4219 95.7051C65.125 96.0098 64.9766 96.4355 64.9766 96.9824H63.8926C63.8926 96.1973 64.1445 95.5625 64.6484 95.0781C65.1562 94.5938 65.834 94.3516 66.6816 94.3516C67.4746 94.3516 68.1016 94.5605 68.5625 94.9785C69.0234 95.3926 69.2539 95.9453 69.2539 96.6367C69.2539 97.4766 68.7188 98.4766 67.6484 99.6367L65.3633 102.115H69.6465V103ZM74.9492 99.25C74.7227 99.5195 74.4512 99.7363 74.1348 99.9004C73.8223 100.064 73.4785 100.146 73.1035 100.146C72.6113 100.146 72.1816 100.025 71.8145 99.7832C71.4512 99.541 71.1699 99.2012 70.9707 98.7637C70.7715 98.3223 70.6719 97.8359 70.6719 97.3047C70.6719 96.7344 70.7793 96.2207 70.9941 95.7637C71.2129 95.3066 71.5215 94.957 71.9199 94.7148C72.3184 94.4727 72.7832 94.3516 73.3145 94.3516C74.1582 94.3516 74.8223 94.668 75.3066 95.3008C75.7949 95.9297 76.0391 96.7891 76.0391 97.8789V98.1953C76.0391 99.8555 75.7109 101.068 75.0547 101.834C74.3984 102.596 73.4082 102.986 72.084 103.006H71.873V102.092H72.1016C72.9961 102.076 73.6836 101.844 74.1641 101.395C74.6445 100.941 74.9062 100.227 74.9492 99.25ZM73.2793 99.25C73.6426 99.25 73.9766 99.1387 74.2812 98.916C74.5898 98.6934 74.8145 98.418 74.9551 98.0898V97.6562C74.9551 96.9453 74.8008 96.3672 74.4922 95.9219C74.1836 95.4766 73.793 95.2539 73.3203 95.2539C72.8438 95.2539 72.4609 95.4375 72.1719 95.8047C71.8828 96.168 71.7383 96.6484 71.7383 97.2461C71.7383 97.8281 71.877 98.3086 72.1543 98.6875C72.4355 99.0625 72.8105 99.25 73.2793 99.25ZM77.4395 96.1094C77.4395 95.5977 77.6016 95.1758 77.9258 94.8438C78.2539 94.5117 78.6738 94.3457 79.1855 94.3457C79.7051 94.3457 80.125 94.5137 80.4453 94.8496C80.7695 95.1816 80.9316 95.6133 80.9316 96.1445V96.5605C80.9316 97.0762 80.7676 97.498 80.4395 97.8262C80.1152 98.1504 79.7012 98.3125 79.1973 98.3125C78.6895 98.3125 78.2695 98.1504 77.9375 97.8262C77.6055 97.498 77.4395 97.0625 77.4395 96.5195V96.1094ZM78.248 96.5605C78.248 96.8652 78.334 97.1172 78.5059 97.3164C78.6777 97.5117 78.9082 97.6094 79.1973 97.6094C79.4746 97.6094 79.6973 97.5137 79.8652 97.3223C80.0371 97.1309 80.123 96.8691 80.123 96.5371V96.1094C80.123 95.8047 80.0391 95.5527 79.8711 95.3535C79.7031 95.1543 79.4746 95.0547 79.1855 95.0547C78.8965 95.0547 78.668 95.1543 78.5 95.3535C78.332 95.5527 78.248 95.8125 78.248 96.1328V96.5605ZM81.5938 100.908C81.5938 100.396 81.7559 99.9766 82.0801 99.6484C82.4082 99.3164 82.8281 99.1504 83.3398 99.1504C83.8516 99.1504 84.2715 99.3145 84.5996 99.6426C84.9277 99.9707 85.0918 100.406 85.0918 100.949V101.365C85.0918 101.877 84.9277 102.299 84.5996 102.631C84.2754 102.959 83.8594 103.123 83.3516 103.123C82.8438 103.123 82.4238 102.961 82.0918 102.637C81.7598 102.309 81.5938 101.873 81.5938 101.33V100.908ZM82.4023 101.365C82.4023 101.674 82.4883 101.928 82.6602 102.127C82.832 102.322 83.0625 102.42 83.3516 102.42C83.6328 102.42 83.8574 102.324 84.0254 102.133C84.1934 101.938 84.2773 101.674 84.2773 101.342V100.908C84.2773 100.6 84.1914 100.348 84.0195 100.152C83.8516 99.957 83.625 99.8594 83.3398 99.8594C83.0625 99.8594 82.8359 99.957 82.6602 100.152C82.4883 100.344 82.4023 100.604 82.4023 100.932V101.365ZM79.4434 102.355L78.8281 101.969L82.9941 95.3008L83.6094 95.6875L79.4434 102.355Z" fill="black"/>
<rect x="20" y="126" width="177" height="36" rx="2" fill="black" fill-opacity="0.15"/>
<path d="M49.752 146.949H46.1562L45.4727 149H43.292L46.9971 139.047H48.8975L52.623 149H50.4424L49.752 146.949ZM46.71 145.288H49.1982L47.9473 141.562L46.71 145.288ZM53.1152 145.247C53.1152 144.094 53.3727 143.176 53.8877 142.492C54.4072 141.809 55.1159 141.467 56.0137 141.467C56.7337 141.467 57.3285 141.736 57.7979 142.273V138.5H59.7803V149H57.9961L57.9004 148.214C57.4082 148.829 56.7747 149.137 56 149.137C55.1296 149.137 54.43 148.795 53.9014 148.111C53.3773 147.423 53.1152 146.468 53.1152 145.247ZM55.0908 145.391C55.0908 146.083 55.2116 146.614 55.4531 146.983C55.6947 147.353 56.0456 147.537 56.5059 147.537C57.1165 147.537 57.5472 147.28 57.7979 146.765V143.846C57.5518 143.331 57.1257 143.073 56.5195 143.073C55.5671 143.073 55.0908 143.846 55.0908 145.391ZM61.0039 145.247C61.0039 144.094 61.2614 143.176 61.7764 142.492C62.2959 141.809 63.0046 141.467 63.9023 141.467C64.6224 141.467 65.2171 141.736 65.6865 142.273V138.5H67.6689V149H65.8848L65.7891 148.214C65.2969 148.829 64.6634 149.137 63.8887 149.137C63.0182 149.137 62.3187 148.795 61.79 148.111C61.266 147.423 61.0039 146.468 61.0039 145.247ZM62.9795 145.391C62.9795 146.083 63.1003 146.614 63.3418 146.983C63.5833 147.353 63.9342 147.537 64.3945 147.537C65.0052 147.537 65.4359 147.28 65.6865 146.765V143.846C65.4404 143.331 65.0143 143.073 64.4082 143.073C63.4557 143.073 62.9795 143.846 62.9795 145.391ZM74.5049 141.604L74.5664 142.458C75.0951 141.797 75.8037 141.467 76.6924 141.467C77.4762 141.467 78.0596 141.697 78.4424 142.157C78.8252 142.618 79.0212 143.306 79.0303 144.222V149H77.0547V144.27C77.0547 143.85 76.9635 143.547 76.7812 143.36C76.599 143.169 76.2959 143.073 75.8721 143.073C75.3161 143.073 74.8991 143.31 74.6211 143.784V149H72.6455V141.604H74.5049ZM83.9385 149.137C82.8538 149.137 81.9697 148.804 81.2861 148.139C80.6071 147.473 80.2676 146.587 80.2676 145.479V145.288C80.2676 144.545 80.4111 143.882 80.6982 143.299C80.9854 142.711 81.391 142.26 81.915 141.945C82.4437 141.626 83.0452 141.467 83.7197 141.467C84.7314 141.467 85.5267 141.786 86.1055 142.424C86.6888 143.062 86.9805 143.966 86.9805 145.138V145.944H82.2705C82.3343 146.427 82.5257 146.815 82.8447 147.106C83.1683 147.398 83.5762 147.544 84.0684 147.544C84.8294 147.544 85.4242 147.268 85.8525 146.717L86.8232 147.804C86.527 148.223 86.126 148.551 85.6201 148.788C85.1143 149.021 84.5537 149.137 83.9385 149.137ZM83.7129 143.066C83.321 143.066 83.002 143.199 82.7559 143.463C82.5143 143.727 82.3594 144.105 82.291 144.598H85.0391V144.44C85.0299 144.003 84.9115 143.666 84.6836 143.429C84.4557 143.187 84.1322 143.066 83.7129 143.066ZM94.541 146.313L95.5117 141.604H97.4189L95.5322 149H93.8779L92.4766 144.345L91.0752 149H89.4277L87.541 141.604H89.4482L90.4121 146.307L91.7656 141.604H93.1943L94.541 146.313ZM102.43 149V143.053H101.329V141.604H102.43V140.975C102.43 140.145 102.667 139.503 103.141 139.047C103.619 138.587 104.287 138.356 105.144 138.356C105.417 138.356 105.752 138.402 106.148 138.493L106.128 140.024C105.964 139.983 105.763 139.963 105.526 139.963C104.784 139.963 104.412 140.312 104.412 141.009V141.604H105.882V143.053H104.412V149H102.43ZM110.147 149.137C109.063 149.137 108.179 148.804 107.495 148.139C106.816 147.473 106.477 146.587 106.477 145.479V145.288C106.477 144.545 106.62 143.882 106.907 143.299C107.194 142.711 107.6 142.26 108.124 141.945C108.653 141.626 109.254 141.467 109.929 141.467C110.94 141.467 111.736 141.786 112.314 142.424C112.898 143.062 113.189 143.966 113.189 145.138V145.944H108.479C108.543 146.427 108.735 146.815 109.054 147.106C109.377 147.398 109.785 147.544 110.277 147.544C111.038 147.544 111.633 147.268 112.062 146.717L113.032 147.804C112.736 148.223 112.335 148.551 111.829 148.788C111.323 149.021 110.763 149.137 110.147 149.137ZM109.922 143.066C109.53 143.066 109.211 143.199 108.965 143.463C108.723 143.727 108.568 144.105 108.5 144.598H111.248V144.44C111.239 144.003 111.12 143.666 110.893 143.429C110.665 143.187 110.341 143.066 109.922 143.066ZM118.604 149C118.512 148.822 118.446 148.601 118.405 148.337C117.927 148.87 117.305 149.137 116.539 149.137C115.814 149.137 115.213 148.927 114.734 148.508C114.26 148.089 114.023 147.56 114.023 146.922C114.023 146.138 114.313 145.536 114.892 145.117C115.475 144.698 116.316 144.486 117.414 144.481H118.323V144.058C118.323 143.716 118.234 143.442 118.057 143.237C117.883 143.032 117.608 142.93 117.229 142.93C116.897 142.93 116.635 143.009 116.443 143.169C116.257 143.328 116.163 143.547 116.163 143.825H114.188C114.188 143.397 114.32 143 114.584 142.636C114.848 142.271 115.222 141.986 115.705 141.781C116.188 141.572 116.73 141.467 117.332 141.467C118.243 141.467 118.966 141.697 119.499 142.157C120.037 142.613 120.306 143.256 120.306 144.085V147.291C120.31 147.993 120.408 148.524 120.6 148.884V149H118.604ZM116.97 147.626C117.261 147.626 117.53 147.562 117.776 147.435C118.022 147.302 118.205 147.127 118.323 146.908V145.637H117.585C116.596 145.637 116.07 145.979 116.006 146.662L115.999 146.778C115.999 147.024 116.086 147.227 116.259 147.387C116.432 147.546 116.669 147.626 116.97 147.626ZM124.188 139.785V141.604H125.453V143.053H124.188V146.744C124.188 147.018 124.241 147.214 124.346 147.332C124.451 147.451 124.651 147.51 124.947 147.51C125.166 147.51 125.36 147.494 125.528 147.462V148.959C125.141 149.077 124.742 149.137 124.332 149.137C122.947 149.137 122.24 148.437 122.213 147.038V143.053H121.133V141.604H122.213V139.785H124.188ZM130.983 148.248C130.496 148.84 129.821 149.137 128.96 149.137C128.167 149.137 127.561 148.909 127.142 148.453C126.727 147.997 126.515 147.33 126.506 146.45V141.604H128.481V146.382C128.481 147.152 128.832 147.537 129.534 147.537C130.204 147.537 130.664 147.305 130.915 146.84V141.604H132.897V149H131.038L130.983 148.248ZM138.544 143.456C138.275 143.42 138.038 143.401 137.833 143.401C137.086 143.401 136.596 143.654 136.363 144.16V149H134.388V141.604H136.254L136.309 142.485C136.705 141.806 137.254 141.467 137.956 141.467C138.175 141.467 138.38 141.496 138.571 141.556L138.544 143.456ZM142.769 149.137C141.684 149.137 140.8 148.804 140.116 148.139C139.437 147.473 139.098 146.587 139.098 145.479V145.288C139.098 144.545 139.241 143.882 139.528 143.299C139.815 142.711 140.221 142.26 140.745 141.945C141.274 141.626 141.875 141.467 142.55 141.467C143.562 141.467 144.357 141.786 144.936 142.424C145.519 143.062 145.811 143.966 145.811 145.138V145.944H141.101C141.164 146.427 141.356 146.815 141.675 147.106C141.998 147.398 142.406 147.544 142.898 147.544C143.66 147.544 144.254 147.268 144.683 146.717L145.653 147.804C145.357 148.223 144.956 148.551 144.45 148.788C143.944 149.021 143.384 149.137 142.769 149.137ZM142.543 143.066C142.151 143.066 141.832 143.199 141.586 143.463C141.344 143.727 141.189 144.105 141.121 144.598H143.869V144.44C143.86 144.003 143.742 143.666 143.514 143.429C143.286 143.187 142.962 143.066 142.543 143.066ZM155.381 140.031C154.989 139.986 154.624 139.963 154.287 139.963C153.394 139.963 152.947 140.343 152.947 141.104V141.604H154.417V143.053H152.947V149H150.965V143.053H149.864V141.604H150.965V141.029C150.974 140.173 151.243 139.514 151.771 139.054C152.3 138.589 153.048 138.356 154.014 138.356C154.702 138.356 155.818 138.429 157.363 138.575V149H155.381V140.031ZM163.297 149C163.206 148.822 163.14 148.601 163.099 148.337C162.62 148.87 161.998 149.137 161.232 149.137C160.508 149.137 159.906 148.927 159.428 148.508C158.954 148.089 158.717 147.56 158.717 146.922C158.717 146.138 159.006 145.536 159.585 145.117C160.168 144.698 161.009 144.486 162.107 144.481H163.017V144.058C163.017 143.716 162.928 143.442 162.75 143.237C162.577 143.032 162.301 142.93 161.923 142.93C161.59 142.93 161.328 143.009 161.137 143.169C160.95 143.328 160.856 143.547 160.856 143.825H158.881C158.881 143.397 159.013 143 159.277 142.636C159.542 142.271 159.915 141.986 160.398 141.781C160.882 141.572 161.424 141.467 162.025 141.467C162.937 141.467 163.659 141.697 164.192 142.157C164.73 142.613 164.999 143.256 164.999 144.085V147.291C165.004 147.993 165.102 148.524 165.293 148.884V149H163.297ZM161.663 147.626C161.955 147.626 162.224 147.562 162.47 147.435C162.716 147.302 162.898 147.127 163.017 146.908V145.637H162.278C161.289 145.637 160.763 145.979 160.699 146.662L160.692 146.778C160.692 147.024 160.779 147.227 160.952 147.387C161.125 147.546 161.362 147.626 161.663 147.626ZM166.229 145.247C166.229 144.112 166.498 143.199 167.036 142.506C167.578 141.813 168.308 141.467 169.224 141.467C170.035 141.467 170.666 141.745 171.117 142.301L171.199 141.604H172.99V148.754C172.99 149.401 172.842 149.964 172.546 150.442C172.254 150.921 171.842 151.285 171.309 151.536C170.775 151.787 170.151 151.912 169.436 151.912C168.893 151.912 168.365 151.803 167.85 151.584C167.335 151.37 166.945 151.092 166.681 150.75L167.556 149.547C168.048 150.098 168.645 150.374 169.347 150.374C169.871 150.374 170.279 150.233 170.57 149.95C170.862 149.672 171.008 149.276 171.008 148.761V148.364C170.552 148.879 169.953 149.137 169.21 149.137C168.321 149.137 167.601 148.79 167.05 148.098C166.503 147.4 166.229 146.478 166.229 145.329V145.247ZM168.205 145.391C168.205 146.061 168.34 146.587 168.608 146.97C168.877 147.348 169.246 147.537 169.716 147.537C170.317 147.537 170.748 147.312 171.008 146.86V143.75C170.743 143.299 170.317 143.073 169.729 143.073C169.256 143.073 168.882 143.267 168.608 143.654C168.34 144.042 168.205 144.62 168.205 145.391Z" fill="black"/>
</svg>
