<svg width="275" height="205" viewBox="0 0 275 205" fill="none" xmlns="http://www.w3.org/2000/svg">
<path d="M47.5635 93H46.251V83.0469H47.5635V93ZM50.9678 85.6035L51.0088 86.5332C51.5739 85.8223 52.3122 85.4668 53.2236 85.4668C54.7868 85.4668 55.5752 86.3486 55.5889 88.1123V93H54.3242V88.1055C54.3197 87.5723 54.1966 87.1781 53.9551 86.9229C53.7181 86.6676 53.3467 86.54 52.8408 86.54C52.4307 86.54 52.0706 86.6494 51.7607 86.8682C51.4508 87.0869 51.2093 87.374 51.0361 87.7295V93H49.7715V85.6035H50.9678ZM60.4629 92.1045C60.9141 92.1045 61.3083 91.9678 61.6455 91.6943C61.9827 91.4209 62.1696 91.0791 62.2061 90.6689H63.4023C63.3796 91.0928 63.2337 91.4961 62.9648 91.8789C62.696 92.2617 62.3359 92.5671 61.8848 92.7949C61.4382 93.0228 60.9642 93.1367 60.4629 93.1367C59.4557 93.1367 58.6536 92.8018 58.0566 92.1318C57.4642 91.4574 57.168 90.5368 57.168 89.3701V89.1582C57.168 88.4382 57.3001 87.7979 57.5645 87.2373C57.8288 86.6768 58.207 86.2415 58.6992 85.9316C59.196 85.6217 59.7816 85.4668 60.4561 85.4668C61.2855 85.4668 61.9736 85.7152 62.5205 86.2119C63.0719 86.7087 63.3659 87.3535 63.4023 88.1465H62.2061C62.1696 87.668 61.9873 87.276 61.6592 86.9707C61.3356 86.6608 60.9346 86.5059 60.4561 86.5059C59.8135 86.5059 59.3145 86.7383 58.959 87.2031C58.6081 87.6634 58.4326 88.3311 58.4326 89.2061V89.4453C58.4326 90.2975 58.6081 90.9538 58.959 91.4141C59.3099 91.8743 59.8112 92.1045 60.4629 92.1045ZM66.1982 93H64.9336V82.5H66.1982V93ZM72.7949 92.2686C72.3027 92.8473 71.5804 93.1367 70.6279 93.1367C69.8395 93.1367 69.238 92.9089 68.8232 92.4531C68.4131 91.9928 68.2057 91.3138 68.2012 90.416V85.6035H69.4658V90.3818C69.4658 91.5029 69.9215 92.0635 70.833 92.0635C71.7992 92.0635 72.4417 91.7035 72.7607 90.9834V85.6035H74.0254V93H72.8223L72.7949 92.2686ZM75.6455 89.2402C75.6455 88.1055 75.9144 87.194 76.4521 86.5059C76.9899 85.8132 77.694 85.4668 78.5645 85.4668C79.4303 85.4668 80.1162 85.763 80.6221 86.3555V82.5H81.8867V93H80.7246L80.6631 92.207C80.1572 92.8268 79.4531 93.1367 78.5508 93.1367C77.694 93.1367 76.9945 92.7858 76.4521 92.084C75.9144 91.3822 75.6455 90.4661 75.6455 89.3359V89.2402ZM76.9102 89.3838C76.9102 90.2223 77.0833 90.8786 77.4297 91.3525C77.776 91.8265 78.2546 92.0635 78.8652 92.0635C79.6673 92.0635 80.2529 91.7035 80.6221 90.9834V87.5859C80.2438 86.8887 79.6628 86.54 78.8789 86.54C78.2591 86.54 77.776 86.7793 77.4297 87.2578C77.0833 87.7363 76.9102 88.445 76.9102 89.3838ZM86.9248 93.1367C85.9222 93.1367 85.1064 92.8086 84.4775 92.1523C83.8486 91.4915 83.5342 90.6097 83.5342 89.5068V89.2744C83.5342 88.5407 83.6732 87.8867 83.9512 87.3125C84.2337 86.7337 84.6257 86.2826 85.127 85.959C85.6328 85.6309 86.1797 85.4668 86.7676 85.4668C87.7292 85.4668 88.4766 85.7835 89.0098 86.417C89.543 87.0505 89.8096 87.9574 89.8096 89.1377V89.6641H84.7988C84.8171 90.3932 85.029 90.9834 85.4346 91.4346C85.8447 91.8812 86.3643 92.1045 86.9932 92.1045C87.4398 92.1045 87.818 92.0133 88.1279 91.8311C88.4378 91.6488 88.709 91.4072 88.9414 91.1064L89.7139 91.708C89.0941 92.6605 88.1644 93.1367 86.9248 93.1367ZM86.7676 86.5059C86.2572 86.5059 85.8288 86.6927 85.4824 87.0664C85.1361 87.4355 84.9219 87.9551 84.8398 88.625H88.5449V88.5293C88.5085 87.8867 88.3353 87.39 88.0254 87.0391C87.7155 86.6836 87.2962 86.5059 86.7676 86.5059ZM97.7188 92.1045C98.1699 92.1045 98.5641 91.9678 98.9014 91.6943C99.2386 91.4209 99.4255 91.0791 99.4619 90.6689H100.658C100.635 91.0928 100.49 91.4961 100.221 91.8789C99.9518 92.2617 99.5918 92.5671 99.1406 92.7949C98.694 93.0228 98.2201 93.1367 97.7188 93.1367C96.7116 93.1367 95.9095 92.8018 95.3125 92.1318C94.7201 91.4574 94.4238 90.5368 94.4238 89.3701V89.1582C94.4238 88.4382 94.556 87.7979 94.8203 87.2373C95.0846 86.6768 95.4629 86.2415 95.9551 85.9316C96.4518 85.6217 97.0374 85.4668 97.7119 85.4668C98.5413 85.4668 99.2295 85.7152 99.7764 86.2119C100.328 86.7087 100.622 87.3535 100.658 88.1465H99.4619C99.4255 87.668 99.2432 87.276 98.915 86.9707C98.5915 86.6608 98.1904 86.5059 97.7119 86.5059C97.0693 86.5059 96.5703 86.7383 96.2148 87.2031C95.8639 87.6634 95.6885 88.3311 95.6885 89.2061V89.4453C95.6885 90.2975 95.8639 90.9538 96.2148 91.4141C96.5658 91.8743 97.0671 92.1045 97.7188 92.1045ZM106.646 93C106.574 92.8542 106.514 92.5944 106.469 92.2207C105.881 92.8314 105.179 93.1367 104.363 93.1367C103.634 93.1367 103.035 92.9316 102.565 92.5215C102.101 92.1068 101.868 91.5827 101.868 90.9492C101.868 90.179 102.16 89.582 102.743 89.1582C103.331 88.7298 104.156 88.5156 105.218 88.5156H106.448V87.9346C106.448 87.4925 106.316 87.1416 106.052 86.8818C105.787 86.6175 105.398 86.4854 104.883 86.4854C104.432 86.4854 104.053 86.5993 103.748 86.8271C103.443 87.055 103.29 87.3307 103.29 87.6543H102.019C102.019 87.2852 102.148 86.9297 102.408 86.5879C102.673 86.2415 103.028 85.9681 103.475 85.7676C103.926 85.5671 104.42 85.4668 104.958 85.4668C105.81 85.4668 106.478 85.681 106.961 86.1094C107.444 86.5332 107.695 87.1188 107.713 87.8662V91.2705C107.713 91.9495 107.799 92.4896 107.973 92.8906V93H106.646ZM104.548 92.0361C104.944 92.0361 105.32 91.9336 105.676 91.7285C106.031 91.5234 106.289 91.2568 106.448 90.9287V89.4111H105.457C103.908 89.4111 103.133 89.8646 103.133 90.7715C103.133 91.168 103.265 91.4779 103.529 91.7012C103.794 91.9245 104.133 92.0361 104.548 92.0361ZM110.892 85.6035L110.933 86.5332C111.498 85.8223 112.236 85.4668 113.147 85.4668C114.711 85.4668 115.499 86.3486 115.513 88.1123V93H114.248V88.1055C114.243 87.5723 114.12 87.1781 113.879 86.9229C113.642 86.6676 113.271 86.54 112.765 86.54C112.354 86.54 111.994 86.6494 111.685 86.8682C111.375 87.0869 111.133 87.374 110.96 87.7295V93H109.695V85.6035H110.892ZM120.387 92.1045C120.838 92.1045 121.232 91.9678 121.569 91.6943C121.907 91.4209 122.093 91.0791 122.13 90.6689H123.326C123.303 91.0928 123.158 91.4961 122.889 91.8789C122.62 92.2617 122.26 92.5671 121.809 92.7949C121.362 93.0228 120.888 93.1367 120.387 93.1367C119.38 93.1367 118.577 92.8018 117.98 92.1318C117.388 91.4574 117.092 90.5368 117.092 89.3701V89.1582C117.092 88.4382 117.224 87.7979 117.488 87.2373C117.753 86.6768 118.131 86.2415 118.623 85.9316C119.12 85.6217 119.705 85.4668 120.38 85.4668C121.209 85.4668 121.897 85.7152 122.444 86.2119C122.996 86.7087 123.29 87.3535 123.326 88.1465H122.13C122.093 87.668 121.911 87.276 121.583 86.9707C121.259 86.6608 120.858 86.5059 120.38 86.5059C119.737 86.5059 119.238 86.7383 118.883 87.2031C118.532 87.6634 118.356 88.3311 118.356 89.2061V89.4453C118.356 90.2975 118.532 90.9538 118.883 91.4141C119.234 91.8743 119.735 92.1045 120.387 92.1045ZM127.817 93.1367C126.815 93.1367 125.999 92.8086 125.37 92.1523C124.741 91.4915 124.427 90.6097 124.427 89.5068V89.2744C124.427 88.5407 124.566 87.8867 124.844 87.3125C125.126 86.7337 125.518 86.2826 126.02 85.959C126.525 85.6309 127.072 85.4668 127.66 85.4668C128.622 85.4668 129.369 85.7835 129.902 86.417C130.436 87.0505 130.702 87.9574 130.702 89.1377V89.6641H125.691C125.71 90.3932 125.922 90.9834 126.327 91.4346C126.737 91.8812 127.257 92.1045 127.886 92.1045C128.332 92.1045 128.711 92.0133 129.021 91.8311C129.33 91.6488 129.602 91.4072 129.834 91.1064L130.606 91.708C129.987 92.6605 129.057 93.1367 127.817 93.1367ZM127.66 86.5059C127.15 86.5059 126.721 86.6927 126.375 87.0664C126.029 87.4355 125.814 87.9551 125.732 88.625H129.438V88.5293C129.401 87.8867 129.228 87.39 128.918 87.0391C128.608 86.6836 128.189 86.5059 127.66 86.5059ZM133.546 93H132.281V82.5H133.546V93ZM138.646 93.1367C137.643 93.1367 136.827 92.8086 136.198 92.1523C135.569 91.4915 135.255 90.6097 135.255 89.5068V89.2744C135.255 88.5407 135.394 87.8867 135.672 87.3125C135.954 86.7337 136.346 86.2826 136.848 85.959C137.354 85.6309 137.9 85.4668 138.488 85.4668C139.45 85.4668 140.197 85.7835 140.73 86.417C141.264 87.0505 141.53 87.9574 141.53 89.1377V89.6641H136.52C136.538 90.3932 136.75 90.9834 137.155 91.4346C137.565 91.8812 138.085 92.1045 138.714 92.1045C139.16 92.1045 139.539 92.0133 139.849 91.8311C140.159 91.6488 140.43 91.4072 140.662 91.1064L141.435 91.708C140.815 92.6605 139.885 93.1367 138.646 93.1367ZM138.488 86.5059C137.978 86.5059 137.549 86.6927 137.203 87.0664C136.857 87.4355 136.643 87.9551 136.561 88.625H140.266V88.5293C140.229 87.8867 140.056 87.39 139.746 87.0391C139.436 86.6836 139.017 86.5059 138.488 86.5059ZM142.692 89.2402C142.692 88.1055 142.961 87.194 143.499 86.5059C144.037 85.8132 144.741 85.4668 145.611 85.4668C146.477 85.4668 147.163 85.763 147.669 86.3555V82.5H148.934V93H147.771L147.71 92.207C147.204 92.8268 146.5 93.1367 145.598 93.1367C144.741 93.1367 144.041 92.7858 143.499 92.084C142.961 91.3822 142.692 90.4661 142.692 89.3359V89.2402ZM143.957 89.3838C143.957 90.2223 144.13 90.8786 144.477 91.3525C144.823 91.8265 145.301 92.0635 145.912 92.0635C146.714 92.0635 147.3 91.7035 147.669 90.9834V87.5859C147.291 86.8887 146.71 86.54 145.926 86.54C145.306 86.54 144.823 86.7793 144.477 87.2578C144.13 87.7363 143.957 88.445 143.957 89.3838ZM160.637 89.3838C160.637 90.514 160.377 91.4232 159.857 92.1113C159.338 92.7949 158.641 93.1367 157.766 93.1367C156.831 93.1367 156.109 92.8063 155.599 92.1455L155.537 93H154.375V82.5H155.64V86.417C156.15 85.7835 156.854 85.4668 157.752 85.4668C158.65 85.4668 159.354 85.8063 159.864 86.4854C160.379 87.1644 160.637 88.0941 160.637 89.2744V89.3838ZM159.372 89.2402C159.372 88.3789 159.206 87.7135 158.873 87.2441C158.54 86.7747 158.062 86.54 157.438 86.54C156.604 86.54 156.004 86.9274 155.64 87.7021V90.9014C156.027 91.6761 156.631 92.0635 157.451 92.0635C158.057 92.0635 158.529 91.8288 158.866 91.3594C159.203 90.89 159.372 90.1836 159.372 89.2402ZM161.901 89.2334C161.901 88.5088 162.043 87.8571 162.325 87.2783C162.612 86.6995 163.009 86.2529 163.515 85.9385C164.025 85.624 164.606 85.4668 165.258 85.4668C166.265 85.4668 167.078 85.8154 167.698 86.5127C168.323 87.21 168.635 88.1374 168.635 89.2949V89.3838C168.635 90.1038 168.496 90.751 168.218 91.3252C167.944 91.8949 167.55 92.3392 167.035 92.6582C166.525 92.9772 165.937 93.1367 165.271 93.1367C164.269 93.1367 163.455 92.7881 162.831 92.0908C162.211 91.3936 161.901 90.4707 161.901 89.3223V89.2334ZM163.173 89.3838C163.173 90.2041 163.362 90.8626 163.74 91.3594C164.123 91.8561 164.633 92.1045 165.271 92.1045C165.914 92.1045 166.424 91.8538 166.803 91.3525C167.181 90.8467 167.37 90.1403 167.37 89.2334C167.37 88.4222 167.176 87.766 166.789 87.2646C166.406 86.7588 165.896 86.5059 165.258 86.5059C164.633 86.5059 164.13 86.7542 163.747 87.251C163.364 87.7477 163.173 88.4587 163.173 89.3838ZM169.886 89.2334C169.886 88.5088 170.027 87.8571 170.31 87.2783C170.597 86.6995 170.993 86.2529 171.499 85.9385C172.009 85.624 172.59 85.4668 173.242 85.4668C174.249 85.4668 175.063 85.8154 175.683 86.5127C176.307 87.21 176.619 88.1374 176.619 89.2949V89.3838C176.619 90.1038 176.48 90.751 176.202 91.3252C175.929 91.8949 175.535 92.3392 175.02 92.6582C174.509 92.9772 173.921 93.1367 173.256 93.1367C172.253 93.1367 171.44 92.7881 170.815 92.0908C170.196 91.3936 169.886 90.4707 169.886 89.3223V89.2334ZM171.157 89.3838C171.157 90.2041 171.346 90.8626 171.725 91.3594C172.107 91.8561 172.618 92.1045 173.256 92.1045C173.898 92.1045 174.409 91.8538 174.787 91.3525C175.165 90.8467 175.354 90.1403 175.354 89.2334C175.354 88.4222 175.161 87.766 174.773 87.2646C174.391 86.7588 173.88 86.5059 173.242 86.5059C172.618 86.5059 172.114 86.7542 171.731 87.251C171.349 87.7477 171.157 88.4587 171.157 89.3838ZM180.27 89.5752L179.477 90.4023V93H178.212V82.5H179.477V88.8506L180.153 88.0371L182.457 85.6035H183.995L181.117 88.6934L184.33 93H182.847L180.27 89.5752ZM186.675 93H185.41V85.6035H186.675V93ZM185.308 83.6416C185.308 83.4365 185.369 83.2633 185.492 83.1221C185.62 82.9808 185.807 82.9102 186.053 82.9102C186.299 82.9102 186.486 82.9808 186.613 83.1221C186.741 83.2633 186.805 83.4365 186.805 83.6416C186.805 83.8467 186.741 84.0176 186.613 84.1543C186.486 84.291 186.299 84.3594 186.053 84.3594C185.807 84.3594 185.62 84.291 185.492 84.1543C185.369 84.0176 185.308 83.8467 185.308 83.6416ZM189.901 85.6035L189.942 86.5332C190.507 85.8223 191.246 85.4668 192.157 85.4668C193.72 85.4668 194.509 86.3486 194.522 88.1123V93H193.258V88.1055C193.253 87.5723 193.13 87.1781 192.889 86.9229C192.652 86.6676 192.28 86.54 191.774 86.54C191.364 86.54 191.004 86.6494 190.694 86.8682C190.384 87.0869 190.143 87.374 189.97 87.7295V93H188.705V85.6035H189.901ZM196.129 89.2402C196.129 88.0872 196.396 87.1712 196.929 86.4922C197.462 85.8086 198.168 85.4668 199.048 85.4668C199.95 85.4668 200.654 85.7858 201.16 86.4238L201.222 85.6035H202.377V92.8223C202.377 93.7793 202.092 94.5335 201.522 95.085C200.957 95.6364 200.196 95.9121 199.239 95.9121C198.706 95.9121 198.184 95.7982 197.674 95.5703C197.163 95.3424 196.774 95.0303 196.505 94.6338L197.161 93.875C197.703 94.5449 198.367 94.8799 199.15 94.8799C199.766 94.8799 200.244 94.7067 200.586 94.3604C200.932 94.014 201.105 93.5264 201.105 92.8975V92.2617C200.6 92.8451 199.909 93.1367 199.034 93.1367C198.168 93.1367 197.466 92.7881 196.929 92.0908C196.396 91.3936 196.129 90.4434 196.129 89.2402ZM197.4 89.3838C197.4 90.2178 197.571 90.874 197.913 91.3525C198.255 91.8265 198.733 92.0635 199.349 92.0635C200.146 92.0635 200.732 91.7012 201.105 90.9766V87.5996C200.718 86.8932 200.137 86.54 199.362 86.54C198.747 86.54 198.266 86.7793 197.92 87.2578C197.574 87.7363 197.4 88.445 197.4 89.3838ZM208.598 91.0381C208.598 90.6963 208.468 90.432 208.208 90.2451C207.953 90.0537 207.504 89.8896 206.861 89.7529C206.223 89.6162 205.715 89.4521 205.337 89.2607C204.963 89.0693 204.685 88.8415 204.503 88.5771C204.325 88.3128 204.236 87.9984 204.236 87.6338C204.236 87.0277 204.492 86.515 205.002 86.0957C205.517 85.6764 206.173 85.4668 206.971 85.4668C207.809 85.4668 208.488 85.6833 209.008 86.1162C209.532 86.5492 209.794 87.1029 209.794 87.7773H208.522C208.522 87.431 208.374 87.1325 208.078 86.8818C207.786 86.6312 207.417 86.5059 206.971 86.5059C206.51 86.5059 206.15 86.6061 205.891 86.8066C205.631 87.0072 205.501 87.2692 205.501 87.5928C205.501 87.8981 205.622 88.1283 205.863 88.2832C206.105 88.4382 206.54 88.5863 207.169 88.7275C207.802 88.8688 208.315 89.0374 208.707 89.2334C209.099 89.4294 209.388 89.6663 209.575 89.9443C209.767 90.2178 209.862 90.5527 209.862 90.9492C209.862 91.61 209.598 92.141 209.069 92.542C208.541 92.9385 207.855 93.1367 207.012 93.1367C206.419 93.1367 205.895 93.0319 205.439 92.8223C204.984 92.6126 204.626 92.321 204.366 91.9473C204.111 91.569 203.983 91.1611 203.983 90.7236H205.248C205.271 91.1475 205.439 91.4847 205.754 91.7354C206.073 91.9814 206.492 92.1045 207.012 92.1045C207.49 92.1045 207.873 92.0088 208.16 91.8174C208.452 91.6214 208.598 91.3617 208.598 91.0381Z" fill="black"/>
<path d="M41.7568 50.3447C41.7568 51.3063 41.6042 52.1357 41.2988 52.833C40.9935 53.5257 40.5651 54.068 40.0137 54.46L41.791 55.8545L40.8955 56.6816L38.7969 55.0137C38.4688 55.0957 38.1224 55.1367 37.7578 55.1367C36.974 55.1367 36.279 54.9453 35.6729 54.5625C35.0667 54.1751 34.5951 53.626 34.2578 52.915C33.9251 52.1995 33.7542 51.3724 33.7451 50.4336V49.7158C33.7451 48.7588 33.9115 47.9134 34.2441 47.1797C34.5768 46.446 35.0462 45.8854 35.6523 45.498C36.263 45.1061 36.9603 44.9102 37.7441 44.9102C38.5462 44.9102 39.2503 45.1038 39.8564 45.4912C40.4671 45.8786 40.9365 46.4368 41.2646 47.166C41.5928 47.8906 41.7568 48.7383 41.7568 49.709V50.3447ZM40.4443 49.7021C40.4443 48.5309 40.2096 47.6286 39.7402 46.9951C39.2754 46.3571 38.61 46.0381 37.7441 46.0381C36.9193 46.0381 36.2676 46.3548 35.7891 46.9883C35.3151 47.6172 35.0713 48.4922 35.0576 49.6133V50.3447C35.0576 51.484 35.2946 52.3818 35.7686 53.0381C36.2471 53.6943 36.9102 54.0225 37.7578 54.0225C38.6055 54.0225 39.2617 53.7148 39.7266 53.0996C40.1914 52.4798 40.4307 51.5934 40.4443 50.4404V49.7021ZM47.6084 55H46.3369V46.5713L43.7871 47.5078V46.3594L47.4102 44.999H47.6084V55ZM61.3076 55H54.7861V54.0908L58.2314 50.2627C58.7419 49.6839 59.0928 49.2145 59.2842 48.8545C59.4801 48.4899 59.5781 48.1139 59.5781 47.7266C59.5781 47.207 59.4209 46.7809 59.1064 46.4482C58.792 46.1156 58.3727 45.9492 57.8486 45.9492C57.2197 45.9492 56.7298 46.1292 56.3789 46.4893C56.0326 46.8447 55.8594 47.3415 55.8594 47.9795H54.5947C54.5947 47.0635 54.8887 46.3229 55.4766 45.7578C56.069 45.1927 56.8597 44.9102 57.8486 44.9102C58.7738 44.9102 59.5052 45.154 60.043 45.6416C60.5807 46.1247 60.8496 46.7695 60.8496 47.5762C60.8496 48.556 60.2253 49.7227 58.9766 51.0762L56.3105 53.9678H61.3076V55ZM68.8887 50.7549C68.8887 52.236 68.6357 53.3366 68.1299 54.0566C67.624 54.7767 66.8333 55.1367 65.7578 55.1367C64.696 55.1367 63.9098 54.7858 63.3994 54.084C62.889 53.3776 62.6247 52.3249 62.6064 50.9258V49.2373C62.6064 47.7744 62.8594 46.6875 63.3652 45.9766C63.8711 45.2656 64.6641 44.9102 65.7441 44.9102C66.8151 44.9102 67.6035 45.2542 68.1094 45.9424C68.6152 46.626 68.875 47.6833 68.8887 49.1143V50.7549ZM67.624 49.0254C67.624 47.9544 67.4736 47.1751 67.1729 46.6875C66.8721 46.1953 66.3958 45.9492 65.7441 45.9492C65.097 45.9492 64.6253 46.193 64.3291 46.6807C64.0329 47.1683 63.8802 47.918 63.8711 48.9297V50.9531C63.8711 52.0286 64.026 52.8239 64.3359 53.3389C64.6504 53.8493 65.1243 54.1045 65.7578 54.1045C66.3822 54.1045 66.8447 53.863 67.1455 53.3799C67.4508 52.8968 67.6104 52.1357 67.624 51.0967V49.0254ZM74.665 55H73.3936V46.5713L70.8438 47.5078V46.3594L74.4668 44.999H74.665V55ZM83.2168 50.625C82.9525 50.9395 82.6357 51.1924 82.2666 51.3838C81.902 51.5752 81.501 51.6709 81.0635 51.6709C80.4893 51.6709 79.988 51.5296 79.5596 51.2471C79.1357 50.9645 78.8076 50.568 78.5752 50.0576C78.3428 49.5426 78.2266 48.9753 78.2266 48.3555C78.2266 47.6901 78.3519 47.0908 78.6025 46.5576C78.8577 46.0244 79.2178 45.6165 79.6826 45.334C80.1475 45.0514 80.6898 44.9102 81.3096 44.9102C82.2939 44.9102 83.0687 45.2793 83.6338 46.0176C84.2035 46.7513 84.4883 47.7539 84.4883 49.0254V49.3945C84.4883 51.3314 84.1055 52.7464 83.3398 53.6396C82.5742 54.5283 81.4189 54.984 79.874 55.0068H79.6279V53.9404H79.8945C80.9382 53.9222 81.7402 53.651 82.3008 53.127C82.8613 52.5983 83.1667 51.7643 83.2168 50.625ZM81.2686 50.625C81.6924 50.625 82.082 50.4951 82.4375 50.2354C82.7975 49.9756 83.0596 49.6543 83.2236 49.2715V48.7656C83.2236 47.9362 83.0436 47.2617 82.6836 46.7422C82.3236 46.2227 81.8678 45.9629 81.3164 45.9629C80.7604 45.9629 80.3138 46.1771 79.9766 46.6055C79.6393 47.0293 79.4707 47.5898 79.4707 48.2871C79.4707 48.9661 79.6325 49.5267 79.9561 49.9688C80.2842 50.4062 80.7217 50.625 81.2686 50.625Z" fill="black"/>
<rect x="20.5" y="80.5" width="16" height="16" rx="1.5" stroke="black"/>
<path d="M53.4766 117.842C53.3535 118.895 52.9639 119.708 52.3076 120.282C51.6559 120.852 50.7878 121.137 49.7031 121.137C48.5273 121.137 47.584 120.715 46.873 119.872C46.1667 119.029 45.8135 117.901 45.8135 116.488V115.531C45.8135 114.606 45.9775 113.793 46.3057 113.091C46.6383 112.389 47.1077 111.851 47.7139 111.478C48.32 111.099 49.0218 110.91 49.8193 110.91C50.8766 110.91 51.7243 111.206 52.3623 111.799C53.0003 112.387 53.3717 113.202 53.4766 114.246H52.1572C52.0433 113.453 51.7949 112.879 51.4121 112.523C51.0339 112.168 50.5029 111.99 49.8193 111.99C48.9808 111.99 48.3223 112.3 47.8438 112.92C47.3698 113.54 47.1328 114.422 47.1328 115.565V116.529C47.1328 117.609 47.3584 118.468 47.8096 119.106C48.2607 119.744 48.8919 120.063 49.7031 120.063C50.4323 120.063 50.9906 119.899 51.3779 119.571C51.7699 119.239 52.0296 118.662 52.1572 117.842H53.4766ZM58.207 116.563C57.0814 116.24 56.2611 115.843 55.7461 115.374C55.2357 114.9 54.9805 114.317 54.9805 113.624C54.9805 112.84 55.2926 112.193 55.917 111.683C56.5459 111.168 57.3617 110.91 58.3643 110.91C59.0479 110.91 59.6562 111.042 60.1895 111.307C60.7272 111.571 61.1419 111.936 61.4336 112.4C61.7298 112.865 61.8779 113.373 61.8779 113.925H60.5586C60.5586 113.323 60.3672 112.852 59.9844 112.51C59.6016 112.163 59.0615 111.99 58.3643 111.99C57.7171 111.99 57.2113 112.134 56.8467 112.421C56.4867 112.703 56.3066 113.098 56.3066 113.604C56.3066 114.009 56.4775 114.353 56.8193 114.636C57.1657 114.914 57.7513 115.169 58.5762 115.401C59.4056 115.634 60.0527 115.891 60.5176 116.174C60.987 116.452 61.3333 116.778 61.5566 117.151C61.7845 117.525 61.8984 117.965 61.8984 118.471C61.8984 119.277 61.584 119.924 60.9551 120.412C60.3262 120.895 59.4854 121.137 58.4326 121.137C57.749 121.137 57.111 121.007 56.5186 120.747C55.9261 120.483 55.4681 120.123 55.1445 119.667C54.8255 119.211 54.666 118.694 54.666 118.115H55.9854C55.9854 118.717 56.2064 119.193 56.6484 119.544C57.0951 119.89 57.6898 120.063 58.4326 120.063C59.1253 120.063 59.6562 119.922 60.0254 119.64C60.3945 119.357 60.5791 118.972 60.5791 118.484C60.5791 117.997 60.4082 117.621 60.0664 117.356C59.7246 117.088 59.1048 116.823 58.207 116.563ZM66.8818 119.257L69.7256 111.047H71.1611L67.4697 121H66.3076L62.623 111.047H64.0518L66.8818 119.257Z" fill="black"/>
<rect x="20.5" y="108.5" width="16" height="16" rx="8" stroke="black"/>
<path d="M126.325 111.047H127.645V118.095C127.645 119.047 127.357 119.792 126.783 120.33C126.214 120.868 125.452 121.137 124.5 121.137C123.511 121.137 122.741 120.884 122.189 120.378C121.638 119.872 121.362 119.163 121.362 118.252H122.675C122.675 118.822 122.83 119.266 123.14 119.585C123.454 119.904 123.908 120.063 124.5 120.063C125.042 120.063 125.48 119.893 125.812 119.551C126.15 119.209 126.321 118.73 126.325 118.115V111.047ZM132.812 116.563C131.687 116.24 130.867 115.843 130.352 115.374C129.841 114.9 129.586 114.317 129.586 113.624C129.586 112.84 129.898 112.193 130.522 111.683C131.151 111.168 131.967 110.91 132.97 110.91C133.653 110.91 134.262 111.042 134.795 111.307C135.333 111.571 135.747 111.936 136.039 112.4C136.335 112.865 136.483 113.373 136.483 113.925H135.164C135.164 113.323 134.973 112.852 134.59 112.51C134.207 112.163 133.667 111.99 132.97 111.99C132.323 111.99 131.817 112.134 131.452 112.421C131.092 112.703 130.912 113.098 130.912 113.604C130.912 114.009 131.083 114.353 131.425 114.636C131.771 114.914 132.357 115.169 133.182 115.401C134.011 115.634 134.658 115.891 135.123 116.174C135.592 116.452 135.939 116.778 136.162 117.151C136.39 117.525 136.504 117.965 136.504 118.471C136.504 119.277 136.189 119.924 135.561 120.412C134.932 120.895 134.091 121.137 133.038 121.137C132.354 121.137 131.716 121.007 131.124 120.747C130.532 120.483 130.074 120.123 129.75 119.667C129.431 119.211 129.271 118.694 129.271 118.115H130.591C130.591 118.717 130.812 119.193 131.254 119.544C131.701 119.89 132.295 120.063 133.038 120.063C133.731 120.063 134.262 119.922 134.631 119.64C135 119.357 135.185 118.972 135.185 118.484C135.185 117.997 135.014 117.621 134.672 117.356C134.33 117.088 133.71 116.823 132.812 116.563ZM145.849 116.345C145.849 117.32 145.685 118.172 145.356 118.901C145.028 119.626 144.563 120.18 143.962 120.562C143.36 120.945 142.659 121.137 141.856 121.137C141.073 121.137 140.378 120.945 139.771 120.562C139.165 120.175 138.694 119.626 138.356 118.915C138.024 118.2 137.853 117.372 137.844 116.434V115.716C137.844 114.759 138.01 113.913 138.343 113.18C138.675 112.446 139.145 111.885 139.751 111.498C140.362 111.106 141.059 110.91 141.843 110.91C142.64 110.91 143.342 111.104 143.948 111.491C144.559 111.874 145.028 112.432 145.356 113.166C145.685 113.895 145.849 114.745 145.849 115.716V116.345ZM144.543 115.702C144.543 114.522 144.306 113.617 143.832 112.988C143.358 112.355 142.695 112.038 141.843 112.038C141.013 112.038 140.359 112.355 139.881 112.988C139.407 113.617 139.163 114.492 139.149 115.613V116.345C139.149 117.489 139.389 118.389 139.867 119.045C140.35 119.697 141.013 120.022 141.856 120.022C142.704 120.022 143.36 119.715 143.825 119.1C144.29 118.48 144.529 117.593 144.543 116.44V115.702ZM155.467 121H154.147L149.137 113.33V121H147.817V111.047H149.137L154.161 118.751V111.047H155.467V121Z" fill="black"/>
<rect x="96.5" y="108.5" width="16" height="16" rx="8" stroke="black"/>
<rect x="20.5" y="32.5" width="234" height="35" rx="1.5" stroke="black"/>
<rect x="20" y="136" width="119" height="36" rx="2" fill="black" fill-opacity="0.15"/>
<path d="M231 47L237 53L243 47" stroke="black" stroke-width="2" stroke-linecap="round" stroke-linejoin="round"/>
<path d="M51.1104 154.687H47.1729V157.353H51.7939V159H45.1221V149.047H51.7803V150.708H47.1729V153.08H51.1104V154.687ZM55.6836 153.812L56.9277 151.604H59.04L56.9346 155.227L59.1289 159H57.0098L55.6904 156.676L54.3779 159H52.252L54.4463 155.227L52.3477 151.604H54.4668L55.6836 153.812ZM66.6484 155.37C66.6484 156.509 66.3887 157.423 65.8691 158.111C65.3542 158.795 64.6569 159.137 63.7773 159.137C63.0299 159.137 62.4261 158.877 61.9658 158.357V161.844H59.9902V151.604H61.8223L61.8906 152.328C62.3691 151.754 62.9935 151.467 63.7637 151.467C64.6751 151.467 65.3838 151.804 65.8896 152.479C66.3955 153.153 66.6484 154.083 66.6484 155.268V155.37ZM64.6729 155.227C64.6729 154.538 64.5498 154.007 64.3037 153.634C64.0622 153.26 63.709 153.073 63.2441 153.073C62.6243 153.073 62.1982 153.31 61.9658 153.784V156.812C62.2074 157.3 62.638 157.544 63.2578 157.544C64.2012 157.544 64.6729 156.771 64.6729 155.227ZM67.5713 155.233C67.5713 154.5 67.7126 153.846 67.9951 153.271C68.2777 152.697 68.6833 152.253 69.2119 151.938C69.7451 151.624 70.3626 151.467 71.0645 151.467C72.0625 151.467 72.876 151.772 73.5049 152.383C74.1383 152.993 74.4915 153.823 74.5645 154.871L74.5781 155.377C74.5781 156.512 74.2614 157.423 73.6279 158.111C72.9945 158.795 72.1445 159.137 71.0781 159.137C70.0117 159.137 69.1595 158.795 68.5215 158.111C67.888 157.428 67.5713 156.498 67.5713 155.322V155.233ZM69.5469 155.377C69.5469 156.079 69.679 156.617 69.9434 156.99C70.2077 157.359 70.5859 157.544 71.0781 157.544C71.5566 157.544 71.9303 157.362 72.1992 156.997C72.4681 156.628 72.6025 156.04 72.6025 155.233C72.6025 154.545 72.4681 154.012 72.1992 153.634C71.9303 153.256 71.5521 153.066 71.0645 153.066C70.5814 153.066 70.2077 153.256 69.9434 153.634C69.679 154.007 69.5469 154.589 69.5469 155.377ZM79.9512 153.456C79.6823 153.42 79.4453 153.401 79.2402 153.401C78.4928 153.401 78.0029 153.654 77.7705 154.16V159H75.7949V151.604H77.6611L77.7158 152.485C78.1123 151.806 78.6615 151.467 79.3633 151.467C79.582 151.467 79.7871 151.496 79.9785 151.556L79.9512 153.456ZM83.6152 149.785V151.604H84.8799V153.053H83.6152V156.744C83.6152 157.018 83.6676 157.214 83.7725 157.332C83.8773 157.451 84.0778 157.51 84.374 157.51C84.5928 157.51 84.7865 157.494 84.9551 157.462V158.959C84.5677 159.077 84.1689 159.137 83.7588 159.137C82.3734 159.137 81.667 158.437 81.6396 157.038V153.053H80.5596V151.604H81.6396V149.785H83.6152ZM91.2852 151.604L91.3467 152.458C91.8753 151.797 92.584 151.467 93.4727 151.467C94.2565 151.467 94.8398 151.697 95.2227 152.157C95.6055 152.618 95.8014 153.306 95.8105 154.222V159H93.835V154.27C93.835 153.85 93.7438 153.547 93.5615 153.36C93.3792 153.169 93.0762 153.073 92.6523 153.073C92.0964 153.073 91.6794 153.31 91.4014 153.784V159H89.4258V151.604H91.2852ZM97.0068 155.233C97.0068 154.5 97.1481 153.846 97.4307 153.271C97.7132 152.697 98.1188 152.253 98.6475 151.938C99.1807 151.624 99.7982 151.467 100.5 151.467C101.498 151.467 102.312 151.772 102.94 152.383C103.574 152.993 103.927 153.823 104 154.871L104.014 155.377C104.014 156.512 103.697 157.423 103.063 158.111C102.43 158.795 101.58 159.137 100.514 159.137C99.4473 159.137 98.5951 158.795 97.957 158.111C97.3236 157.428 97.0068 156.498 97.0068 155.322V155.233ZM98.9824 155.377C98.9824 156.079 99.1146 156.617 99.3789 156.99C99.6432 157.359 100.021 157.544 100.514 157.544C100.992 157.544 101.366 157.362 101.635 156.997C101.904 156.628 102.038 156.04 102.038 155.233C102.038 154.545 101.904 154.012 101.635 153.634C101.366 153.256 100.988 153.066 100.5 153.066C100.017 153.066 99.6432 153.256 99.3789 153.634C99.1146 154.007 98.9824 154.589 98.9824 155.377ZM111.663 156.313L112.634 151.604H114.541L112.654 159H111L109.599 154.345L108.197 159H106.55L104.663 151.604H106.57L107.534 156.307L108.888 151.604H110.316L111.663 156.313Z" fill="black"/>
</svg>
