<svg width="32" height="32" viewBox="0 0 32 32" fill="none" xmlns="http://www.w3.org/2000/svg">
<path d="M3.14355 8.57734L16 1.15469L28.8564 8.57734V23.4226L16 30.8453L3.14355 23.4226V8.57734Z" stroke="#030303" stroke-width="2"/>
<path d="M18.8418 19.4473C18.8418 18.8223 18.6204 18.3405 18.1777 18.002C17.7415 17.6634 16.9505 17.3216 15.8047 16.9766C14.6589 16.6315 13.7474 16.2474 13.0703 15.8242C11.7747 15.0104 11.127 13.9492 11.127 12.6406C11.127 11.4948 11.5924 10.5508 12.5234 9.80859C13.4609 9.06641 14.6751 8.69531 16.166 8.69531C17.1556 8.69531 18.0378 8.8776 18.8125 9.24219C19.5872 9.60677 20.196 10.1276 20.6387 10.8047C21.0814 11.4753 21.3027 12.2207 21.3027 13.041H18.8418C18.8418 12.2988 18.6074 11.7194 18.1387 11.3027C17.6764 10.8796 17.0124 10.668 16.1465 10.668C15.3392 10.668 14.7109 10.8405 14.2617 11.1855C13.819 11.5306 13.5977 12.0124 13.5977 12.6309C13.5977 13.1517 13.8385 13.5879 14.3203 13.9395C14.8021 14.2845 15.5964 14.623 16.7031 14.9551C17.8099 15.2806 18.6986 15.6549 19.3691 16.0781C20.0397 16.4948 20.5312 16.9766 20.8438 17.5234C21.1562 18.0638 21.3125 18.6986 21.3125 19.4277C21.3125 20.6126 20.8568 21.5566 19.9453 22.2598C19.0404 22.9564 17.8099 23.3047 16.2539 23.3047C15.2253 23.3047 14.278 23.1159 13.4121 22.7383C12.5527 22.3542 11.8822 21.8268 11.4004 21.1562C10.9251 20.4857 10.6875 19.7044 10.6875 18.8125H13.1582C13.1582 19.6198 13.4251 20.2448 13.959 20.6875C14.4928 21.1302 15.2578 21.3516 16.2539 21.3516C17.1133 21.3516 17.7578 21.179 18.1875 20.834C18.6237 20.4824 18.8418 20.0202 18.8418 19.4473Z" fill="black"/>
</svg>
