<svg width="275" height="205" viewBox="0 0 275 205" fill="none" xmlns="http://www.w3.org/2000/svg">
<rect width="275" height="205" rx="4" fill="white"/>
<path d="M29.06 46.64C29.86 46.64 30.408 46.8 30.704 47.12C31.008 47.44 31.16 48.04 31.16 48.92V53H30.296L30.272 52.1H30.248C29.872 52.78 29.276 53.12 28.46 53.12C27.94 53.12 27.52 52.956 27.2 52.628C26.88 52.292 26.72 51.836 26.72 51.26C26.72 50.532 26.964 49.972 27.452 49.58C27.948 49.18 28.684 48.98 29.66 48.98H30.236V48.68C30.236 48.224 30.148 47.904 29.972 47.72C29.796 47.536 29.492 47.444 29.06 47.444C28.796 47.444 28.46 47.492 28.052 47.588C27.644 47.684 27.3 47.796 27.02 47.924V47.06C27.3 46.94 27.64 46.84 28.04 46.76C28.44 46.68 28.78 46.64 29.06 46.64ZM30.236 49.7H29.66C28.3 49.7 27.62 50.2 27.62 51.2C27.62 51.56 27.712 51.836 27.896 52.028C28.08 52.22 28.328 52.316 28.64 52.316C29.112 52.316 29.496 52.124 29.792 51.74C30.088 51.356 30.236 50.816 30.236 50.12V49.7ZM33.692 52.1H33.668V55.64H32.72V46.76H33.608L33.632 47.66H33.656C34.088 46.98 34.636 46.64 35.3 46.64C36.7 46.64 37.4 47.72 37.4 49.88C37.4 50.96 37.208 51.772 36.824 52.316C36.44 52.852 35.932 53.12 35.3 53.12C34.572 53.12 34.036 52.78 33.692 52.1ZM36.452 49.88C36.452 48.32 35.988 47.54 35.06 47.54C34.652 47.54 34.316 47.74 34.052 48.14C33.796 48.532 33.668 49.092 33.668 49.82V49.94C33.668 50.668 33.796 51.232 34.052 51.632C34.316 52.024 34.652 52.22 35.06 52.22C35.484 52.22 35.82 52.028 36.068 51.644C36.324 51.252 36.452 50.664 36.452 49.88ZM39.692 52.1H39.668V55.64H38.72V46.76H39.608L39.632 47.66H39.656C40.088 46.98 40.636 46.64 41.3 46.64C42.7 46.64 43.4 47.72 43.4 49.88C43.4 50.96 43.208 51.772 42.824 52.316C42.44 52.852 41.932 53.12 41.3 53.12C40.572 53.12 40.036 52.78 39.692 52.1ZM42.452 49.88C42.452 48.32 41.988 47.54 41.06 47.54C40.652 47.54 40.316 47.74 40.052 48.14C39.796 48.532 39.668 49.092 39.668 49.82V49.94C39.668 50.668 39.796 51.232 40.052 51.632C40.316 52.024 40.652 52.22 41.06 52.22C41.484 52.22 41.82 52.028 42.068 51.644C42.324 51.252 42.452 50.664 42.452 49.88ZM46.22 53V51.2H47.78V53H46.22ZM50.6 49.88C50.6 47.72 51.3 46.64 52.7 46.64C53.364 46.64 53.912 46.98 54.344 47.66H54.368L54.392 46.76H55.28V52.94C55.28 53.94 55.076 54.66 54.668 55.1C54.268 55.54 53.652 55.76 52.82 55.76C52.252 55.76 51.692 55.66 51.14 55.46V54.5C51.708 54.788 52.268 54.932 52.82 54.932C53.828 54.932 54.332 54.268 54.332 52.94V51.98H54.308C53.964 52.66 53.428 53 52.7 53C52.06 53 51.548 52.736 51.164 52.208C50.788 51.68 50.6 50.904 50.6 49.88ZM51.548 49.88C51.548 50.616 51.672 51.172 51.92 51.548C52.176 51.916 52.516 52.1 52.94 52.1C53.356 52.1 53.692 51.92 53.948 51.56C54.204 51.192 54.332 50.652 54.332 49.94V49.82C54.332 49.092 54.2 48.532 53.936 48.14C53.68 47.74 53.348 47.54 52.94 47.54C52.476 47.54 52.128 47.728 51.896 48.104C51.664 48.472 51.548 49.064 51.548 49.88ZM57.656 50.192C57.688 50.936 57.84 51.472 58.112 51.8C58.384 52.128 58.78 52.292 59.3 52.292C59.788 52.292 60.328 52.148 60.92 51.86V52.82C60.328 53.02 59.768 53.12 59.24 53.12C57.52 53.12 56.66 52.04 56.66 49.88C56.66 48.752 56.86 47.932 57.26 47.42C57.66 46.9 58.26 46.64 59.06 46.64C59.788 46.64 60.328 46.888 60.68 47.384C61.04 47.88 61.22 48.692 61.22 49.82C61.22 49.908 61.212 50.032 61.196 50.192H57.656ZM57.656 49.4H60.272C60.264 48.112 59.86 47.468 59.06 47.468C58.604 47.468 58.264 47.612 58.04 47.9C57.816 48.188 57.688 48.688 57.656 49.4ZM64.928 47H67.1V47.828H64.928V51.2C64.928 51.648 64.992 51.948 65.12 52.1C65.256 52.244 65.516 52.316 65.9 52.316C66.3 52.316 66.66 52.244 66.98 52.1V52.94C66.596 53.06 66.196 53.12 65.78 53.12C65.108 53.12 64.64 52.992 64.376 52.736C64.112 52.472 63.98 52 63.98 51.32V47.828H62.78V47H63.98V44.72H64.928V47ZM71.828 54.68C70.276 53.24 69.5 51.42 69.5 49.22C69.5 47.02 70.276 45.2 71.828 43.76H72.74C71.172 45.232 70.388 47.052 70.388 49.22C70.388 51.388 71.172 53.208 72.74 54.68H71.828ZM76.34 43.64H77.66L77.36 47H76.64L76.34 43.64ZM85.424 44.24L81.44 53.48H80.564L84.56 44.24H85.424ZM87.656 50.192C87.688 50.936 87.84 51.472 88.112 51.8C88.384 52.128 88.78 52.292 89.3 52.292C89.788 52.292 90.328 52.148 90.92 51.86V52.82C90.328 53.02 89.768 53.12 89.24 53.12C87.52 53.12 86.66 52.04 86.66 49.88C86.66 48.752 86.86 47.932 87.26 47.42C87.66 46.9 88.26 46.64 89.06 46.64C89.788 46.64 90.328 46.888 90.68 47.384C91.04 47.88 91.22 48.692 91.22 49.82C91.22 49.908 91.212 50.032 91.196 50.192H87.656ZM87.656 49.4H90.272C90.264 48.112 89.86 47.468 89.06 47.468C88.604 47.468 88.264 47.612 88.04 47.9C87.816 48.188 87.688 48.688 87.656 49.4ZM95.012 49.34H95.036L96.284 46.76H97.34L95.6 49.88L97.34 53H96.212L94.988 50.42H94.964L93.74 53H92.66L94.4 49.88L92.66 46.76H93.764L95.012 49.34ZM99.692 52.1H99.668V55.64H98.72V46.76H99.608L99.632 47.66H99.656C100.088 46.98 100.636 46.64 101.3 46.64C102.7 46.64 103.4 47.72 103.4 49.88C103.4 50.96 103.208 51.772 102.824 52.316C102.44 52.852 101.932 53.12 101.3 53.12C100.572 53.12 100.036 52.78 99.692 52.1ZM102.452 49.88C102.452 48.32 101.988 47.54 101.06 47.54C100.652 47.54 100.316 47.74 100.052 48.14C99.796 48.532 99.668 49.092 99.668 49.82V49.94C99.668 50.668 99.796 51.232 100.052 51.632C100.316 52.024 100.652 52.22 101.06 52.22C101.484 52.22 101.82 52.028 102.068 51.644C102.324 51.252 102.452 50.664 102.452 49.88ZM104.6 49.88C104.6 47.72 105.4 46.64 107 46.64C108.6 46.64 109.4 47.72 109.4 49.88C109.4 52.04 108.6 53.12 107 53.12C105.4 53.12 104.6 52.04 104.6 49.88ZM105.92 51.752C106.152 52.112 106.512 52.292 107 52.292C107.488 52.292 107.844 52.112 108.068 51.752C108.3 51.384 108.416 50.76 108.416 49.88C108.416 49 108.3 48.38 108.068 48.02C107.844 47.652 107.488 47.468 107 47.468C106.512 47.468 106.152 47.652 105.92 48.02C105.696 48.38 105.584 49 105.584 49.88C105.584 50.76 105.696 51.384 105.92 51.752ZM112.232 46.76V47.96H112.256C112.752 47.08 113.44 46.64 114.32 46.64C114.616 46.64 114.896 46.68 115.16 46.76V47.6C114.88 47.512 114.6 47.468 114.32 47.468C113.736 47.468 113.248 47.712 112.856 48.2C112.464 48.688 112.268 49.328 112.268 50.12V53H111.32V46.76H112.232ZM118.928 47H121.1V47.828H118.928V51.2C118.928 51.648 118.992 51.948 119.12 52.1C119.256 52.244 119.516 52.316 119.9 52.316C120.3 52.316 120.66 52.244 120.98 52.1V52.94C120.596 53.06 120.196 53.12 119.78 53.12C119.108 53.12 118.64 52.992 118.376 52.736C118.112 52.472 117.98 52 117.98 51.32V47.828H116.78V47H117.98V44.72H118.928V47ZM124.22 53V51.2H125.78V53H124.22ZM128.96 49.88C128.96 48.808 129.18 48 129.62 47.456C130.06 46.912 130.68 46.64 131.48 46.64C131.968 46.64 132.468 46.74 132.98 46.94V47.9C132.5 47.636 132.02 47.504 131.54 47.504C131.036 47.504 130.644 47.704 130.364 48.104C130.084 48.504 129.944 49.096 129.944 49.88C129.944 50.688 130.092 51.292 130.388 51.692C130.684 52.092 131.088 52.292 131.6 52.292C132.072 52.292 132.552 52.148 133.04 51.86V52.82C132.528 53.02 132.028 53.12 131.54 53.12C130.724 53.12 130.088 52.852 129.632 52.316C129.184 51.772 128.96 50.96 128.96 49.88ZM137.06 47.444C136.292 47.444 135.908 47.736 135.908 48.32C135.908 48.592 135.992 48.812 136.16 48.98C136.328 49.14 136.628 49.28 137.06 49.4C137.9 49.632 138.46 49.884 138.74 50.156C139.02 50.42 139.16 50.828 139.16 51.38C139.16 51.932 138.972 52.36 138.596 52.664C138.22 52.968 137.688 53.12 137 53.12C136.312 53.12 135.652 52.96 135.02 52.64V51.68C135.644 52.104 136.264 52.316 136.88 52.316C137.768 52.316 138.212 52.004 138.212 51.38C138.212 51.084 138.124 50.856 137.948 50.696C137.78 50.536 137.444 50.384 136.94 50.24C136.204 50.032 135.688 49.784 135.392 49.496C135.104 49.208 134.96 48.816 134.96 48.32C134.96 47.792 135.132 47.38 135.476 47.084C135.828 46.788 136.336 46.64 137 46.64C137.672 46.64 138.312 46.78 138.92 47.06V47.96C138.288 47.616 137.668 47.444 137.06 47.444ZM143.012 52.28H143.036L144.416 46.76H145.4L143.66 53H142.34L140.6 46.76H141.632L143.012 52.28ZM148.34 43.64H149.66L149.36 47H148.64L148.34 43.64ZM154.52 51.2H155.96L154.64 54.56H153.8L154.52 51.2ZM167.828 54.68C166.276 53.24 165.5 51.42 165.5 49.22C165.5 47.02 166.276 45.2 167.828 43.76H168.74C167.172 45.232 166.388 47.052 166.388 49.22C166.388 51.388 167.172 53.208 168.74 54.68H167.828ZM172.232 46.76V47.96H172.256C172.752 47.08 173.44 46.64 174.32 46.64C174.616 46.64 174.896 46.68 175.16 46.76V47.6C174.88 47.512 174.6 47.468 174.32 47.468C173.736 47.468 173.248 47.712 172.856 48.2C172.464 48.688 172.268 49.328 172.268 50.12V53H171.32V46.76H172.232ZM177.656 50.192C177.688 50.936 177.84 51.472 178.112 51.8C178.384 52.128 178.78 52.292 179.3 52.292C179.788 52.292 180.328 52.148 180.92 51.86V52.82C180.328 53.02 179.768 53.12 179.24 53.12C177.52 53.12 176.66 52.04 176.66 49.88C176.66 48.752 176.86 47.932 177.26 47.42C177.66 46.9 178.26 46.64 179.06 46.64C179.788 46.64 180.328 46.888 180.68 47.384C181.04 47.88 181.22 48.692 181.22 49.82C181.22 49.908 181.212 50.032 181.196 50.192H177.656ZM177.656 49.4H180.272C180.264 48.112 179.86 47.468 179.06 47.468C178.604 47.468 178.264 47.612 178.04 47.9C177.816 48.188 177.688 48.688 177.656 49.4ZM186.308 52.1C185.964 52.78 185.428 53.12 184.7 53.12C184.068 53.12 183.56 52.852 183.176 52.316C182.792 51.772 182.6 50.96 182.6 49.88C182.6 47.72 183.3 46.64 184.7 46.64C185.364 46.64 185.912 46.98 186.344 47.66H186.368L186.392 46.76H187.28V55.64H186.332V52.1H186.308ZM183.548 49.88C183.548 50.664 183.672 51.252 183.92 51.644C184.176 52.028 184.516 52.22 184.94 52.22C185.348 52.22 185.68 52.024 185.936 51.632C186.2 51.232 186.332 50.668 186.332 49.94V49.82C186.332 49.092 186.2 48.532 185.936 48.14C185.68 47.74 185.348 47.54 184.94 47.54C184.012 47.54 183.548 48.32 183.548 49.88ZM190.52 51.2H191.96L190.64 54.56H189.8L190.52 51.2ZM202.232 46.76V47.96H202.256C202.752 47.08 203.44 46.64 204.32 46.64C204.616 46.64 204.896 46.68 205.16 46.76V47.6C204.88 47.512 204.6 47.468 204.32 47.468C203.736 47.468 203.248 47.712 202.856 48.2C202.464 48.688 202.268 49.328 202.268 50.12V53H201.32V46.76H202.232ZM207.656 50.192C207.688 50.936 207.84 51.472 208.112 51.8C208.384 52.128 208.78 52.292 209.3 52.292C209.788 52.292 210.328 52.148 210.92 51.86V52.82C210.328 53.02 209.768 53.12 209.24 53.12C207.52 53.12 206.66 52.04 206.66 49.88C206.66 48.752 206.86 47.932 207.26 47.42C207.66 46.9 208.26 46.64 209.06 46.64C209.788 46.64 210.328 46.888 210.68 47.384C211.04 47.88 211.22 48.692 211.22 49.82C211.22 49.908 211.212 50.032 211.196 50.192H207.656ZM207.656 49.4H210.272C210.264 48.112 209.86 47.468 209.06 47.468C208.604 47.468 208.264 47.612 208.04 47.9C207.816 48.188 207.688 48.688 207.656 49.4ZM215.06 47.444C214.292 47.444 213.908 47.736 213.908 48.32C213.908 48.592 213.992 48.812 214.16 48.98C214.328 49.14 214.628 49.28 215.06 49.4C215.9 49.632 216.46 49.884 216.74 50.156C217.02 50.42 217.16 50.828 217.16 51.38C217.16 51.932 216.972 52.36 216.596 52.664C216.22 52.968 215.688 53.12 215 53.12C214.312 53.12 213.652 52.96 213.02 52.64V51.68C213.644 52.104 214.264 52.316 214.88 52.316C215.768 52.316 216.212 52.004 216.212 51.38C216.212 51.084 216.124 50.856 215.948 50.696C215.78 50.536 215.444 50.384 214.94 50.24C214.204 50.032 213.688 49.784 213.392 49.496C213.104 49.208 212.96 48.816 212.96 48.32C212.96 47.792 213.132 47.38 213.476 47.084C213.828 46.788 214.336 46.64 215 46.64C215.672 46.64 216.312 46.78 216.92 47.06V47.96C216.288 47.616 215.668 47.444 215.06 47.444ZM220.172 43.76C221.724 45.2 222.5 47.02 222.5 49.22C222.5 51.42 221.724 53.24 220.172 54.68H219.26C220.828 53.208 221.612 51.388 221.612 49.22C221.612 47.052 220.828 45.232 219.26 43.76H220.172ZM230.72 48.524V47.66H235.28V48.524H230.72ZM230.72 51.02V50.156H235.28V51.02H230.72ZM236.78 46.88V45.92L241.34 48.86V49.82L236.78 52.76V51.8L240.74 49.352V49.328L236.78 46.88ZM250.34 49.208L250.388 49.232C251.036 49.528 251.36 50.124 251.36 51.02V52.64C251.36 53.216 251.424 53.58 251.552 53.732C251.688 53.884 252.004 53.96 252.5 53.96H252.98V54.68H252.2C251.616 54.68 251.184 54.536 250.904 54.248C250.632 53.968 250.496 53.512 250.496 52.88V51.08C250.496 50.552 250.408 50.172 250.232 49.94C250.064 49.7 249.8 49.58 249.44 49.58H248.9V48.86H249.44C249.8 48.86 250.064 48.744 250.232 48.512C250.408 48.272 250.496 47.888 250.496 47.36V45.56C250.496 44.928 250.632 44.472 250.904 44.192C251.184 43.904 251.616 43.76 252.2 43.76H252.98V44.48H252.5C252.004 44.48 251.688 44.556 251.552 44.708C251.424 44.86 251.36 45.224 251.36 45.8V47.42C251.36 47.908 251.28 48.288 251.12 48.56C250.96 48.832 250.7 49.048 250.34 49.208ZM54.272 62H55.22V71H54.332L54.308 70.1H54.284C53.86 70.78 53.312 71.12 52.64 71.12C52.008 71.12 51.5 70.852 51.116 70.316C50.732 69.772 50.54 68.96 50.54 67.88C50.54 65.72 51.24 64.64 52.64 64.64C53.368 64.64 53.904 64.98 54.248 65.66H54.272V62ZM51.488 67.88C51.488 68.664 51.612 69.252 51.86 69.644C52.116 70.028 52.456 70.22 52.88 70.22C53.288 70.22 53.62 70.024 53.876 69.632C54.14 69.232 54.272 68.668 54.272 67.94V67.82C54.272 67.092 54.14 66.532 53.876 66.14C53.62 65.74 53.288 65.54 52.88 65.54C51.952 65.54 51.488 66.32 51.488 67.88ZM57.728 65.66H57.752C58.096 64.98 58.632 64.64 59.36 64.64C60.76 64.64 61.46 65.72 61.46 67.88C61.46 68.96 61.268 69.772 60.884 70.316C60.5 70.852 59.992 71.12 59.36 71.12C58.688 71.12 58.14 70.78 57.716 70.1H57.692L57.668 71H56.78V62H57.728V65.66ZM60.512 67.88C60.512 66.32 60.048 65.54 59.12 65.54C58.712 65.54 58.376 65.74 58.112 66.14C57.856 66.532 57.728 67.092 57.728 67.82V67.94C57.728 68.668 57.856 69.232 58.112 69.632C58.376 70.024 58.712 70.22 59.12 70.22C59.544 70.22 59.88 70.028 60.128 69.644C60.384 69.252 60.512 68.664 60.512 67.88ZM64.22 89V87.2H65.78V89H64.22ZM72.308 88.1C71.964 88.78 71.428 89.12 70.7 89.12C70.068 89.12 69.56 88.852 69.176 88.316C68.792 87.772 68.6 86.96 68.6 85.88C68.6 83.72 69.3 82.64 70.7 82.64C71.364 82.64 71.912 82.98 72.344 83.66H72.368L72.392 82.76H73.28V91.64H72.332V88.1H72.308ZM69.548 85.88C69.548 86.664 69.672 87.252 69.92 87.644C70.176 88.028 70.516 88.22 70.94 88.22C71.348 88.22 71.68 88.024 71.936 87.632C72.2 87.232 72.332 86.668 72.332 85.94V85.82C72.332 85.092 72.2 84.532 71.936 84.14C71.68 83.74 71.348 83.54 70.94 83.54C70.012 83.54 69.548 84.32 69.548 85.88ZM74.78 86.84V82.76H75.704V86.624C75.704 87.288 75.776 87.728 75.92 87.944C76.072 88.16 76.352 88.268 76.76 88.268C77.152 88.268 77.48 88.048 77.744 87.608C78.016 87.168 78.152 86.56 78.152 85.784V82.76H79.1V89H78.212L78.188 88.1H78.164C78.012 88.42 77.788 88.672 77.492 88.856C77.196 89.032 76.872 89.12 76.52 89.12C75.904 89.12 75.46 88.948 75.188 88.604C74.916 88.26 74.78 87.672 74.78 86.84ZM81.656 86.192C81.688 86.936 81.84 87.472 82.112 87.8C82.384 88.128 82.78 88.292 83.3 88.292C83.788 88.292 84.328 88.148 84.92 87.86V88.82C84.328 89.02 83.768 89.12 83.24 89.12C81.52 89.12 80.66 88.04 80.66 85.88C80.66 84.752 80.86 83.932 81.26 83.42C81.66 82.9 82.26 82.64 83.06 82.64C83.788 82.64 84.328 82.888 84.68 83.384C85.04 83.88 85.22 84.692 85.22 85.82C85.22 85.908 85.212 86.032 85.196 86.192H81.656ZM81.656 85.4H84.272C84.264 84.112 83.86 83.468 83.06 83.468C82.604 83.468 82.264 83.612 82.04 83.9C81.816 84.188 81.688 84.688 81.656 85.4ZM88.232 82.76V83.96H88.256C88.752 83.08 89.44 82.64 90.32 82.64C90.616 82.64 90.896 82.68 91.16 82.76V83.6C90.88 83.512 90.6 83.468 90.32 83.468C89.736 83.468 89.248 83.712 88.856 84.2C88.464 84.688 88.268 85.328 88.268 86.12V89H87.32V82.76H88.232ZM95.108 87.56H95.132L96.536 82.76H97.58L94.7 91.64H93.704L94.64 88.88L92.54 82.76H93.596L95.108 87.56ZM101.828 90.68C100.276 89.24 99.5 87.42 99.5 85.22C99.5 83.02 100.276 81.2 101.828 79.76H102.74C101.172 81.232 100.388 83.052 100.388 85.22C100.388 87.388 101.172 89.208 102.74 90.68H101.828ZM106.34 79.64H107.66L107.36 83H106.64L106.34 79.64ZM113.12 80.984C112.744 80.984 112.432 81.108 112.184 81.356C111.944 81.596 111.824 81.904 111.824 82.28C111.824 82.68 111.912 83.012 112.088 83.276C112.264 83.54 112.548 83.76 112.94 83.936C113.828 84.328 114.44 84.74 114.776 85.172C115.112 85.596 115.28 86.152 115.28 86.84C115.28 87.592 115.072 88.16 114.656 88.544C114.248 88.928 113.656 89.12 112.88 89.12C112.152 89.12 111.492 88.9 110.9 88.46V87.32C111.54 87.944 112.22 88.256 112.94 88.256C113.844 88.256 114.296 87.784 114.296 86.84C114.296 86.4 114.192 86.036 113.984 85.748C113.776 85.46 113.428 85.204 112.94 84.98C112.188 84.644 111.648 84.264 111.32 83.84C111 83.408 110.84 82.888 110.84 82.28C110.84 81.64 111.044 81.12 111.452 80.72C111.86 80.32 112.396 80.12 113.06 80.12C113.484 80.12 113.832 80.152 114.104 80.216C114.376 80.28 114.688 80.408 115.04 80.6V81.68C114.424 81.216 113.784 80.984 113.12 80.984ZM117.944 81.104V83.84H120.92V84.68H117.944V88.136H121.04V89H116.96V80.24H121.04V81.104H117.944ZM124.184 80.24V88.136H127.04V89H123.2V80.24H124.184ZM129.944 81.104V83.84H132.92V84.68H129.944V88.136H133.04V89H128.96V80.24H133.04V81.104H129.944ZM134.66 84.62C134.66 83.044 134.9 81.9 135.38 81.188C135.868 80.476 136.588 80.12 137.54 80.12C138.068 80.12 138.568 80.24 139.04 80.48V81.38C138.552 81.116 138.072 80.984 137.6 80.984C136.28 80.984 135.62 82.196 135.62 84.62C135.62 85.932 135.788 86.868 136.124 87.428C136.46 87.98 136.952 88.256 137.6 88.256C138.096 88.256 138.596 88.104 139.1 87.8V88.76C138.628 89 138.108 89.12 137.54 89.12C136.564 89.12 135.84 88.776 135.368 88.088C134.896 87.4 134.66 86.244 134.66 84.62ZM142.508 89V81.14H140.66V80.24H145.34V81.14H143.492V89H142.508ZM154.568 80H155.42L155.384 82.028L157.304 81.368L157.568 82.184L155.636 82.784L156.848 84.404L156.152 84.908L154.988 83.252L153.824 84.908L153.128 84.404L154.34 82.784L152.408 82.184L152.672 81.368L154.592 82.028L154.568 80ZM164.9 83.828V83H166.34V82.28C166.34 81.496 166.472 80.94 166.736 80.612C167 80.284 167.428 80.12 168.02 80.12C168.38 80.12 168.74 80.18 169.1 80.3V81.164C168.796 81.02 168.496 80.948 168.2 80.948C167.824 80.948 167.576 81.044 167.456 81.236C167.344 81.42 167.288 81.848 167.288 82.52V83H169.1V83.828H167.288V89H166.34V83.828H164.9ZM172.232 82.76V83.96H172.256C172.752 83.08 173.44 82.64 174.32 82.64C174.616 82.64 174.896 82.68 175.16 82.76V83.6C174.88 83.512 174.6 83.468 174.32 83.468C173.736 83.468 173.248 83.712 172.856 84.2C172.464 84.688 172.268 85.328 172.268 86.12V89H171.32V82.76H172.232ZM176.6 85.88C176.6 83.72 177.4 82.64 179 82.64C180.6 82.64 181.4 83.72 181.4 85.88C181.4 88.04 180.6 89.12 179 89.12C177.4 89.12 176.6 88.04 176.6 85.88ZM177.92 87.752C178.152 88.112 178.512 88.292 179 88.292C179.488 88.292 179.844 88.112 180.068 87.752C180.3 87.384 180.416 86.76 180.416 85.88C180.416 85 180.3 84.38 180.068 84.02C179.844 83.652 179.488 83.468 179 83.468C178.512 83.468 178.152 83.652 177.92 84.02C177.696 84.38 177.584 85 177.584 85.88C177.584 86.76 177.696 87.384 177.92 87.752ZM185.48 89H184.544V84.68C184.536 84.208 184.492 83.896 184.412 83.744C184.34 83.592 184.212 83.516 184.028 83.516C183.868 83.516 183.728 83.612 183.608 83.804C183.488 83.996 183.388 84.332 183.308 84.812C183.228 85.284 183.188 85.88 183.188 86.6V89H182.24V82.76H183.08L183.104 83.6H183.128C183.264 83.296 183.432 83.06 183.632 82.892C183.84 82.724 184.056 82.64 184.28 82.64C184.528 82.64 184.728 82.716 184.88 82.868C185.04 83.012 185.176 83.256 185.288 83.6H185.312C185.624 82.96 186.04 82.64 186.56 82.64C186.984 82.64 187.288 82.772 187.472 83.036C187.664 83.292 187.76 83.76 187.76 84.44V89H186.836V84.68C186.828 84.208 186.78 83.896 186.692 83.744C186.612 83.592 186.464 83.516 186.248 83.516C186.024 83.516 185.84 83.708 185.696 84.092C185.552 84.468 185.48 85.064 185.48 85.88V89ZM196.928 83H199.1V83.828H196.928V87.2C196.928 87.648 196.992 87.948 197.12 88.1C197.256 88.244 197.516 88.316 197.9 88.316C198.3 88.316 198.66 88.244 198.98 88.1V88.94C198.596 89.06 198.196 89.12 197.78 89.12C197.108 89.12 196.64 88.992 196.376 88.736C196.112 88.472 195.98 88 195.98 87.32V83.828H194.78V83H195.98V80.72H196.928V83ZM203.06 82.64C203.86 82.64 204.408 82.8 204.704 83.12C205.008 83.44 205.16 84.04 205.16 84.92V89H204.296L204.272 88.1H204.248C203.872 88.78 203.276 89.12 202.46 89.12C201.94 89.12 201.52 88.956 201.2 88.628C200.88 88.292 200.72 87.836 200.72 87.26C200.72 86.532 200.964 85.972 201.452 85.58C201.948 85.18 202.684 84.98 203.66 84.98H204.236V84.68C204.236 84.224 204.148 83.904 203.972 83.72C203.796 83.536 203.492 83.444 203.06 83.444C202.796 83.444 202.46 83.492 202.052 83.588C201.644 83.684 201.3 83.796 201.02 83.924V83.06C201.3 82.94 201.64 82.84 202.04 82.76C202.44 82.68 202.78 82.64 203.06 82.64ZM204.236 85.7H203.66C202.3 85.7 201.62 86.2 201.62 87.2C201.62 87.56 201.712 87.836 201.896 88.028C202.08 88.22 202.328 88.316 202.64 88.316C203.112 88.316 203.496 88.124 203.792 87.74C204.088 87.356 204.236 86.816 204.236 86.12V85.7ZM207.728 83.66H207.752C208.096 82.98 208.632 82.64 209.36 82.64C210.76 82.64 211.46 83.72 211.46 85.88C211.46 86.96 211.268 87.772 210.884 88.316C210.5 88.852 209.992 89.12 209.36 89.12C208.688 89.12 208.14 88.78 207.716 88.1H207.692L207.668 89H206.78V80H207.728V83.66ZM210.512 85.88C210.512 84.32 210.048 83.54 209.12 83.54C208.712 83.54 208.376 83.74 208.112 84.14C207.856 84.532 207.728 85.092 207.728 85.82V85.94C207.728 86.668 207.856 87.232 208.112 87.632C208.376 88.024 208.712 88.22 209.12 88.22C209.544 88.22 209.88 88.028 210.128 87.644C210.384 87.252 210.512 86.664 210.512 85.88ZM215.372 87.2C215.372 87.728 215.412 88.044 215.492 88.148C215.58 88.252 215.836 88.304 216.26 88.304C216.524 88.304 216.824 88.28 217.16 88.232V89.06C216.784 89.1 216.444 89.12 216.14 89.12C215.42 89.12 214.948 89.008 214.724 88.784C214.5 88.552 214.388 88.064 214.388 87.32V81.056H212.84V80.24H215.372V87.2ZM219.656 86.192C219.688 86.936 219.84 87.472 220.112 87.8C220.384 88.128 220.78 88.292 221.3 88.292C221.788 88.292 222.328 88.148 222.92 87.86V88.82C222.328 89.02 221.768 89.12 221.24 89.12C219.52 89.12 218.66 88.04 218.66 85.88C218.66 84.752 218.86 83.932 219.26 83.42C219.66 82.9 220.26 82.64 221.06 82.64C221.788 82.64 222.328 82.888 222.68 83.384C223.04 83.88 223.22 84.692 223.22 85.82C223.22 85.908 223.212 86.032 223.196 86.192H219.656ZM219.656 85.4H222.272C222.264 84.112 221.86 83.468 221.06 83.468C220.604 83.468 220.264 83.612 220.04 83.9C219.816 84.188 219.688 84.688 219.656 85.4ZM226.34 79.64H227.66L227.36 83H226.64L226.34 79.64ZM232.172 79.76C233.724 81.2 234.5 83.02 234.5 85.22C234.5 87.42 233.724 89.24 232.172 90.68H231.26C232.828 89.208 233.612 87.388 233.612 85.22C233.612 83.052 232.828 81.232 231.26 79.76H232.172ZM64.22 107V105.2H65.78V107H64.22ZM70.928 101H73.1V101.828H70.928V105.2C70.928 105.648 70.992 105.948 71.12 106.1C71.256 106.244 71.516 106.316 71.9 106.316C72.3 106.316 72.66 106.244 72.98 106.1V106.94C72.596 107.06 72.196 107.12 71.78 107.12C71.108 107.12 70.64 106.992 70.376 106.736C70.112 106.472 69.98 106 69.98 105.32V101.828H68.78V101H69.98V98.72H70.928V101ZM79.28 103.04V107H78.356V103.256C78.356 102.552 78.276 102.084 78.116 101.852C77.956 101.612 77.664 101.492 77.24 101.492C76.84 101.492 76.496 101.716 76.208 102.164C75.928 102.612 75.788 103.216 75.788 103.976V107H74.84V98H75.788V101.66H75.812C75.964 101.348 76.188 101.1 76.484 100.916C76.788 100.732 77.12 100.64 77.48 100.64C78.112 100.64 78.568 100.824 78.848 101.192C79.136 101.552 79.28 102.168 79.28 103.04ZM81.656 104.192C81.688 104.936 81.84 105.472 82.112 105.8C82.384 106.128 82.78 106.292 83.3 106.292C83.788 106.292 84.328 106.148 84.92 105.86V106.82C84.328 107.02 83.768 107.12 83.24 107.12C81.52 107.12 80.66 106.04 80.66 103.88C80.66 102.752 80.86 101.932 81.26 101.42C81.66 100.9 82.26 100.64 83.06 100.64C83.788 100.64 84.328 100.888 84.68 101.384C85.04 101.88 85.22 102.692 85.22 103.82C85.22 103.908 85.212 104.032 85.196 104.192H81.656ZM81.656 103.4H84.272C84.264 102.112 83.86 101.468 83.06 101.468C82.604 101.468 82.264 101.612 82.04 101.9C81.816 102.188 81.688 102.688 81.656 103.4ZM91.28 103.04V107H90.356V103.256C90.356 102.552 90.276 102.084 90.116 101.852C89.956 101.612 89.664 101.492 89.24 101.492C88.84 101.492 88.496 101.716 88.208 102.164C87.928 102.612 87.788 103.216 87.788 103.976V107H86.84V100.76H87.728L87.752 101.66H87.776C87.928 101.356 88.16 101.112 88.472 100.928C88.784 100.736 89.12 100.64 89.48 100.64C90.112 100.64 90.568 100.824 90.848 101.192C91.136 101.552 91.28 102.168 91.28 103.04ZM95.828 108.68C94.276 107.24 93.5 105.42 93.5 103.22C93.5 101.02 94.276 99.2 95.828 97.76H96.74C95.172 99.232 94.388 101.052 94.388 103.22C94.388 105.388 95.172 107.208 96.74 108.68H95.828ZM102.272 98H103.22V107H102.332L102.308 106.1H102.284C101.86 106.78 101.312 107.12 100.64 107.12C100.008 107.12 99.5 106.852 99.116 106.316C98.732 105.772 98.54 104.96 98.54 103.88C98.54 101.72 99.24 100.64 100.64 100.64C101.368 100.64 101.904 100.98 102.248 101.66H102.272V98ZM99.488 103.88C99.488 104.664 99.612 105.252 99.86 105.644C100.116 106.028 100.456 106.22 100.88 106.22C101.288 106.22 101.62 106.024 101.876 105.632C102.14 105.232 102.272 104.668 102.272 103.94V103.82C102.272 103.092 102.14 102.532 101.876 102.14C101.62 101.74 101.288 101.54 100.88 101.54C99.952 101.54 99.488 102.32 99.488 103.88ZM107.06 100.64C107.86 100.64 108.408 100.8 108.704 101.12C109.008 101.44 109.16 102.04 109.16 102.92V107H108.296L108.272 106.1H108.248C107.872 106.78 107.276 107.12 106.46 107.12C105.94 107.12 105.52 106.956 105.2 106.628C104.88 106.292 104.72 105.836 104.72 105.26C104.72 104.532 104.964 103.972 105.452 103.58C105.948 103.18 106.684 102.98 107.66 102.98H108.236V102.68C108.236 102.224 108.148 101.904 107.972 101.72C107.796 101.536 107.492 101.444 107.06 101.444C106.796 101.444 106.46 101.492 106.052 101.588C105.644 101.684 105.3 101.796 105.02 101.924V101.06C105.3 100.94 105.64 100.84 106.04 100.76C106.44 100.68 106.78 100.64 107.06 100.64ZM108.236 103.7H107.66C106.3 103.7 105.62 104.2 105.62 105.2C105.62 105.56 105.712 105.836 105.896 106.028C106.08 106.22 106.328 106.316 106.64 106.316C107.112 106.316 107.496 106.124 107.792 105.74C108.088 105.356 108.236 104.816 108.236 104.12V103.7ZM112.928 101H115.1V101.828H112.928V105.2C112.928 105.648 112.992 105.948 113.12 106.1C113.256 106.244 113.516 106.316 113.9 106.316C114.3 106.316 114.66 106.244 114.98 106.1V106.94C114.596 107.06 114.196 107.12 113.78 107.12C113.108 107.12 112.64 106.992 112.376 106.736C112.112 106.472 111.98 106 111.98 105.32V101.828H110.78V101H111.98V98.72H112.928V101ZM119.06 100.64C119.86 100.64 120.408 100.8 120.704 101.12C121.008 101.44 121.16 102.04 121.16 102.92V107H120.296L120.272 106.1H120.248C119.872 106.78 119.276 107.12 118.46 107.12C117.94 107.12 117.52 106.956 117.2 106.628C116.88 106.292 116.72 105.836 116.72 105.26C116.72 104.532 116.964 103.972 117.452 103.58C117.948 103.18 118.684 102.98 119.66 102.98H120.236V102.68C120.236 102.224 120.148 101.904 119.972 101.72C119.796 101.536 119.492 101.444 119.06 101.444C118.796 101.444 118.46 101.492 118.052 101.588C117.644 101.684 117.3 101.796 117.02 101.924V101.06C117.3 100.94 117.64 100.84 118.04 100.76C118.44 100.68 118.78 100.64 119.06 100.64ZM120.236 103.7H119.66C118.3 103.7 117.62 104.2 117.62 105.2C117.62 105.56 117.712 105.836 117.896 106.028C118.08 106.22 118.328 106.316 118.64 106.316C119.112 106.316 119.496 106.124 119.792 105.74C120.088 105.356 120.236 104.816 120.236 104.12V103.7ZM128.72 102.524V101.66H133.28V102.524H128.72ZM128.72 105.02V104.156H133.28V105.02H128.72ZM134.78 100.88V99.92L139.34 102.86V103.82L134.78 106.76V105.8L138.74 103.352V103.328L134.78 100.88ZM148.34 103.208L148.388 103.232C149.036 103.528 149.36 104.124 149.36 105.02V106.64C149.36 107.216 149.424 107.58 149.552 107.732C149.688 107.884 150.004 107.96 150.5 107.96H150.98V108.68H150.2C149.616 108.68 149.184 108.536 148.904 108.248C148.632 107.968 148.496 107.512 148.496 106.88V105.08C148.496 104.552 148.408 104.172 148.232 103.94C148.064 103.7 147.8 103.58 147.44 103.58H146.9V102.86H147.44C147.8 102.86 148.064 102.744 148.232 102.512C148.408 102.272 148.496 101.888 148.496 101.36V99.56C148.496 98.928 148.632 98.472 148.904 98.192C149.184 97.904 149.616 97.76 150.2 97.76H150.98V98.48H150.5C150.004 98.48 149.688 98.556 149.552 98.708C149.424 98.86 149.36 99.224 149.36 99.8V101.42C149.36 101.908 149.28 102.288 149.12 102.56C148.96 102.832 148.7 103.048 148.34 103.208ZM82.232 118.76V119.96H82.256C82.752 119.08 83.44 118.64 84.32 118.64C84.616 118.64 84.896 118.68 85.16 118.76V119.6C84.88 119.512 84.6 119.468 84.32 119.468C83.736 119.468 83.248 119.712 82.856 120.2C82.464 120.688 82.268 121.328 82.268 122.12V125H81.32V118.76H82.232ZM87.656 122.192C87.688 122.936 87.84 123.472 88.112 123.8C88.384 124.128 88.78 124.292 89.3 124.292C89.788 124.292 90.328 124.148 90.92 123.86V124.82C90.328 125.02 89.768 125.12 89.24 125.12C87.52 125.12 86.66 124.04 86.66 121.88C86.66 120.752 86.86 119.932 87.26 119.42C87.66 118.9 88.26 118.64 89.06 118.64C89.788 118.64 90.328 118.888 90.68 119.384C91.04 119.88 91.22 120.692 91.22 121.82C91.22 121.908 91.212 122.032 91.196 122.192H87.656ZM87.656 121.4H90.272C90.264 120.112 89.86 119.468 89.06 119.468C88.604 119.468 88.264 119.612 88.04 119.9C87.816 120.188 87.688 120.688 87.656 121.4ZM95.06 119.444C94.292 119.444 93.908 119.736 93.908 120.32C93.908 120.592 93.992 120.812 94.16 120.98C94.328 121.14 94.628 121.28 95.06 121.4C95.9 121.632 96.46 121.884 96.74 122.156C97.02 122.42 97.16 122.828 97.16 123.38C97.16 123.932 96.972 124.36 96.596 124.664C96.22 124.968 95.688 125.12 95 125.12C94.312 125.12 93.652 124.96 93.02 124.64V123.68C93.644 124.104 94.264 124.316 94.88 124.316C95.768 124.316 96.212 124.004 96.212 123.38C96.212 123.084 96.124 122.856 95.948 122.696C95.78 122.536 95.444 122.384 94.94 122.24C94.204 122.032 93.688 121.784 93.392 121.496C93.104 121.208 92.96 120.816 92.96 120.32C92.96 119.792 93.132 119.38 93.476 119.084C93.828 118.788 94.336 118.64 95 118.64C95.672 118.64 96.312 118.78 96.92 119.06V119.96C96.288 119.616 95.668 119.444 95.06 119.444ZM100.22 125V123.2H101.78V125H100.22ZM106.232 118.76V119.96H106.256C106.752 119.08 107.44 118.64 108.32 118.64C108.616 118.64 108.896 118.68 109.16 118.76V119.6C108.88 119.512 108.6 119.468 108.32 119.468C107.736 119.468 107.248 119.712 106.856 120.2C106.464 120.688 106.268 121.328 106.268 122.12V125H105.32V118.76H106.232ZM111.656 122.192C111.688 122.936 111.84 123.472 112.112 123.8C112.384 124.128 112.78 124.292 113.3 124.292C113.788 124.292 114.328 124.148 114.92 123.86V124.82C114.328 125.02 113.768 125.12 113.24 125.12C111.52 125.12 110.66 124.04 110.66 121.88C110.66 120.752 110.86 119.932 111.26 119.42C111.66 118.9 112.26 118.64 113.06 118.64C113.788 118.64 114.328 118.888 114.68 119.384C115.04 119.88 115.22 120.692 115.22 121.82C115.22 121.908 115.212 122.032 115.196 122.192H111.656ZM111.656 121.4H114.272C114.264 120.112 113.86 119.468 113.06 119.468C112.604 119.468 112.264 119.612 112.04 119.9C111.816 120.188 111.688 120.688 111.656 121.4ZM121.28 121.04V125H120.356V121.256C120.356 120.552 120.276 120.084 120.116 119.852C119.956 119.612 119.664 119.492 119.24 119.492C118.84 119.492 118.496 119.716 118.208 120.164C117.928 120.612 117.788 121.216 117.788 121.976V125H116.84V118.76H117.728L117.752 119.66H117.776C117.928 119.356 118.16 119.112 118.472 118.928C118.784 118.736 119.12 118.64 119.48 118.64C120.112 118.64 120.568 118.824 120.848 119.192C121.136 119.552 121.28 120.168 121.28 121.04ZM126.272 116H127.22V125H126.332L126.308 124.1H126.284C125.86 124.78 125.312 125.12 124.64 125.12C124.008 125.12 123.5 124.852 123.116 124.316C122.732 123.772 122.54 122.96 122.54 121.88C122.54 119.72 123.24 118.64 124.64 118.64C125.368 118.64 125.904 118.98 126.248 119.66H126.272V116ZM123.488 121.88C123.488 122.664 123.612 123.252 123.86 123.644C124.116 124.028 124.456 124.22 124.88 124.22C125.288 124.22 125.62 124.024 125.876 123.632C126.14 123.232 126.272 122.668 126.272 121.94V121.82C126.272 121.092 126.14 120.532 125.876 120.14C125.62 119.74 125.288 119.54 124.88 119.54C123.952 119.54 123.488 120.32 123.488 121.88ZM129.656 122.192C129.688 122.936 129.84 123.472 130.112 123.8C130.384 124.128 130.78 124.292 131.3 124.292C131.788 124.292 132.328 124.148 132.92 123.86V124.82C132.328 125.02 131.768 125.12 131.24 125.12C129.52 125.12 128.66 124.04 128.66 121.88C128.66 120.752 128.86 119.932 129.26 119.42C129.66 118.9 130.26 118.64 131.06 118.64C131.788 118.64 132.328 118.888 132.68 119.384C133.04 119.88 133.22 120.692 133.22 121.82C133.22 121.908 133.212 122.032 133.196 122.192H129.656ZM129.656 121.4H132.272C132.264 120.112 131.86 119.468 131.06 119.468C130.604 119.468 130.264 119.612 130.04 119.9C129.816 120.188 129.688 120.688 129.656 121.4ZM136.232 118.76V119.96H136.256C136.752 119.08 137.44 118.64 138.32 118.64C138.616 118.64 138.896 118.68 139.16 118.76V119.6C138.88 119.512 138.6 119.468 138.32 119.468C137.736 119.468 137.248 119.712 136.856 120.2C136.464 120.688 136.268 121.328 136.268 122.12V125H135.32V118.76H136.232ZM143.828 126.68C142.276 125.24 141.5 123.42 141.5 121.22C141.5 119.02 142.276 117.2 143.828 115.76H144.74C143.172 117.232 142.388 119.052 142.388 121.22C142.388 123.388 143.172 125.208 144.74 126.68H143.828ZM148.34 115.64H149.66L149.36 119H148.64L148.34 115.64ZM152.96 121.88C152.96 120.808 153.18 120 153.62 119.456C154.06 118.912 154.68 118.64 155.48 118.64C155.968 118.64 156.468 118.74 156.98 118.94V119.9C156.5 119.636 156.02 119.504 155.54 119.504C155.036 119.504 154.644 119.704 154.364 120.104C154.084 120.504 153.944 121.096 153.944 121.88C153.944 122.688 154.092 123.292 154.388 123.692C154.684 124.092 155.088 124.292 155.6 124.292C156.072 124.292 156.552 124.148 157.04 123.86V124.82C156.528 125.02 156.028 125.12 155.54 125.12C154.724 125.12 154.088 124.852 153.632 124.316C153.184 123.772 152.96 122.96 152.96 121.88ZM161.06 119.444C160.292 119.444 159.908 119.736 159.908 120.32C159.908 120.592 159.992 120.812 160.16 120.98C160.328 121.14 160.628 121.28 161.06 121.4C161.9 121.632 162.46 121.884 162.74 122.156C163.02 122.42 163.16 122.828 163.16 123.38C163.16 123.932 162.972 124.36 162.596 124.664C162.22 124.968 161.688 125.12 161 125.12C160.312 125.12 159.652 124.96 159.02 124.64V123.68C159.644 124.104 160.264 124.316 160.88 124.316C161.768 124.316 162.212 124.004 162.212 123.38C162.212 123.084 162.124 122.856 161.948 122.696C161.78 122.536 161.444 122.384 160.94 122.24C160.204 122.032 159.688 121.784 159.392 121.496C159.104 121.208 158.96 120.816 158.96 120.32C158.96 119.792 159.132 119.38 159.476 119.084C159.828 118.788 160.336 118.64 161 118.64C161.672 118.64 162.312 118.78 162.92 119.06V119.96C162.288 119.616 161.668 119.444 161.06 119.444ZM167.012 124.28H167.036L168.416 118.76H169.4L167.66 125H166.34L164.6 118.76H165.632L167.012 124.28ZM172.34 115.64H173.66L173.36 119H172.64L172.34 115.64ZM178.52 123.2H179.96L178.64 126.56H177.8L178.52 123.2ZM192.272 116H193.22V125H192.332L192.308 124.1H192.284C191.86 124.78 191.312 125.12 190.64 125.12C190.008 125.12 189.5 124.852 189.116 124.316C188.732 123.772 188.54 122.96 188.54 121.88C188.54 119.72 189.24 118.64 190.64 118.64C191.368 118.64 191.904 118.98 192.248 119.66H192.272V116ZM189.488 121.88C189.488 122.664 189.612 123.252 189.86 123.644C190.116 124.028 190.456 124.22 190.88 124.22C191.288 124.22 191.62 124.024 191.876 123.632C192.14 123.232 192.272 122.668 192.272 121.94V121.82C192.272 121.092 192.14 120.532 191.876 120.14C191.62 119.74 191.288 119.54 190.88 119.54C189.952 119.54 189.488 120.32 189.488 121.88ZM197.06 118.64C197.86 118.64 198.408 118.8 198.704 119.12C199.008 119.44 199.16 120.04 199.16 120.92V125H198.296L198.272 124.1H198.248C197.872 124.78 197.276 125.12 196.46 125.12C195.94 125.12 195.52 124.956 195.2 124.628C194.88 124.292 194.72 123.836 194.72 123.26C194.72 122.532 194.964 121.972 195.452 121.58C195.948 121.18 196.684 120.98 197.66 120.98H198.236V120.68C198.236 120.224 198.148 119.904 197.972 119.72C197.796 119.536 197.492 119.444 197.06 119.444C196.796 119.444 196.46 119.492 196.052 119.588C195.644 119.684 195.3 119.796 195.02 119.924V119.06C195.3 118.94 195.64 118.84 196.04 118.76C196.44 118.68 196.78 118.64 197.06 118.64ZM198.236 121.7H197.66C196.3 121.7 195.62 122.2 195.62 123.2C195.62 123.56 195.712 123.836 195.896 124.028C196.08 124.22 196.328 124.316 196.64 124.316C197.112 124.316 197.496 124.124 197.792 123.74C198.088 123.356 198.236 122.816 198.236 122.12V121.7ZM202.928 119H205.1V119.828H202.928V123.2C202.928 123.648 202.992 123.948 203.12 124.1C203.256 124.244 203.516 124.316 203.9 124.316C204.3 124.316 204.66 124.244 204.98 124.1V124.94C204.596 125.06 204.196 125.12 203.78 125.12C203.108 125.12 202.64 124.992 202.376 124.736C202.112 124.472 201.98 124 201.98 123.32V119.828H200.78V119H201.98V116.72H202.928V119ZM209.06 118.64C209.86 118.64 210.408 118.8 210.704 119.12C211.008 119.44 211.16 120.04 211.16 120.92V125H210.296L210.272 124.1H210.248C209.872 124.78 209.276 125.12 208.46 125.12C207.94 125.12 207.52 124.956 207.2 124.628C206.88 124.292 206.72 123.836 206.72 123.26C206.72 122.532 206.964 121.972 207.452 121.58C207.948 121.18 208.684 120.98 209.66 120.98H210.236V120.68C210.236 120.224 210.148 119.904 209.972 119.72C209.796 119.536 209.492 119.444 209.06 119.444C208.796 119.444 208.46 119.492 208.052 119.588C207.644 119.684 207.3 119.796 207.02 119.924V119.06C207.3 118.94 207.64 118.84 208.04 118.76C208.44 118.68 208.78 118.64 209.06 118.64ZM210.236 121.7H209.66C208.3 121.7 207.62 122.2 207.62 123.2C207.62 123.56 207.712 123.836 207.896 124.028C208.08 124.22 208.328 124.316 208.64 124.316C209.112 124.316 209.496 124.124 209.792 123.74C210.088 123.356 210.236 122.816 210.236 122.12V121.7ZM214.172 115.76C215.724 117.2 216.5 119.02 216.5 121.22C216.5 123.42 215.724 125.24 214.172 126.68H213.26C214.828 125.208 215.612 123.388 215.612 121.22C215.612 119.052 214.828 117.232 213.26 115.76H214.172ZM65.66 139.208C65.3 139.048 65.04 138.832 64.88 138.56C64.72 138.288 64.64 137.908 64.64 137.42V135.8C64.64 135.224 64.572 134.86 64.436 134.708C64.308 134.556 63.996 134.48 63.5 134.48H63.02V133.76H63.8C64.384 133.76 64.812 133.904 65.084 134.192C65.364 134.472 65.504 134.928 65.504 135.56V137.36C65.504 137.888 65.588 138.272 65.756 138.512C65.932 138.744 66.2 138.86 66.56 138.86H67.1V139.58H66.56C66.2 139.58 65.932 139.7 65.756 139.94C65.588 140.172 65.504 140.552 65.504 141.08V142.88C65.504 143.512 65.364 143.968 65.084 144.248C64.812 144.536 64.384 144.68 63.8 144.68H63.02V143.96H63.5C63.996 143.96 64.308 143.884 64.436 143.732C64.572 143.58 64.64 143.216 64.64 142.64V141.02C64.64 140.124 64.964 139.528 65.612 139.232L65.66 139.208ZM70.172 133.76C71.724 135.2 72.5 137.02 72.5 139.22C72.5 141.42 71.724 143.24 70.172 144.68H69.26C70.828 143.208 71.612 141.388 71.612 139.22C71.612 137.052 70.828 135.232 69.26 133.76H70.172ZM29.66 157.208C29.3 157.048 29.04 156.832 28.88 156.56C28.72 156.288 28.64 155.908 28.64 155.42V153.8C28.64 153.224 28.572 152.86 28.436 152.708C28.308 152.556 27.996 152.48 27.5 152.48H27.02V151.76H27.8C28.384 151.76 28.812 151.904 29.084 152.192C29.364 152.472 29.504 152.928 29.504 153.56V155.36C29.504 155.888 29.588 156.272 29.756 156.512C29.932 156.744 30.2 156.86 30.56 156.86H31.1V157.58H30.56C30.2 157.58 29.932 157.7 29.756 157.94C29.588 158.172 29.504 158.552 29.504 159.08V160.88C29.504 161.512 29.364 161.968 29.084 162.248C28.812 162.536 28.384 162.68 27.8 162.68H27.02V161.96H27.5C27.996 161.96 28.308 161.884 28.436 161.732C28.572 161.58 28.64 161.216 28.64 160.64V159.02C28.64 158.124 28.964 157.528 29.612 157.232L29.66 157.208ZM34.172 151.76C35.724 153.2 36.5 155.02 36.5 157.22C36.5 159.42 35.724 161.24 34.172 162.68H33.26C34.828 161.208 35.612 159.388 35.612 157.22C35.612 155.052 34.828 153.232 33.26 151.76H34.172Z" fill="black"/>
</svg>
