<svg width="275" height="205" viewBox="0 0 275 205" fill="none" xmlns="http://www.w3.org/2000/svg">
<rect width="275" height="205" rx="4" fill="white"/>
<rect x="33" y="62" width="210" height="36" fill="white" stroke="#C1C1D8"/>
<path d="M46.2578 74.625L49.9766 83.9062L53.6953 74.625H55.6406V86H54.1406V81.5703L54.2812 76.7891L50.5469 86H49.3984L45.6719 76.8125L45.8203 81.5703V86H44.3203V74.625H46.2578ZM60.8281 83.8828L62.7969 77.5469H64.3438L60.9453 87.3047C60.4193 88.7109 59.5833 89.4141 58.4375 89.4141L58.1641 89.3906L57.625 89.2891V88.1172L58.0156 88.1484C58.5052 88.1484 58.8854 88.0495 59.1562 87.8516C59.4323 87.6536 59.6589 87.2917 59.8359 86.7656L60.1562 85.9062L57.1406 77.5469H58.7188L60.8281 83.8828ZM70.9766 77.5469L71.0234 78.6094C71.6693 77.7969 72.513 77.3906 73.5547 77.3906C75.3411 77.3906 76.2422 78.3984 76.2578 80.4141V86H74.8125V80.4062C74.8073 79.7969 74.6667 79.3464 74.3906 79.0547C74.1198 78.763 73.6953 78.6172 73.1172 78.6172C72.6484 78.6172 72.237 78.7422 71.8828 78.9922C71.5286 79.2422 71.2526 79.5703 71.0547 79.9766V86H69.6094V77.5469H70.9766ZM81.9453 86.1562C80.7995 86.1562 79.8672 85.7812 79.1484 85.0312C78.4297 84.276 78.0703 83.2682 78.0703 82.0078V81.7422C78.0703 80.9036 78.2292 80.1562 78.5469 79.5C78.8698 78.8385 79.3177 78.3229 79.8906 77.9531C80.4688 77.5781 81.0938 77.3906 81.7656 77.3906C82.8646 77.3906 83.7188 77.7526 84.3281 78.4766C84.9375 79.2005 85.2422 80.237 85.2422 81.5859V82.1875H79.5156C79.5365 83.0208 79.7786 83.6953 80.2422 84.2109C80.7109 84.7214 81.3047 84.9766 82.0234 84.9766C82.5339 84.9766 82.9661 84.8724 83.3203 84.6641C83.6745 84.4557 83.9844 84.1797 84.25 83.8359L85.1328 84.5234C84.4245 85.612 83.362 86.1562 81.9453 86.1562ZM81.7656 78.5781C81.1823 78.5781 80.6927 78.7917 80.2969 79.2188C79.901 79.6406 79.6562 80.2344 79.5625 81H83.7969V80.8906C83.7552 80.1562 83.5573 79.5885 83.2031 79.1875C82.849 78.7812 82.3698 78.5781 81.7656 78.5781ZM94.4062 84.0078L96.0312 77.5469H97.4766L95.0156 86H93.8438L91.7891 79.5938L89.7891 86H88.6172L86.1641 77.5469H87.6016L89.2656 83.875L91.2344 77.5469H92.3984L94.4062 84.0078ZM108.141 86C108.057 85.8333 107.99 85.5365 107.938 85.1094C107.266 85.8073 106.464 86.1562 105.531 86.1562C104.698 86.1562 104.013 85.9219 103.477 85.4531C102.945 84.9792 102.68 84.3802 102.68 83.6562C102.68 82.776 103.013 82.0938 103.68 81.6094C104.352 81.1198 105.294 80.875 106.508 80.875H107.914V80.2109C107.914 79.7057 107.763 79.3047 107.461 79.0078C107.159 78.7057 106.714 78.5547 106.125 78.5547C105.609 78.5547 105.177 78.6849 104.828 78.9453C104.479 79.2057 104.305 79.5208 104.305 79.8906H102.852C102.852 79.4688 103 79.0625 103.297 78.6719C103.599 78.276 104.005 77.9635 104.516 77.7344C105.031 77.5052 105.596 77.3906 106.211 77.3906C107.185 77.3906 107.948 77.6354 108.5 78.125C109.052 78.6094 109.339 79.2786 109.359 80.1328V84.0234C109.359 84.7995 109.458 85.4167 109.656 85.875V86H108.141ZM105.742 84.8984C106.195 84.8984 106.625 84.7812 107.031 84.5469C107.438 84.3125 107.732 84.0078 107.914 83.6328V81.8984H106.781C105.01 81.8984 104.125 82.4167 104.125 83.4531C104.125 83.9062 104.276 84.2604 104.578 84.5156C104.88 84.7708 105.268 84.8984 105.742 84.8984ZM118.766 81.8672C118.766 83.1536 118.471 84.1901 117.883 84.9766C117.294 85.763 116.497 86.1562 115.492 86.1562C114.466 86.1562 113.659 85.8307 113.07 85.1797V89.25H111.625V77.5469H112.945L113.016 78.4844C113.604 77.7552 114.422 77.3906 115.469 77.3906C116.484 77.3906 117.286 77.7734 117.875 78.5391C118.469 79.3047 118.766 80.3698 118.766 81.7344V81.8672ZM117.32 81.7031C117.32 80.75 117.117 79.9974 116.711 79.4453C116.305 78.8932 115.747 78.6172 115.039 78.6172C114.164 78.6172 113.508 79.0052 113.07 79.7812V83.8203C113.503 84.5911 114.164 84.9766 115.055 84.9766C115.747 84.9766 116.297 84.7031 116.703 84.1562C117.115 83.6042 117.32 82.7865 117.32 81.7031ZM127.75 81.8672C127.75 83.1536 127.456 84.1901 126.867 84.9766C126.279 85.763 125.482 86.1562 124.477 86.1562C123.451 86.1562 122.643 85.8307 122.055 85.1797V89.25H120.609V77.5469H121.93L122 78.4844C122.589 77.7552 123.406 77.3906 124.453 77.3906C125.469 77.3906 126.271 77.7734 126.859 78.5391C127.453 79.3047 127.75 80.3698 127.75 81.7344V81.8672ZM126.305 81.7031C126.305 80.75 126.102 79.9974 125.695 79.4453C125.289 78.8932 124.732 78.6172 124.023 78.6172C123.148 78.6172 122.492 79.0052 122.055 79.7812V83.8203C122.487 84.5911 123.148 84.9766 124.039 84.9766C124.732 84.9766 125.281 84.7031 125.688 84.1562C126.099 83.6042 126.305 82.7865 126.305 81.7031Z" fill="black"/>
<rect x="33" y="106" width="112" height="36" rx="4" fill="#6660FF"/>
<path d="M59.4219 126.211C59.3333 127.435 58.8802 128.398 58.0625 129.102C57.25 129.805 56.1771 130.156 54.8438 130.156C53.3854 130.156 52.237 129.667 51.3984 128.688C50.5651 127.703 50.1484 126.354 50.1484 124.641V123.945C50.1484 122.852 50.3411 121.888 50.7266 121.055C51.112 120.221 51.6615 119.583 52.375 119.141C53.0938 118.693 53.9271 118.469 54.875 118.469C56.1875 118.469 57.2448 118.82 58.0469 119.523C58.849 120.227 59.3125 121.214 59.4375 122.484H57.0938C57.0365 121.75 56.8307 121.219 56.4766 120.891C56.1276 120.557 55.5938 120.391 54.875 120.391C54.0938 120.391 53.5078 120.672 53.1172 121.234C52.7318 121.792 52.5339 122.659 52.5234 123.836V124.695C52.5234 125.924 52.7083 126.823 53.0781 127.391C53.4531 127.958 54.0417 128.242 54.8438 128.242C55.5677 128.242 56.1068 128.078 56.4609 127.75C56.8203 127.417 57.026 126.904 57.0781 126.211H59.4219ZM65.5625 123.664C65.2552 123.622 64.9844 123.602 64.75 123.602C63.8958 123.602 63.3359 123.891 63.0703 124.469V130H60.8125V121.547H62.9453L63.0078 122.555C63.4609 121.779 64.0885 121.391 64.8906 121.391C65.1406 121.391 65.375 121.424 65.5938 121.492L65.5625 123.664ZM70.3906 130.156C69.151 130.156 68.1406 129.776 67.3594 129.016C66.5833 128.255 66.1953 127.242 66.1953 125.977V125.758C66.1953 124.909 66.3594 124.151 66.6875 123.484C67.0156 122.812 67.4792 122.297 68.0781 121.938C68.6823 121.573 69.3698 121.391 70.1406 121.391C71.2969 121.391 72.2057 121.755 72.8672 122.484C73.5339 123.214 73.8672 124.247 73.8672 125.586V126.508H68.4844C68.5573 127.06 68.776 127.503 69.1406 127.836C69.5104 128.169 69.9766 128.336 70.5391 128.336C71.4089 128.336 72.0885 128.021 72.5781 127.391L73.6875 128.633C73.349 129.112 72.8906 129.487 72.3125 129.758C71.7344 130.023 71.0938 130.156 70.3906 130.156ZM70.1328 123.219C69.6849 123.219 69.3203 123.37 69.0391 123.672C68.763 123.974 68.5859 124.406 68.5078 124.969H71.6484V124.789C71.638 124.289 71.5026 123.904 71.2422 123.633C70.9818 123.357 70.612 123.219 70.1328 123.219ZM80.0547 130C79.9505 129.797 79.875 129.544 79.8281 129.242C79.2812 129.852 78.5703 130.156 77.6953 130.156C76.8672 130.156 76.1797 129.917 75.6328 129.438C75.0911 128.958 74.8203 128.354 74.8203 127.625C74.8203 126.729 75.151 126.042 75.8125 125.562C76.4792 125.083 77.4401 124.841 78.6953 124.836H79.7344V124.352C79.7344 123.961 79.6328 123.648 79.4297 123.414C79.2318 123.18 78.9167 123.062 78.4844 123.062C78.1042 123.062 77.8047 123.154 77.5859 123.336C77.3724 123.518 77.2656 123.768 77.2656 124.086H75.0078C75.0078 123.596 75.1589 123.143 75.4609 122.727C75.763 122.31 76.1901 121.984 76.7422 121.75C77.2943 121.51 77.9141 121.391 78.6016 121.391C79.6432 121.391 80.4688 121.654 81.0781 122.18C81.6927 122.701 82 123.435 82 124.383V128.047C82.0052 128.849 82.1172 129.456 82.3359 129.867V130H80.0547ZM78.1875 128.43C78.5208 128.43 78.8281 128.357 79.1094 128.211C79.3906 128.06 79.599 127.859 79.7344 127.609V126.156H78.8906C77.7604 126.156 77.1589 126.547 77.0859 127.328L77.0781 127.461C77.0781 127.742 77.1771 127.974 77.375 128.156C77.5729 128.339 77.8438 128.43 78.1875 128.43ZM86.4375 119.469V121.547H87.8828V123.203H86.4375V127.422C86.4375 127.734 86.4974 127.958 86.6172 128.094C86.737 128.229 86.9661 128.297 87.3047 128.297C87.5547 128.297 87.776 128.279 87.9688 128.242V129.953C87.526 130.089 87.0703 130.156 86.6016 130.156C85.0182 130.156 84.2109 129.357 84.1797 127.758V123.203H82.9453V121.547H84.1797V119.469H86.4375ZM93.0312 130.156C91.7917 130.156 90.7812 129.776 90 129.016C89.224 128.255 88.8359 127.242 88.8359 125.977V125.758C88.8359 124.909 89 124.151 89.3281 123.484C89.6562 122.812 90.1198 122.297 90.7188 121.938C91.3229 121.573 92.0104 121.391 92.7812 121.391C93.9375 121.391 94.8464 121.755 95.5078 122.484C96.1745 123.214 96.5078 124.247 96.5078 125.586V126.508H91.125C91.1979 127.06 91.4167 127.503 91.7812 127.836C92.151 128.169 92.6172 128.336 93.1797 128.336C94.0495 128.336 94.7292 128.021 95.2188 127.391L96.3281 128.633C95.9896 129.112 95.5312 129.487 94.9531 129.758C94.375 130.023 93.7344 130.156 93.0312 130.156ZM92.7734 123.219C92.3255 123.219 91.9609 123.37 91.6797 123.672C91.4036 123.974 91.2266 124.406 91.1484 124.969H94.2891V124.789C94.2786 124.289 94.1432 123.904 93.8828 123.633C93.6224 123.357 93.2526 123.219 92.7734 123.219ZM106.68 130C106.576 129.797 106.5 129.544 106.453 129.242C105.906 129.852 105.195 130.156 104.32 130.156C103.492 130.156 102.805 129.917 102.258 129.438C101.716 128.958 101.445 128.354 101.445 127.625C101.445 126.729 101.776 126.042 102.438 125.562C103.104 125.083 104.065 124.841 105.32 124.836H106.359V124.352C106.359 123.961 106.258 123.648 106.055 123.414C105.857 123.18 105.542 123.062 105.109 123.062C104.729 123.062 104.43 123.154 104.211 123.336C103.997 123.518 103.891 123.768 103.891 124.086H101.633C101.633 123.596 101.784 123.143 102.086 122.727C102.388 122.31 102.815 121.984 103.367 121.75C103.919 121.51 104.539 121.391 105.227 121.391C106.268 121.391 107.094 121.654 107.703 122.18C108.318 122.701 108.625 123.435 108.625 124.383V128.047C108.63 128.849 108.742 129.456 108.961 129.867V130H106.68ZM104.812 128.43C105.146 128.43 105.453 128.357 105.734 128.211C106.016 128.06 106.224 127.859 106.359 127.609V126.156H105.516C104.385 126.156 103.784 126.547 103.711 127.328L103.703 127.461C103.703 127.742 103.802 127.974 104 128.156C104.198 128.339 104.469 128.43 104.812 128.43ZM117.969 125.852C117.969 127.154 117.672 128.198 117.078 128.984C116.49 129.766 115.693 130.156 114.688 130.156C113.833 130.156 113.143 129.859 112.617 129.266V133.25H110.359V121.547H112.453L112.531 122.375C113.078 121.719 113.792 121.391 114.672 121.391C115.714 121.391 116.523 121.776 117.102 122.547C117.68 123.318 117.969 124.38 117.969 125.734V125.852ZM115.711 125.688C115.711 124.901 115.57 124.294 115.289 123.867C115.013 123.44 114.609 123.227 114.078 123.227C113.37 123.227 112.883 123.497 112.617 124.039V127.5C112.893 128.057 113.385 128.336 114.094 128.336C115.172 128.336 115.711 127.453 115.711 125.688ZM126.984 125.852C126.984 127.154 126.688 128.198 126.094 128.984C125.505 129.766 124.708 130.156 123.703 130.156C122.849 130.156 122.159 129.859 121.633 129.266V133.25H119.375V121.547H121.469L121.547 122.375C122.094 121.719 122.807 121.391 123.688 121.391C124.729 121.391 125.539 121.776 126.117 122.547C126.695 123.318 126.984 124.38 126.984 125.734V125.852ZM124.727 125.688C124.727 124.901 124.586 124.294 124.305 123.867C124.029 123.44 123.625 123.227 123.094 123.227C122.385 123.227 121.898 123.497 121.633 124.039V127.5C121.909 128.057 122.401 128.336 123.109 128.336C124.188 128.336 124.727 127.453 124.727 125.688Z" fill="white"/>
<rect x="130" y="70" width="1" height="20" fill="black"/>
<g filter="url(#filter0_d)">
<mask id="path-7-outside-1" maskUnits="userSpaceOnUse" x="124" y="132" width="16" height="16" fill="black">
<rect fill="white" x="124" y="132" width="16" height="16"/>
<path fill-rule="evenodd" clip-rule="evenodd" d="M130.03 147C130.03 147 127.811 145.301 127.03 144C126.25 142.699 124.77 141.041 125.03 140C125.291 138.959 126.25 138.631 127.03 139.412C127.811 140.192 128.337 141.884 128.858 141.624C129.378 141.364 128.988 138.891 128.467 137.46C127.947 136.028 127.404 133 128.467 133C129.53 133 129.53 134 130.03 135.5C130.53 137 130.14 139 130.53 139C130.921 139 131.07 138.651 131.07 138C131.07 137.823 131.104 137.674 131.175 137.55C131.363 137.218 131.808 137.069 132.53 137.069C133.522 137.069 133.03 139 133.53 139C134.03 139 134.03 139.041 134.03 138C134.03 136.959 134.494 137.069 135.494 137.069C136.494 137.069 136.01 139 136.53 139C137.051 139 136.53 138 137.03 138C137.53 138 138.03 138.158 138.03 140.5C138.03 142.842 138.311 142.959 137.53 144C136.75 145.041 136.03 146 136.03 146C136.03 146 136.03 147 135.494 147C134.958 147 134.681 146 134.03 146C133.38 146 133.03 147 133.03 147H130.03ZM136.03 145V141H135.03V145H136.03ZM133.03 144C133.03 144.271 133.262 145 133.53 145C133.806 145 134.03 144.275 134.03 144V142C134.03 141.729 133.798 141 133.53 141C133.254 141 133.03 141.725 133.03 142V144ZM131.03 144C131.03 144.271 131.262 145 131.53 145C131.806 145 132.03 144.275 132.03 144V142C132.03 141.729 131.798 141 131.53 141C131.254 141 131.03 141.725 131.03 142V144Z"/>
</mask>
<path fill-rule="evenodd" clip-rule="evenodd" d="M130.03 147C130.03 147 127.811 145.301 127.03 144C126.25 142.699 124.77 141.041 125.03 140C125.291 138.959 126.25 138.631 127.03 139.412C127.811 140.192 128.337 141.884 128.858 141.624C129.378 141.364 128.988 138.891 128.467 137.46C127.947 136.028 127.404 133 128.467 133C129.53 133 129.53 134 130.03 135.5C130.53 137 130.14 139 130.53 139C130.921 139 131.07 138.651 131.07 138C131.07 137.823 131.104 137.674 131.175 137.55C131.363 137.218 131.808 137.069 132.53 137.069C133.522 137.069 133.03 139 133.53 139C134.03 139 134.03 139.041 134.03 138C134.03 136.959 134.494 137.069 135.494 137.069C136.494 137.069 136.01 139 136.53 139C137.051 139 136.53 138 137.03 138C137.53 138 138.03 138.158 138.03 140.5C138.03 142.842 138.311 142.959 137.53 144C136.75 145.041 136.03 146 136.03 146C136.03 146 136.03 147 135.494 147C134.958 147 134.681 146 134.03 146C133.38 146 133.03 147 133.03 147H130.03ZM136.03 145V141H135.03V145H136.03ZM133.03 144C133.03 144.271 133.262 145 133.53 145C133.806 145 134.03 144.275 134.03 144V142C134.03 141.729 133.798 141 133.53 141C133.254 141 133.03 141.725 133.03 142V144ZM131.03 144C131.03 144.271 131.262 145 131.53 145C131.806 145 132.03 144.275 132.03 144V142C132.03 141.729 131.798 141 131.53 141C131.254 141 131.03 141.725 131.03 142V144Z" fill="white"/>
<path d="M130.03 147L129.422 147.794L129.692 148H130.03V147ZM127.03 144L126.173 144.514L126.173 144.514L127.03 144ZM125.03 140L126 140.243L126 140.243L125.03 140ZM127.03 139.412L126.323 140.119L126.323 140.119L127.03 139.412ZM128.858 141.624L128.41 140.729L128.41 140.729L128.858 141.624ZM128.467 137.46L129.407 137.118L129.407 137.118L128.467 137.46ZM128.467 133L128.467 132L128.467 132L128.467 133ZM130.53 139L130.53 140L130.53 140L130.53 139ZM131.07 138L130.07 138L131.07 138ZM131.175 137.55L130.305 137.056L130.305 137.056L131.175 137.55ZM132.53 137.069L132.53 136.069L132.53 136.069L132.53 137.069ZM133.53 139L133.53 138L133.53 138L133.53 139ZM134.03 138L133.03 138L134.03 138ZM135.494 137.069L135.494 136.069L135.494 136.069L135.494 137.069ZM136.53 139L136.53 140H136.53L136.53 139ZM137.03 138L137.03 137L137.03 137L137.03 138ZM138.03 140.5L137.03 140.5L137.03 140.5L138.03 140.5ZM136.03 146L135.23 145.4L135.03 145.667V146H136.03ZM135.494 147L135.494 146L135.494 146L135.494 147ZM134.03 146L134.03 145L134.03 146ZM133.03 147V148H133.74L133.974 147.33L133.03 147ZM136.03 145V146H137.03V145H136.03ZM136.03 141H137.03V140H136.03V141ZM135.03 141V140H134.03V141H135.03ZM135.03 145H134.03V146H135.03V145ZM130.03 147C130.638 146.206 130.638 146.206 130.638 146.206C130.638 146.206 130.638 146.206 130.638 146.206C130.638 146.206 130.638 146.206 130.638 146.206C130.638 146.206 130.638 146.206 130.638 146.206C130.637 146.205 130.636 146.204 130.634 146.203C130.631 146.2 130.626 146.196 130.618 146.191C130.604 146.179 130.581 146.162 130.552 146.139C130.494 146.093 130.409 146.025 130.303 145.939C130.092 145.767 129.803 145.525 129.492 145.245C128.842 144.66 128.194 143.996 127.888 143.486L126.173 144.514C126.647 145.305 127.499 146.141 128.154 146.731C128.495 147.038 128.81 147.302 129.039 147.489C129.154 147.583 129.249 147.658 129.315 147.71C129.348 147.736 129.374 147.757 129.392 147.771C129.401 147.778 129.408 147.783 129.414 147.787C129.416 147.789 129.418 147.791 129.42 147.792C129.42 147.792 129.421 147.793 129.421 147.793C129.422 147.793 129.422 147.794 129.422 147.794C129.422 147.794 129.422 147.794 129.422 147.794C129.422 147.794 129.422 147.794 130.03 147ZM127.888 143.486C127.673 143.128 127.416 142.754 127.175 142.405C126.927 142.045 126.693 141.706 126.492 141.379C126.289 141.048 126.146 140.772 126.066 140.547C125.982 140.312 126.003 140.231 126 140.243L124.06 139.757C123.927 140.289 124.035 140.806 124.181 141.216C124.329 141.635 124.556 142.049 124.788 142.426C125.022 142.806 125.288 143.191 125.528 143.54C125.777 143.9 125.997 144.221 126.173 144.514L127.888 143.486ZM126 140.243C126.069 139.97 126.176 139.964 126.131 139.978C126.115 139.983 126.11 139.977 126.131 139.984C126.155 139.991 126.224 140.02 126.323 140.119L127.737 138.705C127.15 138.117 126.343 137.818 125.539 138.067C124.754 138.31 124.252 138.989 124.06 139.757L126 140.243ZM126.323 140.119C126.6 140.396 126.835 140.844 127.185 141.424C127.328 141.661 127.523 141.974 127.756 142.206C127.876 142.325 128.067 142.488 128.333 142.58C128.637 142.686 128.983 142.679 129.305 142.518L128.41 140.729C128.602 140.634 128.818 140.631 128.99 140.691C129.124 140.738 129.183 140.804 129.168 140.789C129.132 140.753 129.05 140.643 128.898 140.392C128.659 139.996 128.241 139.208 127.737 138.705L126.323 140.119ZM129.305 142.518C129.68 142.33 129.858 142.006 129.94 141.8C130.027 141.583 130.066 141.356 130.085 141.162C130.123 140.769 130.098 140.311 130.046 139.864C129.94 138.964 129.696 137.912 129.407 137.118L127.527 137.802C127.759 138.439 127.97 139.339 128.06 140.098C128.105 140.481 128.113 140.779 128.094 140.967C128.085 141.064 128.072 141.084 128.083 141.057C128.089 141.043 128.165 140.852 128.41 140.729L129.305 142.518ZM129.407 137.118C129.175 136.479 128.931 135.455 128.871 134.621C128.839 134.19 128.865 133.911 128.904 133.779C128.923 133.717 128.921 133.767 128.846 133.841C128.746 133.941 128.601 134 128.467 134L128.467 132C128.068 132 127.706 132.154 127.435 132.425C127.188 132.671 127.059 132.967 126.986 133.212C126.844 133.693 126.839 134.26 126.876 134.765C126.951 135.803 127.239 137.009 127.527 137.802L129.407 137.118ZM128.467 134C128.567 134 128.543 134.02 128.492 133.982C128.458 133.956 128.485 133.956 128.547 134.095C128.611 134.24 128.674 134.44 128.763 134.751C128.846 135.043 128.948 135.415 129.082 135.816L130.979 135.184C130.863 134.835 130.777 134.52 130.686 134.202C130.601 133.904 130.504 133.573 130.373 133.28C130.24 132.981 130.036 132.638 129.687 132.378C129.321 132.105 128.899 132 128.467 132L128.467 134ZM129.082 135.816C129.277 136.401 129.308 137.127 129.322 137.832C129.328 138.144 129.331 138.51 129.365 138.787C129.381 138.917 129.415 139.134 129.516 139.344C129.625 139.571 129.933 140 130.53 140L130.53 138C131.03 138 131.265 138.367 131.319 138.478C131.364 138.573 131.36 138.623 131.35 138.541C131.332 138.396 131.329 138.169 131.321 137.793C131.308 137.123 131.284 136.099 130.979 135.184L129.082 135.816ZM130.53 140C130.781 140 131.055 139.942 131.308 139.784C131.56 139.627 131.729 139.411 131.837 139.198C132.035 138.811 132.07 138.363 132.07 138L130.07 138C130.07 138.128 130.062 138.215 130.053 138.271C130.044 138.33 130.037 138.327 130.056 138.29C130.078 138.246 130.136 138.158 130.25 138.087C130.366 138.014 130.474 138 130.53 138L130.53 140ZM132.07 138C132.07 137.976 132.072 137.972 132.07 137.982C132.067 137.993 132.06 138.016 132.044 138.044L130.305 137.056C130.13 137.364 130.07 137.693 130.07 138L132.07 138ZM132.044 138.044C131.99 138.139 131.923 138.15 131.982 138.129C132.058 138.103 132.224 138.069 132.53 138.069L132.53 136.069C131.79 136.069 130.792 136.198 130.305 137.056L132.044 138.044ZM132.53 138.069C132.483 138.069 132.393 138.055 132.298 137.994C132.21 137.938 132.17 137.875 132.162 137.859C132.161 137.859 132.192 137.93 132.223 138.165C132.241 138.304 132.275 138.68 132.326 138.913C132.354 139.04 132.413 139.269 132.561 139.484C132.742 139.748 133.072 140 133.53 140L133.53 138C133.864 138 134.099 138.192 134.208 138.35C134.284 138.46 134.291 138.538 134.279 138.484C134.251 138.354 134.251 138.248 134.206 137.904C134.173 137.657 134.11 137.246 133.907 136.883C133.797 136.686 133.63 136.472 133.377 136.31C133.117 136.144 132.825 136.069 132.53 136.069V138.069ZM133.53 140C133.587 140 133.811 140.007 133.993 139.975C134.111 139.954 134.281 139.909 134.454 139.796C134.638 139.676 134.768 139.518 134.855 139.353C134.996 139.082 135.013 138.791 135.021 138.65C135.031 138.474 135.03 138.248 135.03 138L133.03 138C133.03 138.273 133.03 138.432 133.024 138.541C133.021 138.592 133.018 138.605 133.02 138.595C133.021 138.588 133.033 138.519 133.081 138.428C133.136 138.323 133.228 138.208 133.363 138.12C133.487 138.039 133.598 138.014 133.645 138.005C133.688 137.998 133.709 137.999 133.676 138C133.641 138.001 133.61 138 133.53 138V140ZM135.03 138C135.03 137.905 135.036 137.845 135.041 137.811C135.046 137.777 135.049 137.783 135.036 137.814C135.021 137.848 134.99 137.903 134.934 137.958C134.878 138.014 134.82 138.047 134.779 138.064C134.742 138.08 134.725 138.081 134.745 138.077C134.766 138.074 134.805 138.07 134.875 138.068C134.945 138.066 135.028 138.066 135.135 138.067C135.236 138.068 135.363 138.069 135.494 138.069L135.494 136.069C135.293 136.069 135.013 136.062 134.811 136.069C134.603 136.076 134.295 136.097 133.996 136.224C133.64 136.375 133.363 136.645 133.201 137.017C133.062 137.338 133.03 137.687 133.03 138L135.03 138ZM135.494 138.069C135.45 138.069 135.362 138.056 135.27 137.998C135.184 137.943 135.145 137.882 135.136 137.867C135.13 137.856 135.14 137.871 135.157 137.933C135.172 137.994 135.187 138.072 135.202 138.176C135.222 138.318 135.26 138.693 135.317 138.932C135.348 139.062 135.413 139.292 135.57 139.507C135.76 139.768 136.089 140 136.53 140L136.53 138C136.842 138 137.072 138.172 137.185 138.328C137.264 138.436 137.274 138.516 137.262 138.465C137.232 138.342 137.231 138.234 137.182 137.893C137.147 137.647 137.079 137.236 136.873 136.875C136.761 136.679 136.592 136.467 136.339 136.307C136.079 136.143 135.788 136.069 135.494 136.069V138.069ZM136.53 140C136.759 140 137.033 139.942 137.28 139.758C137.522 139.577 137.643 139.345 137.703 139.169C137.761 139.001 137.777 138.845 137.783 138.747C137.79 138.646 137.789 138.547 137.788 138.49C137.787 138.418 137.787 138.39 137.788 138.369C137.789 138.345 137.79 138.387 137.768 138.458C137.744 138.534 137.677 138.693 137.506 138.828C137.327 138.969 137.14 139 137.03 139L137.03 137C136.795 137 136.515 137.062 136.267 137.258C136.027 137.447 135.915 137.685 135.861 137.855C135.809 138.019 135.796 138.17 135.791 138.264C135.786 138.36 135.788 138.457 135.788 138.51C135.789 138.578 135.788 138.604 135.787 138.62C135.786 138.639 135.786 138.593 135.812 138.519C135.84 138.436 135.913 138.283 136.082 138.156C136.255 138.026 136.431 138 136.53 138L136.53 140ZM137.03 139C137.116 139 137.072 139.011 136.996 138.977C136.892 138.931 136.846 138.862 136.847 138.863C136.86 138.887 136.912 138.997 136.957 139.278C137 139.553 137.03 139.945 137.03 140.5L139.03 140.5C139.03 139.319 138.915 138.459 138.589 137.88C138.402 137.549 138.138 137.294 137.799 137.145C137.488 137.009 137.195 137 137.03 137V139ZM137.03 140.5C137.03 141.106 137.049 141.569 137.063 141.928C137.078 142.303 137.085 142.513 137.075 142.677C137.067 142.813 137.048 142.881 137.019 142.948C136.982 143.034 136.908 143.163 136.73 143.4L138.33 144.6C138.543 144.317 138.726 144.04 138.856 143.739C138.994 143.418 139.052 143.115 139.071 142.798C139.089 142.511 139.075 142.187 139.061 141.849C139.047 141.495 139.03 141.065 139.03 140.5L137.03 140.5ZM136.73 143.4C136.34 143.921 135.965 144.421 135.688 144.79C135.549 144.975 135.435 145.128 135.355 145.234C135.315 145.287 135.284 145.329 135.263 145.357C135.252 145.371 135.244 145.382 135.239 145.389C135.236 145.393 135.234 145.395 135.232 145.397C135.232 145.398 135.231 145.399 135.231 145.399C135.231 145.4 135.231 145.4 135.23 145.4C135.23 145.4 135.23 145.4 135.23 145.4C135.23 145.4 135.23 145.4 135.23 145.4C135.23 145.4 135.23 145.4 136.03 146C136.83 146.6 136.83 146.6 136.83 146.6C136.83 146.6 136.83 146.6 136.83 146.6C136.83 146.6 136.83 146.6 136.83 146.6C136.831 146.6 136.831 146.6 136.831 146.599C136.831 146.599 136.832 146.598 136.832 146.597C136.834 146.595 136.836 146.593 136.839 146.589C136.844 146.582 136.852 146.571 136.863 146.557C136.884 146.529 136.915 146.487 136.955 146.434C137.035 146.328 137.149 146.175 137.288 145.99C137.565 145.621 137.94 145.121 138.33 144.6L136.73 143.4ZM136.03 146C135.03 146 135.03 146 135.03 145.999C135.03 145.999 135.03 145.999 135.03 145.999C135.03 145.999 135.03 145.998 135.03 145.998C135.03 145.997 135.03 145.997 135.03 145.996C135.03 145.996 135.03 145.995 135.03 145.994C135.03 145.993 135.03 145.993 135.03 145.993C135.03 145.994 135.03 145.998 135.03 146.005C135.029 146.018 135.028 146.04 135.026 146.067C135.021 146.127 135.011 146.19 134.997 146.241C134.98 146.304 134.976 146.278 135.025 146.217C135.055 146.18 135.111 146.122 135.201 146.074C135.296 146.024 135.399 146 135.494 146V148C135.991 148 136.359 147.749 136.583 147.471C136.783 147.222 136.879 146.946 136.929 146.759C136.983 146.56 137.007 146.373 137.018 146.245C137.024 146.179 137.027 146.123 137.029 146.081C137.029 146.06 137.03 146.043 137.03 146.029C137.03 146.022 137.03 146.016 137.03 146.012C137.03 146.009 137.03 146.007 137.03 146.005C137.03 146.004 137.03 146.003 137.03 146.002C137.03 146.002 137.03 146.001 137.03 146.001C137.03 146.001 137.03 146.001 137.03 146.001C137.03 146 137.03 146 136.03 146ZM135.494 146C135.693 146 135.798 146.098 135.774 146.078C135.737 146.047 135.693 145.997 135.559 145.844C135.455 145.724 135.279 145.521 135.056 145.354C134.815 145.175 134.471 145 134.03 145L134.03 147C133.915 147 133.849 146.95 133.861 146.958C133.889 146.979 133.937 147.026 134.051 147.156C134.134 147.253 134.301 147.453 134.487 147.609C134.686 147.777 135.027 148 135.494 148L135.494 146ZM134.03 145C133.171 145 132.66 145.641 132.457 145.941C132.334 146.124 132.244 146.301 132.186 146.427C132.156 146.492 132.133 146.548 132.117 146.589C132.109 146.61 132.102 146.627 132.097 146.641C132.094 146.648 132.092 146.654 132.09 146.659C132.09 146.661 132.089 146.663 132.088 146.665C132.088 146.666 132.087 146.667 132.087 146.668C132.087 146.668 132.087 146.669 132.087 146.669C132.087 146.669 132.086 146.67 132.086 146.67C132.086 146.67 132.086 146.67 133.03 147C133.974 147.33 133.974 147.33 133.974 147.33C133.974 147.33 133.974 147.331 133.974 147.331C133.974 147.331 133.974 147.331 133.974 147.332C133.973 147.332 133.973 147.333 133.973 147.333C133.973 147.334 133.972 147.335 133.972 147.336C133.972 147.337 133.972 147.337 133.972 147.337C133.972 147.336 133.974 147.332 133.976 147.325C133.982 147.312 133.991 147.289 134.004 147.26C134.032 147.199 134.07 147.126 134.115 147.059C134.137 147.027 134.157 147.001 134.174 146.982C134.183 146.973 134.19 146.966 134.195 146.961C134.2 146.956 134.202 146.954 134.202 146.955C134.201 146.955 134.139 147 134.03 147L134.03 145ZM133.03 146H130.03V148H133.03V146ZM137.03 145V141H135.03V145H137.03ZM136.03 140H135.03V142H136.03V140ZM134.03 141V145H136.03V141H134.03ZM135.03 146H136.03V144H135.03V146ZM132.03 144C132.03 144.317 132.138 144.705 132.259 144.991C132.324 145.144 132.422 145.34 132.565 145.515C132.681 145.656 133.002 146 133.53 146V144C133.732 144 133.883 144.07 133.971 144.126C134.054 144.179 134.099 144.232 134.113 144.248C134.138 144.279 134.128 144.275 134.101 144.212C134.078 144.158 134.057 144.093 134.042 144.034C134.035 144.005 134.032 143.984 134.03 143.973C134.028 143.958 134.03 143.969 134.03 144H132.03ZM133.53 146C134.05 146 134.371 145.67 134.495 145.52C134.642 145.343 134.741 145.144 134.806 144.99C134.928 144.699 135.03 144.313 135.03 144H133.03C133.03 143.959 133.035 143.972 133.018 144.042C133.004 144.1 132.984 144.164 132.962 144.216C132.936 144.278 132.927 144.278 132.955 144.245C132.97 144.226 133.017 144.173 133.101 144.12C133.19 144.065 133.338 144 133.53 144V146ZM135.03 144V142H133.03V144H135.03ZM135.03 142C135.03 141.683 134.923 141.295 134.802 141.009C134.737 140.856 134.639 140.66 134.495 140.485C134.38 140.344 134.059 140 133.53 140V142C133.329 142 133.177 141.93 133.09 141.874C133.007 141.821 132.962 141.768 132.948 141.752C132.923 141.721 132.933 141.725 132.96 141.788C132.983 141.842 133.004 141.907 133.018 141.966C133.025 141.995 133.029 142.016 133.031 142.027C133.033 142.042 133.03 142.031 133.03 142H135.03ZM133.53 140C133.01 140 132.689 140.33 132.566 140.48C132.418 140.657 132.319 140.856 132.255 141.01C132.132 141.301 132.03 141.687 132.03 142H134.03C134.03 142.041 134.026 142.028 134.043 141.958C134.057 141.9 134.077 141.836 134.099 141.784C134.125 141.722 134.133 141.722 134.106 141.755C134.091 141.774 134.044 141.827 133.96 141.88C133.87 141.935 133.723 142 133.53 142V140ZM132.03 142V144H134.03V142H132.03ZM130.03 144C130.03 144.317 130.138 144.705 130.259 144.991C130.324 145.144 130.422 145.34 130.565 145.515C130.681 145.656 131.002 146 131.53 146V144C131.732 144 131.883 144.07 131.971 144.126C132.054 144.179 132.099 144.232 132.113 144.248C132.138 144.279 132.128 144.275 132.101 144.212C132.078 144.158 132.057 144.093 132.042 144.034C132.035 144.005 132.032 143.984 132.03 143.973C132.028 143.958 132.03 143.969 132.03 144H130.03ZM131.53 146C132.05 146 132.371 145.67 132.495 145.52C132.642 145.343 132.741 145.144 132.806 144.99C132.928 144.699 133.03 144.313 133.03 144H131.03C131.03 143.959 131.035 143.972 131.018 144.042C131.004 144.1 130.984 144.164 130.962 144.216C130.936 144.278 130.927 144.278 130.955 144.245C130.97 144.226 131.017 144.173 131.101 144.12C131.19 144.065 131.338 144 131.53 144V146ZM133.03 144V142H131.03V144H133.03ZM133.03 142C133.03 141.683 132.923 141.295 132.802 141.009C132.737 140.856 132.639 140.66 132.495 140.485C132.38 140.344 132.059 140 131.53 140V142C131.329 142 131.177 141.93 131.09 141.874C131.007 141.821 130.962 141.768 130.948 141.752C130.923 141.721 130.933 141.725 130.96 141.788C130.983 141.842 131.004 141.907 131.018 141.966C131.025 141.995 131.029 142.016 131.031 142.027C131.033 142.042 131.03 142.031 131.03 142H133.03ZM131.53 140C131.01 140 130.689 140.33 130.566 140.48C130.418 140.657 130.319 140.856 130.255 141.01C130.132 141.301 130.03 141.687 130.03 142H132.03C132.03 142.041 132.026 142.028 132.043 141.958C132.057 141.9 132.077 141.836 132.099 141.784C132.125 141.722 132.133 141.722 132.106 141.755C132.091 141.774 132.044 141.827 131.96 141.88C131.87 141.935 131.723 142 131.53 142V140ZM130.03 142V144H132.03V142H130.03Z" fill="black" mask="url(#path-7-outside-1)"/>
</g>
<defs>
<filter id="filter0_d" x="122" y="131" width="19.0794" height="20" filterUnits="userSpaceOnUse" color-interpolation-filters="sRGB">
<feFlood flood-opacity="0" result="BackgroundImageFix"/>
<feColorMatrix in="SourceAlpha" type="matrix" values="0 0 0 0 0 0 0 0 0 0 0 0 0 0 0 0 0 0 127 0"/>
<feOffset dy="1"/>
<feGaussianBlur stdDeviation="1"/>
<feColorMatrix type="matrix" values="0 0 0 0 0 0 0 0 0 0 0 0 0 0 0 0 0 0 0.305084 0"/>
<feBlend mode="normal" in2="BackgroundImageFix" result="effect1_dropShadow"/>
<feBlend mode="normal" in="SourceGraphic" in2="effect1_dropShadow" result="shape"/>
</filter>
</defs>
</svg>
