<svg width="275" height="205" viewBox="0 0 275 205" fill="none" xmlns="http://www.w3.org/2000/svg">
<rect width="275" height="205" rx="4" fill="white"/>
<path d="M119.602 61.0312H114.836L113.766 64H112.219L116.562 52.625H117.875L122.227 64H120.688L119.602 61.0312ZM115.289 59.7969H119.156L117.219 54.4766L115.289 59.7969ZM124.898 55.5469L124.945 56.6094C125.591 55.7969 126.435 55.3906 127.477 55.3906C129.263 55.3906 130.164 56.3984 130.18 58.4141V64H128.734V58.4062C128.729 57.7969 128.589 57.3464 128.312 57.0547C128.042 56.763 127.617 56.6172 127.039 56.6172C126.57 56.6172 126.159 56.7422 125.805 56.9922C125.451 57.2422 125.174 57.5703 124.977 57.9766V64H123.531V55.5469H124.898ZM133.93 64H132.484V55.5469H133.93V64ZM132.367 53.3047C132.367 53.0703 132.438 52.8724 132.578 52.7109C132.724 52.5495 132.938 52.4688 133.219 52.4688C133.5 52.4688 133.714 52.5495 133.859 52.7109C134.005 52.8724 134.078 53.0703 134.078 53.3047C134.078 53.5391 134.005 53.7344 133.859 53.8906C133.714 54.0469 133.5 54.125 133.219 54.125C132.938 54.125 132.724 54.0469 132.578 53.8906C132.438 53.7344 132.367 53.5391 132.367 53.3047ZM141.469 64C141.385 63.8333 141.318 63.5365 141.266 63.1094C140.594 63.8073 139.792 64.1562 138.859 64.1562C138.026 64.1562 137.341 63.9219 136.805 63.4531C136.273 62.9792 136.008 62.3802 136.008 61.6562C136.008 60.776 136.341 60.0938 137.008 59.6094C137.68 59.1198 138.622 58.875 139.836 58.875H141.242V58.2109C141.242 57.7057 141.091 57.3047 140.789 57.0078C140.487 56.7057 140.042 56.5547 139.453 56.5547C138.938 56.5547 138.505 56.6849 138.156 56.9453C137.807 57.2057 137.633 57.5208 137.633 57.8906H136.18C136.18 57.4688 136.328 57.0625 136.625 56.6719C136.927 56.276 137.333 55.9635 137.844 55.7344C138.359 55.5052 138.924 55.3906 139.539 55.3906C140.513 55.3906 141.276 55.6354 141.828 56.125C142.38 56.6094 142.667 57.2786 142.688 58.1328V62.0234C142.688 62.7995 142.786 63.4167 142.984 63.875V64H141.469ZM139.07 62.8984C139.523 62.8984 139.953 62.7812 140.359 62.5469C140.766 62.3125 141.06 62.0078 141.242 61.6328V59.8984H140.109C138.339 59.8984 137.453 60.4167 137.453 61.4531C137.453 61.9062 137.604 62.2604 137.906 62.5156C138.208 62.7708 138.596 62.8984 139.07 62.8984Z" fill="black"/>
<path d="M115.258 81.625L118.977 90.9062L122.695 81.625H124.641V93H123.141V88.5703L123.281 83.7891L119.547 93H118.398L114.672 83.8125L114.82 88.5703V93H113.32V81.625H115.258ZM132.281 93C132.198 92.8333 132.13 92.5365 132.078 92.1094C131.406 92.8073 130.604 93.1562 129.672 93.1562C128.839 93.1562 128.154 92.9219 127.617 92.4531C127.086 91.9792 126.82 91.3802 126.82 90.6562C126.82 89.776 127.154 89.0938 127.82 88.6094C128.492 88.1198 129.435 87.875 130.648 87.875H132.055V87.2109C132.055 86.7057 131.904 86.3047 131.602 86.0078C131.299 85.7057 130.854 85.5547 130.266 85.5547C129.75 85.5547 129.318 85.6849 128.969 85.9453C128.62 86.2057 128.445 86.5208 128.445 86.8906H126.992C126.992 86.4688 127.141 86.0625 127.438 85.6719C127.74 85.276 128.146 84.9635 128.656 84.7344C129.172 84.5052 129.737 84.3906 130.352 84.3906C131.326 84.3906 132.089 84.6354 132.641 85.125C133.193 85.6094 133.479 86.2786 133.5 87.1328V91.0234C133.5 91.7995 133.599 92.4167 133.797 92.875V93H132.281ZM129.883 91.8984C130.336 91.8984 130.766 91.7812 131.172 91.5469C131.578 91.3125 131.872 91.0078 132.055 90.6328V88.8984H130.922C129.151 88.8984 128.266 89.4167 128.266 90.4531C128.266 90.9062 128.417 91.2604 128.719 91.5156C129.021 91.7708 129.409 91.8984 129.883 91.8984ZM138.602 87.6328L140.477 84.5469H142.164L139.398 88.7266L142.25 93H140.578L138.625 89.8359L136.672 93H134.992L137.844 88.7266L135.078 84.5469H136.75L138.602 87.6328Z" fill="black"/>
<path d="M117.492 117.398H114.82V122H113.312V110.625H117.078C118.359 110.625 119.344 110.917 120.031 111.5C120.724 112.083 121.07 112.932 121.07 114.047C121.07 114.755 120.878 115.372 120.492 115.898C120.112 116.424 119.581 116.818 118.898 117.078L121.57 121.906V122H119.961L117.492 117.398ZM114.82 116.172H117.125C117.87 116.172 118.461 115.979 118.898 115.594C119.341 115.208 119.562 114.693 119.562 114.047C119.562 113.344 119.352 112.805 118.93 112.43C118.513 112.055 117.909 111.865 117.117 111.859H114.82V116.172ZM124.523 122H123.078V113.547H124.523V122ZM122.961 111.305C122.961 111.07 123.031 110.872 123.172 110.711C123.318 110.549 123.531 110.469 123.812 110.469C124.094 110.469 124.307 110.549 124.453 110.711C124.599 110.872 124.672 111.07 124.672 111.305C124.672 111.539 124.599 111.734 124.453 111.891C124.307 112.047 124.094 112.125 123.812 112.125C123.531 112.125 123.318 112.047 123.172 111.891C123.031 111.734 122.961 111.539 122.961 111.305ZM130.234 120.977C130.75 120.977 131.201 120.82 131.586 120.508C131.971 120.195 132.185 119.805 132.227 119.336H133.594C133.568 119.82 133.401 120.281 133.094 120.719C132.786 121.156 132.375 121.505 131.859 121.766C131.349 122.026 130.807 122.156 130.234 122.156C129.083 122.156 128.167 121.773 127.484 121.008C126.807 120.237 126.469 119.185 126.469 117.852V117.609C126.469 116.786 126.62 116.055 126.922 115.414C127.224 114.773 127.656 114.276 128.219 113.922C128.786 113.568 129.456 113.391 130.227 113.391C131.174 113.391 131.961 113.674 132.586 114.242C133.216 114.81 133.552 115.547 133.594 116.453H132.227C132.185 115.906 131.977 115.458 131.602 115.109C131.232 114.755 130.773 114.578 130.227 114.578C129.492 114.578 128.922 114.844 128.516 115.375C128.115 115.901 127.914 116.664 127.914 117.664V117.938C127.914 118.911 128.115 119.661 128.516 120.188C128.917 120.714 129.49 120.977 130.234 120.977ZM136.664 114.57C137.305 113.784 138.138 113.391 139.164 113.391C140.951 113.391 141.852 114.398 141.867 116.414V122H140.422V116.406C140.417 115.797 140.276 115.346 140 115.055C139.729 114.763 139.305 114.617 138.727 114.617C138.258 114.617 137.846 114.742 137.492 114.992C137.138 115.242 136.862 115.57 136.664 115.977V122H135.219V110H136.664V114.57ZM149.25 122C149.167 121.833 149.099 121.536 149.047 121.109C148.375 121.807 147.573 122.156 146.641 122.156C145.807 122.156 145.122 121.922 144.586 121.453C144.055 120.979 143.789 120.38 143.789 119.656C143.789 118.776 144.122 118.094 144.789 117.609C145.461 117.12 146.404 116.875 147.617 116.875H149.023V116.211C149.023 115.706 148.872 115.305 148.57 115.008C148.268 114.706 147.823 114.555 147.234 114.555C146.719 114.555 146.286 114.685 145.938 114.945C145.589 115.206 145.414 115.521 145.414 115.891H143.961C143.961 115.469 144.109 115.062 144.406 114.672C144.708 114.276 145.115 113.964 145.625 113.734C146.141 113.505 146.706 113.391 147.32 113.391C148.294 113.391 149.057 113.635 149.609 114.125C150.161 114.609 150.448 115.279 150.469 116.133V120.023C150.469 120.799 150.568 121.417 150.766 121.875V122H149.25ZM146.852 120.898C147.305 120.898 147.734 120.781 148.141 120.547C148.547 120.312 148.841 120.008 149.023 119.633V117.898H147.891C146.12 117.898 145.234 118.417 145.234 119.453C145.234 119.906 145.385 120.26 145.688 120.516C145.99 120.771 146.378 120.898 146.852 120.898ZM156.82 114.844C156.602 114.807 156.365 114.789 156.109 114.789C155.161 114.789 154.518 115.193 154.18 116V122H152.734V113.547H154.141L154.164 114.523C154.638 113.768 155.31 113.391 156.18 113.391C156.461 113.391 156.674 113.427 156.82 113.5V114.844ZM157.648 117.703C157.648 116.406 157.956 115.365 158.57 114.578C159.185 113.786 159.99 113.391 160.984 113.391C161.974 113.391 162.758 113.729 163.336 114.406V110H164.781V122H163.453L163.383 121.094C162.805 121.802 162 122.156 160.969 122.156C159.99 122.156 159.19 121.755 158.57 120.953C157.956 120.151 157.648 119.104 157.648 117.812V117.703ZM159.094 117.867C159.094 118.826 159.292 119.576 159.688 120.117C160.083 120.659 160.63 120.93 161.328 120.93C162.245 120.93 162.914 120.518 163.336 119.695V115.812C162.904 115.016 162.24 114.617 161.344 114.617C160.635 114.617 160.083 114.891 159.688 115.438C159.292 115.984 159.094 116.794 159.094 117.867Z" fill="black"/>
<path d="M118.086 139.625H119.594V147.68C119.594 148.768 119.266 149.62 118.609 150.234C117.958 150.849 117.089 151.156 116 151.156C114.87 151.156 113.99 150.867 113.359 150.289C112.729 149.711 112.414 148.901 112.414 147.859H113.914C113.914 148.51 114.091 149.018 114.445 149.383C114.805 149.747 115.323 149.93 116 149.93C116.62 149.93 117.12 149.734 117.5 149.344C117.885 148.953 118.081 148.406 118.086 147.703V139.625ZM127.141 150.164C126.578 150.826 125.753 151.156 124.664 151.156C123.763 151.156 123.076 150.896 122.602 150.375C122.133 149.849 121.896 149.073 121.891 148.047V142.547H123.336V148.008C123.336 149.289 123.857 149.93 124.898 149.93C126.003 149.93 126.737 149.518 127.102 148.695V142.547H128.547V151H127.172L127.141 150.164ZM132.32 151H130.875V139H132.32V151ZM136.211 151H134.766V142.547H136.211V151ZM134.648 140.305C134.648 140.07 134.719 139.872 134.859 139.711C135.005 139.549 135.219 139.469 135.5 139.469C135.781 139.469 135.995 139.549 136.141 139.711C136.286 139.872 136.359 140.07 136.359 140.305C136.359 140.539 136.286 140.734 136.141 140.891C135.995 141.047 135.781 141.125 135.5 141.125C135.219 141.125 135.005 141.047 134.859 140.891C134.719 140.734 134.648 140.539 134.648 140.305ZM143.75 151C143.667 150.833 143.599 150.536 143.547 150.109C142.875 150.807 142.073 151.156 141.141 151.156C140.307 151.156 139.622 150.922 139.086 150.453C138.555 149.979 138.289 149.38 138.289 148.656C138.289 147.776 138.622 147.094 139.289 146.609C139.961 146.12 140.904 145.875 142.117 145.875H143.523V145.211C143.523 144.706 143.372 144.305 143.07 144.008C142.768 143.706 142.323 143.555 141.734 143.555C141.219 143.555 140.786 143.685 140.438 143.945C140.089 144.206 139.914 144.521 139.914 144.891H138.461C138.461 144.469 138.609 144.062 138.906 143.672C139.208 143.276 139.615 142.964 140.125 142.734C140.641 142.505 141.206 142.391 141.82 142.391C142.794 142.391 143.557 142.635 144.109 143.125C144.661 143.609 144.948 144.279 144.969 145.133V149.023C144.969 149.799 145.068 150.417 145.266 150.875V151H143.75ZM141.352 149.898C141.805 149.898 142.234 149.781 142.641 149.547C143.047 149.312 143.341 149.008 143.523 148.633V146.898H142.391C140.62 146.898 139.734 147.417 139.734 148.453C139.734 148.906 139.885 149.26 140.188 149.516C140.49 149.771 140.878 149.898 141.352 149.898ZM148.602 142.547L148.648 143.609C149.294 142.797 150.138 142.391 151.18 142.391C152.966 142.391 153.867 143.398 153.883 145.414V151H152.438V145.406C152.432 144.797 152.292 144.346 152.016 144.055C151.745 143.763 151.32 143.617 150.742 143.617C150.273 143.617 149.862 143.742 149.508 143.992C149.154 144.242 148.878 144.57 148.68 144.977V151H147.234V142.547H148.602Z" fill="black"/>
<rect x="85" y="50" width="16" height="16" rx="1" fill="#6660FF" stroke="#6660FF"/>
<rect x="85" y="79" width="16" height="16" rx="1" fill="white" stroke="#C1C1D8"/>
<rect x="85" y="108" width="16" height="16" rx="1" fill="white" stroke="#C1C1D8"/>
<rect x="85" y="137" width="16" height="16" rx="1" fill="white" stroke="#C1C1D8"/>
<path d="M97.8332 55.25L91.8748 61.2083L89.1665 58.5" stroke="white" stroke-width="2" stroke-linecap="round" stroke-linejoin="round"/>
<rect x="85" y="79" width="16" height="16" rx="1" fill="#6660FF" stroke="#6660FF"/>
<path d="M97.8332 84.25L91.8748 90.2083L89.1665 87.5" stroke="white" stroke-width="2" stroke-linecap="round" stroke-linejoin="round"/>
<g filter="url(#filter0_d)">
<mask id="path-13-outside-1" maskUnits="userSpaceOnUse" x="90" y="117" width="16" height="16" fill="black">
<rect fill="white" x="90" y="117" width="16" height="16"/>
<path fill-rule="evenodd" clip-rule="evenodd" d="M96.0303 132C96.0303 132 93.8111 130.301 93.0303 129C92.2496 127.699 90.7701 126.041 91.0303 125C91.2906 123.959 92.2496 123.631 93.0303 124.412C93.8111 125.192 94.337 126.884 94.8575 126.624C95.378 126.364 94.9876 123.891 94.4671 122.46C93.9466 121.028 93.404 118 94.4671 118C95.5303 118 95.5303 119 96.0303 120.5C96.5303 122 96.1399 124 96.5303 124C96.9207 124 97.0697 123.651 97.0697 123C97.0697 122.823 97.1043 122.674 97.1747 122.55C97.3633 122.218 97.8084 122.069 98.5303 122.069C99.5216 122.069 99.0303 124 99.5303 124C100.03 124 100.03 124.041 100.03 123C100.03 121.959 100.494 122.069 101.494 122.069C102.494 122.069 102.01 124 102.53 124C103.051 124 102.53 123 103.03 123C103.53 123 104.03 123.158 104.03 125.5C104.03 127.842 104.311 127.959 103.53 129C102.75 130.041 102.03 131 102.03 131C102.03 131 102.03 132 101.494 132C100.958 132 100.681 131 100.03 131C99.3797 131 99.0303 132 99.0303 132H96.0303ZM102.03 130V126H101.03V130H102.03ZM99.0303 129C99.0303 129.271 99.2622 130 99.5303 130C99.8065 130 100.03 129.275 100.03 129V127C100.03 126.729 99.7984 126 99.5303 126C99.2542 126 99.0303 126.725 99.0303 127V129ZM97.0303 129C97.0303 129.271 97.2622 130 97.5303 130C97.8065 130 98.0303 129.275 98.0303 129V127C98.0303 126.729 97.7984 126 97.5303 126C97.2542 126 97.0303 126.725 97.0303 127V129Z"/>
</mask>
<path fill-rule="evenodd" clip-rule="evenodd" d="M96.0303 132C96.0303 132 93.8111 130.301 93.0303 129C92.2496 127.699 90.7701 126.041 91.0303 125C91.2906 123.959 92.2496 123.631 93.0303 124.412C93.8111 125.192 94.337 126.884 94.8575 126.624C95.378 126.364 94.9876 123.891 94.4671 122.46C93.9466 121.028 93.404 118 94.4671 118C95.5303 118 95.5303 119 96.0303 120.5C96.5303 122 96.1399 124 96.5303 124C96.9207 124 97.0697 123.651 97.0697 123C97.0697 122.823 97.1043 122.674 97.1747 122.55C97.3633 122.218 97.8084 122.069 98.5303 122.069C99.5216 122.069 99.0303 124 99.5303 124C100.03 124 100.03 124.041 100.03 123C100.03 121.959 100.494 122.069 101.494 122.069C102.494 122.069 102.01 124 102.53 124C103.051 124 102.53 123 103.03 123C103.53 123 104.03 123.158 104.03 125.5C104.03 127.842 104.311 127.959 103.53 129C102.75 130.041 102.03 131 102.03 131C102.03 131 102.03 132 101.494 132C100.958 132 100.681 131 100.03 131C99.3797 131 99.0303 132 99.0303 132H96.0303ZM102.03 130V126H101.03V130H102.03ZM99.0303 129C99.0303 129.271 99.2622 130 99.5303 130C99.8065 130 100.03 129.275 100.03 129V127C100.03 126.729 99.7984 126 99.5303 126C99.2542 126 99.0303 126.725 99.0303 127V129ZM97.0303 129C97.0303 129.271 97.2622 130 97.5303 130C97.8065 130 98.0303 129.275 98.0303 129V127C98.0303 126.729 97.7984 126 97.5303 126C97.2542 126 97.0303 126.725 97.0303 127V129Z" fill="white"/>
<path d="M96.0303 132L95.4225 132.794L95.6915 133H96.0303V132ZM93.0303 129L92.1728 129.514L92.1728 129.514L93.0303 129ZM91.0303 125L92.0005 125.243L92.0005 125.243L91.0303 125ZM93.0303 124.412L92.3232 125.119L92.3232 125.119L93.0303 124.412ZM94.8575 126.624L94.4103 125.729L94.4103 125.729L94.8575 126.624ZM94.4671 122.46L95.4069 122.118L95.4069 122.118L94.4671 122.46ZM94.4671 118L94.4671 117H94.4671L94.4671 118ZM96.5303 124L96.5303 125L96.5303 125L96.5303 124ZM97.0697 123L96.0697 123L97.0697 123ZM97.1747 122.55L96.3052 122.056L96.3052 122.056L97.1747 122.55ZM98.5303 122.069L98.5303 121.069L98.5303 121.069L98.5303 122.069ZM99.5303 124L99.5303 123L99.5303 123L99.5303 124ZM100.03 123L99.0303 123L100.03 123ZM101.494 122.069L101.494 121.069L101.494 121.069L101.494 122.069ZM102.53 124L102.53 125H102.53L102.53 124ZM103.03 123L103.03 122L103.03 122L103.03 123ZM104.03 125.5L103.03 125.5V125.5L104.03 125.5ZM102.03 131L101.23 130.4L101.03 130.667V131H102.03ZM101.494 132L101.494 131L101.494 131L101.494 132ZM100.03 131L100.03 130L100.03 131ZM99.0303 132V133H99.7402L99.9744 132.33L99.0303 132ZM102.03 130V131H103.03V130H102.03ZM102.03 126H103.03V125H102.03V126ZM101.03 126V125H100.03V126H101.03ZM101.03 130H100.03V131H101.03V130ZM96.0303 132C96.6381 131.206 96.6382 131.206 96.6383 131.206C96.6383 131.206 96.6383 131.206 96.6383 131.206C96.6384 131.206 96.6384 131.206 96.6384 131.206C96.6383 131.206 96.6381 131.206 96.6378 131.206C96.6371 131.205 96.636 131.204 96.6343 131.203C96.6309 131.2 96.6255 131.196 96.6182 131.191C96.6036 131.179 96.5813 131.162 96.5521 131.139C96.4939 131.093 96.4086 131.025 96.3033 130.939C96.0922 130.767 95.8033 130.525 95.4922 130.245C94.8424 129.66 94.1941 128.996 93.8878 128.486L92.1728 129.514C92.6473 130.305 93.499 131.141 94.154 131.731C94.4953 132.038 94.81 132.302 95.0394 132.489C95.1544 132.583 95.2486 132.658 95.3147 132.71C95.3478 132.736 95.3739 132.757 95.3922 132.771C95.4013 132.778 95.4085 132.783 95.4136 132.787C95.4161 132.789 95.4181 132.791 95.4196 132.792C95.4204 132.792 95.421 132.793 95.4215 132.793C95.4217 132.793 95.4219 132.794 95.4221 132.794C95.4222 132.794 95.4223 132.794 95.4223 132.794C95.4224 132.794 95.4225 132.794 96.0303 132ZM93.8878 128.486C93.6735 128.128 93.416 127.754 93.1752 127.405C92.927 127.045 92.6929 126.706 92.4917 126.379C92.2887 126.048 92.1456 125.772 92.0657 125.547C91.9824 125.312 92.0033 125.231 92.0005 125.243L90.0602 124.757C89.9272 125.289 90.0355 125.806 90.1808 126.216C90.3295 126.635 90.5563 127.049 90.7881 127.426C91.0219 127.806 91.2878 128.191 91.5284 128.54C91.7765 128.9 91.9967 129.221 92.1728 129.514L93.8878 128.486ZM92.0005 125.243C92.0687 124.97 92.176 124.964 92.131 124.978C92.1147 124.983 92.11 124.977 92.1306 124.984C92.155 124.991 92.2244 125.02 92.3232 125.119L93.7374 123.705C93.1495 123.117 92.3434 122.818 91.5393 123.067C90.7545 123.31 90.2522 123.989 90.0602 124.757L92.0005 125.243ZM92.3232 125.119C92.6003 125.396 92.8354 125.844 93.1851 126.424C93.3276 126.661 93.5232 126.974 93.7565 127.206C93.8759 127.325 94.0674 127.488 94.3329 127.58C94.637 127.686 94.9833 127.679 95.3047 127.518L94.4103 125.729C94.6016 125.634 94.8176 125.631 94.9903 125.691C95.1243 125.738 95.1832 125.804 95.168 125.789C95.1318 125.753 95.0496 125.643 94.8979 125.392C94.6593 124.996 94.241 124.208 93.7374 123.705L92.3232 125.119ZM95.3047 127.518C95.6804 127.33 95.8579 127.006 95.94 126.8C96.0269 126.583 96.0655 126.356 96.0845 126.162C96.123 125.769 96.0984 125.311 96.0459 124.864C95.9399 123.964 95.6956 122.912 95.4069 122.118L93.5273 122.802C93.7592 123.439 93.9703 124.339 94.0596 125.098C94.1046 125.481 94.1125 125.779 94.0941 125.967C94.0846 126.064 94.0725 126.084 94.0831 126.057C94.0889 126.043 94.1648 125.852 94.4103 125.729L95.3047 127.518ZM95.4069 122.118C95.1747 121.479 94.9311 120.455 94.8706 119.621C94.8394 119.19 94.8655 118.911 94.9044 118.779C94.9226 118.717 94.9214 118.767 94.8464 118.841C94.7464 118.941 94.601 119 94.4671 119L94.4671 117C94.0675 117 93.7065 117.154 93.4346 117.425C93.1879 117.671 93.0587 117.967 92.9864 118.212C92.8443 118.693 92.8393 119.26 92.8759 119.765C92.9511 120.803 93.239 122.009 93.5273 122.802L95.4069 122.118ZM94.4671 119C94.5671 119 94.5434 119.02 94.4922 118.982C94.458 118.956 94.4848 118.956 94.5468 119.095C94.6114 119.24 94.6742 119.44 94.763 119.751C94.8462 120.043 94.9478 120.415 95.0816 120.816L96.979 120.184C96.8629 119.835 96.7769 119.52 96.6863 119.202C96.6012 118.904 96.5038 118.573 96.373 118.28C96.2396 117.981 96.0358 117.638 95.687 117.378C95.3212 117.105 94.8987 117 94.4671 117L94.4671 119ZM95.0816 120.816C95.2765 121.401 95.3076 122.127 95.3216 122.832C95.3278 123.144 95.3312 123.51 95.3654 123.787C95.3814 123.917 95.415 124.134 95.5158 124.344C95.6247 124.571 95.9331 125 96.5303 125L96.5303 123C97.03 123 97.2651 123.367 97.3187 123.478C97.3641 123.573 97.3603 123.623 97.3502 123.541C97.3322 123.396 97.3287 123.169 97.3212 122.793C97.3079 122.123 97.2841 121.099 96.979 120.184L95.0816 120.816ZM96.5303 125C96.7815 125 97.0545 124.942 97.3082 124.784C97.5604 124.627 97.7287 124.411 97.8372 124.198C98.0347 123.811 98.0697 123.363 98.0697 123L96.0697 123C96.0697 123.128 96.0621 123.215 96.0531 123.271C96.0436 123.33 96.0367 123.327 96.0556 123.29C96.078 123.246 96.1359 123.158 96.2503 123.087C96.3663 123.014 96.4743 123 96.5303 123L96.5303 125ZM98.0697 123C98.0697 122.976 98.072 122.972 98.0697 122.982C98.0671 122.993 98.0602 123.016 98.0442 123.044L96.3052 122.056C96.1304 122.364 96.0697 122.693 96.0697 123L98.0697 123ZM98.0442 123.044C97.9899 123.139 97.9231 123.15 97.9823 123.129C98.0583 123.103 98.2244 123.069 98.5303 123.069L98.5303 121.069C97.7898 121.069 96.7925 121.198 96.3052 122.056L98.0442 123.044ZM98.5303 123.069C98.4833 123.069 98.3928 123.055 98.298 122.994C98.2098 122.938 98.1705 122.875 98.1615 122.859C98.1613 122.859 98.1921 122.93 98.2231 123.165C98.2413 123.304 98.2747 123.68 98.3258 123.913C98.3537 124.04 98.4126 124.269 98.5609 124.484C98.7423 124.748 99.0718 125 99.5303 125L99.5303 123C99.8638 123 100.099 123.192 100.208 123.35C100.284 123.46 100.291 123.538 100.279 123.484C100.251 123.354 100.251 123.248 100.206 122.904C100.173 122.657 100.11 122.246 99.9074 121.883C99.7972 121.686 99.6297 121.472 99.3768 121.31C99.1171 121.144 98.8251 121.069 98.5303 121.069V123.069ZM99.5303 125C99.5865 125 99.8107 125.007 99.9933 124.975C100.111 124.954 100.281 124.909 100.454 124.796C100.638 124.676 100.768 124.518 100.855 124.353C100.996 124.082 101.013 123.791 101.021 123.65C101.031 123.474 101.03 123.248 101.03 123L99.0303 123C99.0303 123.273 99.0299 123.432 99.024 123.541C99.0212 123.592 99.0183 123.605 99.02 123.595C99.0213 123.588 99.0334 123.519 99.0811 123.428C99.1361 123.323 99.2277 123.208 99.3626 123.12C99.4868 123.039 99.5979 123.014 99.6454 123.005C99.6882 122.998 99.7093 122.999 99.6763 123C99.6409 123.001 99.6102 123 99.5303 123V125ZM101.03 123C101.03 122.905 101.036 122.845 101.041 122.811C101.046 122.777 101.049 122.783 101.036 122.814C101.021 122.848 100.99 122.903 100.934 122.958C100.878 123.014 100.82 123.047 100.779 123.064C100.742 123.08 100.725 123.081 100.745 123.077C100.766 123.074 100.805 123.07 100.875 123.068C100.945 123.066 101.028 123.066 101.135 123.067C101.236 123.068 101.363 123.069 101.494 123.069L101.494 121.069C101.293 121.069 101.013 121.062 100.811 121.069C100.603 121.076 100.295 121.097 99.9955 121.224C99.6403 121.375 99.3626 121.645 99.2012 122.017C99.0618 122.338 99.0303 122.687 99.0303 123L101.03 123ZM101.494 123.069C101.45 123.069 101.362 123.056 101.27 122.998C101.184 122.943 101.145 122.882 101.136 122.867C101.13 122.856 101.14 122.871 101.157 122.933C101.172 122.994 101.187 123.072 101.202 123.176C101.222 123.318 101.26 123.693 101.317 123.932C101.348 124.062 101.413 124.292 101.57 124.507C101.76 124.768 102.089 125 102.53 125L102.53 123C102.842 123 103.072 123.172 103.185 123.328C103.264 123.436 103.274 123.516 103.262 123.465C103.232 123.342 103.231 123.234 103.182 122.893C103.147 122.647 103.079 122.236 102.873 121.875C102.761 121.679 102.592 121.467 102.339 121.307C102.079 121.143 101.788 121.069 101.494 121.069V123.069ZM102.53 125C102.759 125 103.033 124.942 103.28 124.758C103.522 124.577 103.643 124.345 103.703 124.169C103.761 124.001 103.777 123.845 103.783 123.747C103.79 123.646 103.789 123.547 103.788 123.49C103.787 123.418 103.787 123.39 103.788 123.369C103.789 123.345 103.79 123.387 103.768 123.458C103.744 123.534 103.677 123.693 103.506 123.828C103.327 123.969 103.14 124 103.03 124L103.03 122C102.795 122 102.515 122.062 102.267 122.258C102.027 122.447 101.915 122.685 101.861 122.855C101.809 123.019 101.796 123.17 101.791 123.264C101.786 123.36 101.788 123.457 101.788 123.51C101.789 123.578 101.788 123.604 101.787 123.62C101.786 123.639 101.786 123.593 101.812 123.519C101.84 123.436 101.913 123.283 102.082 123.156C102.255 123.026 102.431 123 102.53 123L102.53 125ZM103.03 124C103.116 124 103.072 124.011 102.996 123.977C102.892 123.931 102.846 123.862 102.847 123.863C102.86 123.887 102.912 123.997 102.957 124.278C103 124.553 103.03 124.945 103.03 125.5L105.03 125.5C105.03 124.319 104.915 123.459 104.589 122.88C104.402 122.549 104.138 122.294 103.799 122.145C103.488 122.009 103.195 122 103.03 122V124ZM103.03 125.5C103.03 126.106 103.049 126.569 103.063 126.928C103.078 127.303 103.085 127.513 103.075 127.677C103.067 127.813 103.048 127.881 103.019 127.948C102.982 128.034 102.908 128.163 102.73 128.4L104.33 129.6C104.543 129.317 104.726 129.04 104.856 128.739C104.994 128.418 105.052 128.115 105.071 127.798C105.089 127.511 105.075 127.187 105.061 126.849C105.047 126.495 105.03 126.065 105.03 125.5L103.03 125.5ZM102.73 128.4C102.34 128.921 101.965 129.421 101.688 129.79C101.549 129.975 101.435 130.128 101.355 130.234C101.315 130.287 101.284 130.329 101.263 130.357C101.252 130.371 101.244 130.382 101.239 130.389C101.236 130.393 101.234 130.395 101.232 130.397C101.232 130.398 101.231 130.399 101.231 130.399C101.231 130.4 101.231 130.4 101.23 130.4C101.23 130.4 101.23 130.4 101.23 130.4C101.23 130.4 101.23 130.4 101.23 130.4C101.23 130.4 101.23 130.4 102.03 131C102.83 131.6 102.83 131.6 102.83 131.6C102.83 131.6 102.83 131.6 102.83 131.6C102.83 131.6 102.83 131.6 102.83 131.6C102.831 131.6 102.831 131.6 102.831 131.599C102.831 131.599 102.832 131.598 102.832 131.597C102.834 131.595 102.836 131.593 102.839 131.589C102.844 131.582 102.852 131.571 102.863 131.557C102.884 131.529 102.915 131.487 102.955 131.434C103.035 131.328 103.149 131.175 103.288 130.99C103.565 130.621 103.94 130.121 104.33 129.6L102.73 128.4ZM102.03 131C101.03 131 101.03 131 101.03 130.999C101.03 130.999 101.03 130.999 101.03 130.999C101.03 130.999 101.03 130.998 101.03 130.998C101.03 130.997 101.03 130.997 101.03 130.996C101.03 130.996 101.03 130.995 101.03 130.994C101.03 130.993 101.03 130.993 101.03 130.993C101.03 130.994 101.03 130.998 101.03 131.005C101.029 131.018 101.028 131.04 101.026 131.067C101.021 131.127 101.011 131.19 100.997 131.241C100.98 131.304 100.976 131.278 101.025 131.217C101.055 131.18 101.111 131.122 101.201 131.074C101.296 131.024 101.399 131 101.494 131V133C101.991 133 102.359 132.749 102.583 132.471C102.783 132.222 102.879 131.946 102.929 131.759C102.983 131.56 103.007 131.373 103.018 131.245C103.024 131.179 103.027 131.123 103.029 131.081C103.029 131.06 103.03 131.043 103.03 131.029C103.03 131.022 103.03 131.016 103.03 131.012C103.03 131.009 103.03 131.007 103.03 131.005C103.03 131.004 103.03 131.003 103.03 131.002C103.03 131.002 103.03 131.001 103.03 131.001C103.03 131.001 103.03 131.001 103.03 131.001C103.03 131 103.03 131 102.03 131ZM101.494 131C101.693 131 101.798 131.098 101.774 131.078C101.737 131.047 101.693 130.997 101.559 130.844C101.455 130.724 101.279 130.521 101.056 130.354C100.815 130.175 100.471 130 100.03 130L100.03 132C99.9152 132 99.8494 131.95 99.8605 131.958C99.8889 131.979 99.937 132.026 100.051 132.156C100.134 132.253 100.301 132.453 100.487 132.609C100.686 132.777 101.027 133 101.494 133L101.494 131ZM100.03 130C99.1706 130 98.6595 130.641 98.4574 130.941C98.3336 131.124 98.2439 131.301 98.1858 131.427C98.1562 131.492 98.1332 131.548 98.1168 131.589C98.1086 131.61 98.1019 131.627 98.0969 131.641C98.0943 131.648 98.0922 131.654 98.0904 131.659C98.0895 131.661 98.0887 131.663 98.088 131.665C98.0877 131.666 98.0874 131.667 98.0871 131.668C98.0869 131.668 98.0868 131.669 98.0867 131.669C98.0866 131.669 98.0865 131.67 98.0865 131.67C98.0864 131.67 98.0863 131.67 99.0303 132C99.9744 132.33 99.9743 132.33 99.9742 132.33C99.9741 132.33 99.9741 132.331 99.974 132.331C99.9739 132.331 99.9738 132.331 99.9737 132.332C99.9735 132.332 99.9733 132.333 99.9731 132.333C99.9727 132.334 99.9725 132.335 99.9723 132.336C99.9719 132.337 99.9717 132.337 99.9719 132.337C99.9723 132.336 99.9738 132.332 99.9764 132.325C99.9817 132.312 99.991 132.289 100.004 132.26C100.032 132.199 100.07 132.126 100.115 132.059C100.137 132.027 100.157 132.001 100.174 131.982C100.183 131.973 100.19 131.966 100.195 131.961C100.2 131.956 100.202 131.954 100.202 131.955C100.201 131.955 100.139 132 100.03 132L100.03 130ZM99.0303 131H96.0303V133H99.0303V131ZM103.03 130V126H101.03V130H103.03ZM102.03 125H101.03V127H102.03V125ZM100.03 126V130H102.03V126H100.03ZM101.03 131H102.03V129H101.03V131ZM98.0303 129C98.0303 129.317 98.1377 129.705 98.2589 129.991C98.3235 130.144 98.4217 130.34 98.5654 130.515C98.6808 130.656 99.002 131 99.5303 131V129C99.7316 129 99.8832 129.07 99.9707 129.126C100.054 129.179 100.099 129.232 100.113 129.248C100.138 129.279 100.128 129.275 100.101 129.212C100.078 129.158 100.057 129.093 100.042 129.034C100.035 129.005 100.032 128.984 100.03 128.973C100.028 128.958 100.03 128.969 100.03 129H98.0303ZM99.5303 131C100.05 131 100.371 130.67 100.495 130.52C100.642 130.343 100.741 130.144 100.806 129.99C100.928 129.699 101.03 129.313 101.03 129H99.0303C99.0303 128.959 99.0346 128.972 99.018 129.042C99.0041 129.1 98.9837 129.164 98.9618 129.216C98.936 129.278 98.9272 129.278 98.9547 129.245C98.9701 129.226 99.0165 129.173 99.1009 129.12C99.1901 129.065 99.3378 129 99.5303 129V131ZM101.03 129V127H99.0303V129H101.03ZM101.03 127C101.03 126.683 100.923 126.295 100.802 126.009C100.737 125.856 100.639 125.66 100.495 125.485C100.38 125.344 100.059 125 99.5303 125V127C99.329 127 99.1774 126.93 99.0899 126.874C99.0067 126.821 98.9616 126.768 98.9478 126.752C98.923 126.721 98.9331 126.725 98.9599 126.788C98.9829 126.842 99.004 126.907 99.0183 126.966C99.0252 126.995 99.0291 127.016 99.0308 127.027C99.0331 127.042 99.0303 127.031 99.0303 127H101.03ZM99.5303 125C99.0104 125 98.6894 125.33 98.5655 125.48C98.4183 125.657 98.3193 125.856 98.2547 126.01C98.1323 126.301 98.0303 126.687 98.0303 127H100.03C100.03 127.041 100.026 127.028 100.043 126.958C100.057 126.9 100.077 126.836 100.099 126.784C100.125 126.722 100.133 126.722 100.106 126.755C100.091 126.774 100.044 126.827 99.9597 126.88C99.8705 126.935 99.7228 127 99.5303 127V125ZM98.0303 127V129H100.03V127H98.0303ZM96.0303 129C96.0303 129.317 96.1377 129.705 96.2589 129.991C96.3235 130.144 96.4217 130.34 96.5654 130.515C96.6808 130.656 97.002 131 97.5303 131V129C97.7316 129 97.8832 129.07 97.9707 129.126C98.054 129.179 98.099 129.232 98.1128 129.248C98.1376 129.279 98.1275 129.275 98.1007 129.212C98.0777 129.158 98.0567 129.093 98.0423 129.034C98.0354 129.005 98.0315 128.984 98.0298 128.973C98.0275 128.958 98.0303 128.969 98.0303 129H96.0303ZM97.5303 131C98.0502 131 98.3713 130.67 98.4951 130.52C98.6423 130.343 98.7413 130.144 98.8059 129.99C98.9283 129.699 99.0303 129.313 99.0303 129H97.0303C97.0303 128.959 97.0346 128.972 97.018 129.042C97.0041 129.1 96.9837 129.164 96.9618 129.216C96.936 129.278 96.9272 129.278 96.9547 129.245C96.9701 129.226 97.0165 129.173 97.1009 129.12C97.1901 129.065 97.3378 129 97.5303 129V131ZM99.0303 129V127H97.0303V129H99.0303ZM99.0303 127C99.0303 126.683 98.9229 126.295 98.8017 126.009C98.7371 125.856 98.639 125.66 98.4952 125.485C98.3798 125.344 98.0586 125 97.5303 125V127C97.329 127 97.1774 126.93 97.0899 126.874C97.0067 126.821 96.9616 126.768 96.9478 126.752C96.923 126.721 96.9331 126.725 96.9599 126.788C96.9829 126.842 97.004 126.907 97.0183 126.966C97.0252 126.995 97.0291 127.016 97.0308 127.027C97.0331 127.042 97.0303 127.031 97.0303 127H99.0303ZM97.5303 125C97.0104 125 96.6894 125.33 96.5655 125.48C96.4183 125.657 96.3193 125.856 96.2547 126.01C96.1323 126.301 96.0303 126.687 96.0303 127H98.0303C98.0303 127.041 98.026 127.028 98.0426 126.958C98.0565 126.9 98.0769 126.836 98.0988 126.784C98.1247 126.722 98.1334 126.722 98.1059 126.755C98.0905 126.774 98.0441 126.827 97.9597 126.88C97.8705 126.935 97.7228 127 97.5303 127V125ZM96.0303 127V129H98.0303V127H96.0303Z" fill="black" mask="url(#path-13-outside-1)"/>
</g>
<defs>
<filter id="filter0_d" x="88" y="116" width="19.0794" height="20" filterUnits="userSpaceOnUse" color-interpolation-filters="sRGB">
<feFlood flood-opacity="0" result="BackgroundImageFix"/>
<feColorMatrix in="SourceAlpha" type="matrix" values="0 0 0 0 0 0 0 0 0 0 0 0 0 0 0 0 0 0 127 0"/>
<feOffset dy="1"/>
<feGaussianBlur stdDeviation="1"/>
<feColorMatrix type="matrix" values="0 0 0 0 0 0 0 0 0 0 0 0 0 0 0 0 0 0 0.305084 0"/>
<feBlend mode="normal" in2="BackgroundImageFix" result="effect1_dropShadow"/>
<feBlend mode="normal" in="SourceGraphic" in2="effect1_dropShadow" result="shape"/>
</filter>
</defs>
</svg>
